Trocchi.ufo
<glyph name="exclam" format="1">
  <advance width="418"/>
  <unicode hex="0021"/>
  <outline>
    <contour>
      <point x="142" y="62" type="curve" smooth="yes"/>
      <point x="142" y="102"/>
      <point x="174" y="135"/>
      <point x="214" y="135" type="curve" smooth="yes"/>
      <point x="253" y="135"/>
      <point x="287" y="102"/>
      <point x="287" y="62" type="curve" smooth="yes"/>
      <point x="287" y="23"/>
      <point x="253" y="-10"/>
      <point x="214" y="-10" type="curve" smooth="yes"/>
      <point x="174" y="-10"/>
      <point x="142" y="23"/>
    </contour>
    <contour>
      <point x="230" y="220" type="line"/>
      <point x="195" y="220" type="line"/>
      <point x="149" y="722" type="line"/>
      <point x="276" y="722" type="line"/>
    </contour>
    <contour>
      <point x="208.0" y="722.0" type="move" name="top"/>
    </contour>
    <contour>
      <point x="378.0" y="10.0" type="move" name="ogonek"/>
    </contour>
  </outline>
</glyph>
<glyph name="quotedbl" format="1">
  <advance width="326"/>
  <unicode hex="0022"/>
  <outline>
    <contour>
      <point x="199" y="532"/>
      <point x="168" y="709"/>
      <point x="168" y="711" type="curve" smooth="yes"/>
      <point x="168" y="733"/>
      <point x="182" y="750"/>
      <point x="210" y="750" type="curve"/>
      <point x="240" y="750"/>
      <point x="251" y="733"/>
      <point x="251" y="711" type="curve" smooth="yes"/>
      <point x="251" y="709"/>
      <point x="220" y="532"/>
      <point x="220" y="532" type="curve" smooth="yes"/>
      <point x="219" y="524"/>
      <point x="214" y="519"/>
      <point x="209" y="519" type="curve" smooth="yes"/>
      <point x="204" y="519"/>
      <point x="200" y="524"/>
      <point x="199" y="532" type="curve" smooth="yes"/>
    </contour>
    <contour>
      <point x="71" y="532"/>
      <point x="40" y="709"/>
      <point x="40" y="711" type="curve" smooth="yes"/>
      <point x="40" y="733"/>
      <point x="54" y="750"/>
      <point x="82" y="750" type="curve"/>
      <point x="112" y="750"/>
      <point x="123" y="733"/>
      <point x="123" y="711" type="curve" smooth="yes"/>
      <point x="123" y="709"/>
      <point x="92" y="532"/>
      <point x="92" y="532" type="curve" smooth="yes"/>
      <point x="91" y="524"/>
      <point x="86" y="519"/>
      <point x="81" y="519" type="curve" smooth="yes"/>
      <point x="76" y="519"/>
      <point x="72" y="524"/>
      <point x="71" y="532" type="curve" smooth="yes"/>
    </contour>
    <contour>
      <point x="116" y="722" type="move" name="top"/>
    </contour>
    <contour>
      <point x="286" y="10" type="move" name="ogonek"/>
    </contour>
  </outline>
</glyph>
<glyph name="numbersign" format="1">
  <advance width="582"/>
  <unicode hex="0023"/>
  <outline>
    <contour>
      <point x="14" y="315" type="line"/>
      <point x="545" y="315" type="line"/>
      <point x="545" y="282" type="line"/>
      <point x="14" y="282" type="line"/>
    </contour>
    <contour>
      <point x="569" y="762" type="line"/>
      <point x="289" y="-83" type="line"/>
      <point x="231" y="-65" type="line"/>
      <point x="511" y="780" type="line"/>
    </contour>
    <contour>
      <point x="288" y="780" type="line"/>
      <point x="346" y="762" type="line"/>
      <point x="66" y="-83" type="line"/>
      <point x="8" y="-65" type="line"/>
    </contour>
    <contour>
      <point x="73" y="524" type="line"/>
      <point x="604" y="524" type="line"/>
      <point x="604" y="491" type="line"/>
      <point x="73" y="491" type="line"/>
    </contour>
  </outline>
</glyph>
<glyph name="dollar" format="1">
  <advance width="681.013607947"/>
  <unicode hex="0024"/>
  <outline>
    <contour>
      <point x="321" y="810" type="line"/>
      <point x="321" y="-94" type="line"/>
      <point x="368" y="-93" type="line"/>
      <point x="368" y="811" type="line"/>
    </contour>
    <component base="S"/>
    <contour>
      <point x="53.0" y="453.0" type="move" name="top"/>
    </contour>
  </outline>
</glyph>
<glyph name="percent" format="1">
  <advance width="893"/>
  <unicode hex="0025"/>
  <outline>
    <contour>
      <point x="535" y="-18"/>
      <point x="473" y="71"/>
      <point x="473" y="161" type="curve" smooth="yes"/>
      <point x="473" y="250"/>
      <point x="536" y="340"/>
      <point x="660" y="340" type="curve" smooth="yes"/>
      <point x="784" y="340"/>
      <point x="847" y="250"/>
      <point x="847" y="160" type="curve" smooth="yes"/>
      <point x="847" y="71"/>
      <point x="786" y="-18"/>
      <point x="661" y="-18" type="curve" smooth="yes"/>
    </contour>
    <contour>
      <point x="585" y="296"/>
      <point x="549" y="233"/>
      <point x="549" y="167" type="curve" smooth="yes"/>
      <point x="549" y="99"/>
      <point x="589" y="28"/>
      <point x="661" y="28" type="curve" smooth="yes"/>
      <point x="732" y="28"/>
      <point x="771" y="98"/>
      <point x="771" y="166" type="curve" smooth="yes"/>
      <point x="771" y="232"/>
      <point x="735" y="296"/>
      <point x="660" y="296" type="curve" smooth="yes"/>
    </contour>
    <contour>
      <point x="108" y="380"/>
      <point x="46" y="469"/>
      <point x="46" y="559" type="curve" smooth="yes"/>
      <point x="46" y="648"/>
      <point x="109" y="738"/>
      <point x="233" y="738" type="curve" smooth="yes"/>
      <point x="357" y="738"/>
      <point x="420" y="648"/>
      <point x="420" y="558" type="curve" smooth="yes"/>
      <point x="420" y="469"/>
      <point x="359" y="380"/>
      <point x="234" y="380" type="curve" smooth="yes"/>
    </contour>
    <contour>
      <point x="158" y="694"/>
      <point x="122" y="631"/>
      <point x="122" y="565" type="curve" smooth="yes"/>
      <point x="122" y="497"/>
      <point x="162" y="426"/>
      <point x="234" y="426" type="curve" smooth="yes"/>
      <point x="305" y="426"/>
      <point x="344" y="496"/>
      <point x="344" y="564" type="curve" smooth="yes"/>
      <point x="344" y="630"/>
      <point x="308" y="694"/>
      <point x="233" y="694" type="curve" smooth="yes"/>
    </contour>
    <contour>
      <point x="685" y="722" type="line"/>
      <point x="734" y="693" type="line"/>
      <point x="214" y="-30" type="line"/>
      <point x="165" y="-1" type="line"/>
    </contour>
    <contour>
      <point x="223" y="529" type="move" name="top"/>
    </contour>
  </outline>
</glyph>
<glyph name="ampersand" format="1">
  <advance width="884"/>
  <unicode hex="0026"/>
  <outline>
    <contour>
      <point x="530" y="15"/>
      <point x="596.324276912" y="-15.0"/>
      <point x="653" y="-15" type="curve" smooth="yes"/>
      <point x="774" y="-15"/>
      <point x="803" y="69"/>
      <point x="803" y="212" type="curve"/>
      <point x="803" y="241" type="line" smooth="yes"/>
      <point x="744" y="241" type="line"/>
      <point x="744" y="183" type="line"/>
      <point x="744" y="88"/>
      <point x="719" y="53"/>
      <point x="672" y="53" type="curve" smooth="yes"/>
      <point x="627.078446755" y="53.0"/>
      <point x="583" y="81"/>
      <point x="543" y="152" type="curve"/>
      <point x="736" y="421" type="line" smooth="yes"/>
      <point x="837" y="421" type="line" smooth="yes"/>
      <point x="837" y="468" type="line"/>
      <point x="556" y="468" type="line"/>
      <point x="556" y="421" type="line"/>
      <point x="654" y="421" type="line"/>
      <point x="502" y="216" type="line"/>
      <point x="388" y="399" type="line"/>
      <point x="475" y="430"/>
      <point x="551" y="511"/>
      <point x="551" y="594" type="curve" smooth="yes"/>
      <point x="551" y="691"/>
      <point x="500" y="737"/>
      <point x="406" y="737" type="curve" smooth="yes"/>
      <point x="280" y="737"/>
      <point x="216" y="664"/>
      <point x="216" y="562" type="curve" smooth="yes"/>
      <point x="216" y="528"/>
      <point x="236" y="464"/>
      <point x="250" y="425" type="curve"/>
      <point x="156" y="365"/>
      <point x="62" y="316"/>
      <point x="56" y="196" type="curve" smooth="yes"/>
      <point x="56" y="192"/>
      <point x="56" y="189"/>
      <point x="56" y="185" type="curve" smooth="yes"/>
      <point x="56" y="71"/>
      <point x="144" y="-12"/>
      <point x="260" y="-12" type="curve" smooth="yes"/>
      <point x="332" y="-12"/>
      <point x="420" y="30"/>
      <point x="475" y="78" type="curve"/>
    </contour>
    <contour>
      <point x="317" y="645"/>
      <point x="360" y="681"/>
      <point x="410" y="681" type="curve" smooth="yes"/>
      <point x="450" y="681"/>
      <point x="476" y="655"/>
      <point x="476" y="608" type="curve" smooth="yes"/>
      <point x="476" y="604"/>
      <point x="475" y="600"/>
      <point x="475" y="595" type="curve" smooth="yes"/>
      <point x="469" y="533"/>
      <point x="361" y="461"/>
      <point x="361" y="461" type="curve"/>
      <point x="340" y="502"/>
      <point x="317" y="564"/>
      <point x="317" y="593" type="curve" smooth="yes"/>
    </contour>
    <contour>
      <point x="400" y="108"/>
      <point x="316" y="70"/>
      <point x="302" y="70" type="curve" smooth="yes"/>
      <point x="237" y="70"/>
      <point x="163" y="99"/>
      <point x="163" y="184" type="curve" smooth="yes"/>
      <point x="163" y="193"/>
      <point x="164" y="204"/>
      <point x="166" y="215" type="curve" smooth="yes"/>
      <point x="178" y="282"/>
      <point x="222" y="310"/>
      <point x="286" y="357" type="curve"/>
      <point x="421" y="155" type="line" smooth="yes"/>
      <point x="421" y="155"/>
      <point x="427" y="144"/>
      <point x="427" y="144" type="curve"/>
    </contour>
  </outline>
</glyph>
<glyph name="quotesingle" format="1">
  <advance width="161.0"/>
  <unicode hex="0027"/>
  <outline>
    <contour>
      <point x="71.0" y="532.0"/>
      <point x="40.0" y="709.0"/>
      <point x="40.0" y="711.0" type="curve" smooth="yes"/>
      <point x="40.0" y="733.0"/>
      <point x="54.0" y="750.0"/>
      <point x="82.0" y="750.0" type="curve"/>
      <point x="112.0" y="750.0"/>
      <point x="123.0" y="733.0"/>
      <point x="123.0" y="711.0" type="curve" smooth="yes"/>
      <point x="123.0" y="709.0"/>
      <point x="92.0" y="532.0"/>
      <point x="92.0" y="532.0" type="curve" smooth="yes"/>
      <point x="91.0" y="524.0"/>
      <point x="86.0" y="519.0"/>
      <point x="81.0" y="519.0" type="curve" smooth="yes"/>
      <point x="76.0" y="519.0"/>
      <point x="72.0" y="524.0"/>
      <point x="71.0" y="532.0" type="curve" smooth="yes"/>
    </contour>
    <contour>
      <point x="116.0" y="722.0" type="move" name="top"/>
    </contour>
    <contour>
      <point x="286.0" y="10.0" type="move" name="ogonek"/>
    </contour>
  </outline>
</glyph>
<glyph name="parenleft" format="1">
  <advance width="872"/>
  <unicode hex="0028"/>
  <outline>
    <contour>
      <point x="424" y="668" type="curve" smooth="yes"/>
      <point x="424" y="1028"/>
      <point x="549" y="1432"/>
      <point x="799" y="1479" type="curve"/>
      <point x="799" y="1565" type="line"/>
      <point x="400" y="1526"/>
      <point x="199" y="1076"/>
      <point x="199" y="668" type="curve" smooth="yes"/>
      <point x="199" y="258"/>
      <point x="400" y="-190"/>
      <point x="799" y="-229" type="curve"/>
      <point x="799" y="-143" type="line"/>
      <point x="549" y="-96"/>
      <point x="424" y="306"/>
    </contour>
  </outline>
</glyph>
<glyph name="parenright" format="1">
  <advance width="426"/>
  <unicode hex="0029"/>
  <outline>
    <contour>
      <point x="158" y="699"/>
      <point x="219" y="503"/>
      <point x="219" y="326" type="curve" smooth="yes"/>
      <point x="219" y="150"/>
      <point x="158" y="-47"/>
      <point x="36" y="-70" type="curve"/>
      <point x="36" y="-112" type="line"/>
      <point x="231" y="-93"/>
      <point x="329" y="127"/>
      <point x="329" y="326" type="curve" smooth="yes"/>
      <point x="329" y="526"/>
      <point x="231" y="745"/>
      <point x="36" y="764" type="curve"/>
      <point x="36" y="722" type="line"/>
    </contour>
  </outline>
</glyph>
<glyph name="asterisk" format="1">
  <advance width="1615"/>
  <unicode hex="002A"/>
  <outline>
    <contour>
      <point x="1104" y="311" type="line"/>
      <point x="1276" y="465" type="line"/>
      <point x="893" y="862" type="line"/>
      <point x="1411" y="1024" type="line"/>
      <point x="1329" y="1219" type="line"/>
      <point x="852" y="946" type="line"/>
      <point x="918" y="1479" type="line"/>
      <point x="698" y="1479" type="line"/>
      <point x="764" y="946" type="line"/>
      <point x="287" y="1219" type="line"/>
      <point x="205" y="1024" type="line"/>
      <point x="723" y="862" type="line"/>
      <point x="340" y="465" type="line"/>
      <point x="512" y="311" type="line"/>
      <point x="808" y="796" type="line"/>
    </contour>
  </outline>
</glyph>
<glyph name="plus" format="1">
  <advance width="467"/>
  <unicode hex="002B"/>
  <outline>
    <contour>
      <point x="30" y="332" type="line"/>
      <point x="437" y="332" type="line"/>
      <point x="437" y="260" type="line"/>
      <point x="437" y="260"/>
      <point x="30" y="260"/>
      <point x="30" y="260" type="curve"/>
    </contour>
    <contour>
      <point x="275" y="511" type="line"/>
      <point x="275" y="76" type="line"/>
      <point x="192" y="76" type="line"/>
      <point x="192" y="76"/>
      <point x="192" y="511"/>
      <point x="192" y="511" type="curve"/>
    </contour>
  </outline>
</glyph>
<glyph name="comma" format="1">
  <advance width="473"/>
  <unicode hex="002C"/>
  <outline>
    <contour>
      <point x="188" y="-174" type="line"/>
      <point x="243" y="-141"/>
      <point x="317" y="-73"/>
      <point x="317" y="-16" type="curve" smooth="yes"/>
      <point x="317" y="-6"/>
      <point x="315" y="4"/>
      <point x="309" y="12" type="curve"/>
      <point x="286" y="-2"/>
      <point x="256" y="-12"/>
      <point x="225" y="-12" type="curve" smooth="yes"/>
      <point x="155" y="-12"/>
      <point x="92" y="53"/>
      <point x="92" y="121" type="curve" smooth="yes"/>
      <point x="92" y="197"/>
      <point x="170" y="264"/>
      <point x="242" y="264" type="curve" smooth="yes"/>
      <point x="324" y="264"/>
      <point x="430" y="200"/>
      <point x="430" y="55" type="curve" smooth="yes"/>
      <point x="430" y="-39"/>
      <point x="381" y="-154"/>
      <point x="250" y="-244" type="curve"/>
      <point x="244" y="-246"/>
      <point x="240" y="-250"/>
      <point x="238" y="-252" type="curve"/>
    </contour>
  </outline>
</glyph>
<glyph name="hyphen" format="1">
  <advance width="831"/>
  <unicode hex="002D"/>
  <outline>
    <contour>
      <point x="707" y="547" type="line"/>
      <point x="707" y="684" type="line"/>
      <point x="125" y="684" type="line"/>
      <point x="125" y="547" type="line"/>
    </contour>
  </outline>
</glyph>
<glyph name="period" format="1">
  <advance width="327"/>
  <unicode hex="002E"/>
  <outline>
    <contour>
      <point x="91" y="62" type="curve" smooth="yes"/>
      <point x="91" y="102"/>
      <point x="123" y="135"/>
      <point x="163" y="135" type="curve" smooth="yes"/>
      <point x="202" y="135"/>
      <point x="236" y="102"/>
      <point x="236" y="62" type="curve" smooth="yes"/>
      <point x="236" y="23"/>
      <point x="202" y="-10"/>
      <point x="163" y="-10" type="curve" smooth="yes"/>
      <point x="123" y="-10"/>
      <point x="91" y="23"/>
    </contour>
  </outline>
</glyph>
<glyph name="slash" format="1">
  <advance width="582"/>
  <unicode hex="002F"/>
  <outline>
    <contour>
      <point x="433" y="780" type="line"/>
      <point x="491" y="762" type="line"/>
      <point x="211" y="-83" type="line"/>
      <point x="153" y="-65" type="line"/>
    </contour>
    <contour>
      <point x="53" y="453" type="move" name="top"/>
    </contour>
  </outline>
</glyph>
<glyph name="zero" format="1">
  <advance width="776"/>
  <unicode hex="0030"/>
  <outline>
    <contour>
      <point x="388" y="-13" type="curve" smooth="yes"/>
      <point x="591" y="-13"/>
      <point x="701" y="165"/>
      <point x="701" y="363" type="curve" smooth="yes"/>
      <point x="701" y="560"/>
      <point x="591" y="737"/>
      <point x="388" y="737" type="curve" smooth="yes"/>
      <point x="185" y="737"/>
      <point x="75" y="560"/>
      <point x="75" y="363" type="curve" smooth="yes"/>
      <point x="75" y="165"/>
      <point x="185" y="-13"/>
    </contour>
    <contour>
      <point x="388" y="670" type="curve" smooth="no"/>
      <point x="512" y="667"/>
      <point x="583" y="514"/>
      <point x="583" y="361" type="curve" smooth="yes"/>
      <point x="583" y="208"/>
      <point x="512" y="55"/>
      <point x="388" y="55" type="curve" smooth="yes"/>
      <point x="264" y="55"/>
      <point x="193" y="208"/>
      <point x="193" y="361" type="curve" smooth="yes"/>
      <point x="193" y="514"/>
      <point x="264" y="667"/>
    </contour>
  </outline>
</glyph>
<glyph name="one" format="1">
  <advance width="821"/>
  <unicode hex="0031"/>
  <outline>
    <contour>
      <point x="117" y="0" type="line"/>
      <point x="805" y="0" type="line"/>
      <point x="805" y="119" type="line"/>
      <point x="575" y="119" type="line"/>
      <point x="575" y="1073" type="line"/>
      <point x="453" y="1073" type="line"/>
      <point x="86" y="928" type="line"/>
      <point x="147" y="799" type="line"/>
      <point x="360" y="897" type="line"/>
      <point x="360" y="119" type="line"/>
      <point x="117" y="119" type="line"/>
    </contour>
  </outline>
</glyph>
<glyph name="two" format="1">
  <advance width="517"/>
  <unicode hex="0032"/>
  <outline>
    <contour>
      <point x="486" y="-67" type="line" smooth="yes"/>
      <point x="468" y="80" type="line" smooth="yes"/>
      <point x="207" y="80" type="line"/>
      <point x="207" y="80"/>
      <point x="339" y="176"/>
      <point x="339" y="176" type="curve" smooth="yes"/>
      <point x="441" y="241"/>
      <point x="470" y="310"/>
      <point x="470" y="355" type="curve" smooth="yes"/>
      <point x="470" y="473"/>
      <point x="394" y="540"/>
      <point x="274" y="540" type="curve" smooth="yes"/>
      <point x="146" y="540"/>
      <point x="42" y="468"/>
      <point x="42" y="388" type="curve" smooth="yes"/>
      <point x="42" y="385" type="line" smooth="yes"/>
      <point x="43" y="348"/>
      <point x="66" y="306"/>
      <point x="123" y="306" type="curve" smooth="yes"/>
      <point x="167" y="306"/>
      <point x="198" y="334"/>
      <point x="198" y="377" type="curve" smooth="yes"/>
      <point x="198" y="412"/>
      <point x="172" y="432"/>
      <point x="151" y="438" type="curve"/>
      <point x="178" y="469"/>
      <point x="214" y="484"/>
      <point x="256" y="484" type="curve" smooth="yes"/>
      <point x="317" y="484"/>
      <point x="369.0" y="428.052815769"/>
      <point x="369" y="362" type="curve" smooth="yes"/>
      <point x="369" y="315"/>
      <point x="347" y="265"/>
      <point x="293" y="229" type="curve"/>
      <point x="281" y="220"/>
      <point x="60" y="58"/>
      <point x="60" y="58" type="curve" smooth="yes"/>
      <point x="61" y="58"/>
      <point x="70" y="0"/>
      <point x="70" y="0" type="curve"/>
      <point x="406" y="0" type="line"/>
      <point x="452" y="-72" type="line"/>
    </contour>
  </outline>
</glyph>
<glyph name="three" format="1">
  <advance width="540.0"/>
  <unicode hex="0033"/>
  <outline>
    <contour>
      <point x="48.0" y="-117.0"/>
      <point x="126.0" y="-149.0"/>
      <point x="218.0" y="-149.0" type="curve" smooth="yes"/>
      <point x="221.0" y="-149.0"/>
      <point x="224.0" y="-149.0"/>
      <point x="227.0" y="-149.0" type="curve" smooth="yes"/>
      <point x="398.0" y="-144.0"/>
      <point x="501.0" y="-54.0"/>
      <point x="501.0" y="65.0" type="curve" smooth="yes"/>
      <point x="501.0" y="152.0"/>
      <point x="451.0" y="218.0"/>
      <point x="327.0" y="231.0" type="curve"/>
      <point x="413.0" y="253.0"/>
      <point x="452.0" y="304.0"/>
      <point x="452.0" y="371.0" type="curve" smooth="yes"/>
      <point x="452.0" y="372.0"/>
      <point x="452.0" y="374.0"/>
      <point x="452.0" y="375.0" type="curve" smooth="yes"/>
      <point x="450.0" y="452.0"/>
      <point x="394.0" y="539.0"/>
      <point x="251.0" y="539.0" type="curve" smooth="yes"/>
      <point x="124.0" y="539.0"/>
      <point x="31.0" y="479.564516129"/>
      <point x="31.0" y="371.0" type="curve" smooth="yes"/>
      <point x="31.0" y="336.0"/>
      <point x="62.0" y="292.0"/>
      <point x="116.0" y="292.0" type="curve" smooth="yes"/>
      <point x="158.0" y="292.0"/>
      <point x="187.0" y="322.0"/>
      <point x="187.0" y="364.0" type="curve" smooth="yes"/>
      <point x="187.0" y="414.0"/>
      <point x="141.0" y="427.0"/>
      <point x="114.0" y="427.0" type="curve"/>
      <point x="152.0" y="470.0"/>
      <point x="180.0" y="480.0"/>
      <point x="232.0" y="480.0" type="curve" smooth="yes"/>
      <point x="312.0" y="480.0"/>
      <point x="359.0" y="436.0"/>
      <point x="359.0" y="368.0" type="curve" smooth="yes"/>
      <point x="359.0" y="300.0"/>
      <point x="306.0" y="260.0"/>
      <point x="199.0" y="244.0" type="curve"/>
      <point x="211.0" y="182.0" type="line"/>
      <point x="229.0" y="185.0"/>
      <point x="246.0" y="188.0"/>
      <point x="261.0" y="188.0" type="curve" smooth="yes"/>
      <point x="263.0" y="188.0"/>
      <point x="266.0" y="188.0"/>
      <point x="268.0" y="188.0" type="curve" smooth="yes"/>
      <point x="371.0" y="181.0"/>
      <point x="392.0" y="123.0"/>
      <point x="393.0" y="65.0" type="curve" smooth="yes"/>
      <point x="393.0" y="64.0"/>
      <point x="393.0" y="63.0"/>
      <point x="393.0" y="62.0" type="curve" smooth="yes"/>
      <point x="393.0" y="-20.0"/>
      <point x="335.0" y="-89.0"/>
      <point x="216.0" y="-99.0" type="curve" smooth="yes"/>
      <point x="213.0" y="-99.0"/>
      <point x="210.0" y="-99.0"/>
      <point x="207.0" y="-99.0" type="curve" smooth="yes"/>
      <point x="194.0" y="-99.0"/>
      <point x="181.0" y="-97.0"/>
      <point x="167.0" y="-95.0" type="curve"/>
      <point x="170.0" y="-84.0"/>
      <point x="180.0" y="-68.0"/>
      <point x="180.0" y="-48.0" type="curve" smooth="yes"/>
      <point x="180.0" y="-16.0"/>
      <point x="156.0" y="20.0"/>
      <point x="113.0" y="20.0" type="curve" smooth="yes"/>
      <point x="64.0" y="20.0"/>
      <point x="44.0" y="-11.0"/>
      <point x="44.0" y="-50.0" type="curve" smooth="yes"/>
    </contour>
  </outline>
</glyph>
<glyph name="four" format="1">
  <advance width="1099"/>
  <unicode hex="0034"/>
  <outline>
    <contour>
      <point x="643" y="150" type="line"/>
      <point x="268" y="150" type="line"/>
      <point x="643" y="924" type="line"/>
    </contour>
    <contour>
      <point x="1081" y="-250" type="line"/>
      <point x="858" y="-250" type="line"/>
      <point x="858" y="0" type="line"/>
      <point x="1106" y="0" type="line"/>
      <point x="1124" y="150" type="line"/>
      <point x="858" y="150" type="line"/>
      <point x="858" y="1057" type="line"/>
      <point x="606" y="1087" type="line"/>
      <point x="84" y="135" type="line"/>
      <point x="109" y="0" type="line"/>
      <point x="643" y="0" type="line"/>
      <point x="643" y="-250" type="line"/>
      <point x="403" y="-250" type="line"/>
      <point x="403" y="-387" type="line"/>
      <point x="1081" y="-387" type="line"/>
    </contour>
  </outline>
</glyph>
<glyph name="five" format="1">
  <advance width="530.898999886"/>
  <unicode hex="0035"/>
  <outline>
    <contour>
      <point x="225" y="-148" type="line"/>
      <point x="413" y="-142"/>
      <point x="503" y="-27"/>
      <point x="492" y="104" type="curve" smooth="yes"/>
      <point x="483" y="210"/>
      <point x="415" y="299"/>
      <point x="224" y="299" type="curve" smooth="yes"/>
      <point x="201" y="299"/>
      <point x="177" y="298"/>
      <point x="151" y="295" type="curve"/>
      <point x="174" y="441" type="line"/>
      <point x="417" y="441" type="line"/>
      <point x="446" y="524" type="line"/>
      <point x="114" y="524" type="line"/>
      <point x="77" y="271" type="line"/>
      <point x="106" y="236" type="line"/>
      <point x="127" y="239"/>
      <point x="148" y="241"/>
      <point x="169" y="241" type="curve" smooth="yes"/>
      <point x="276" y="241"/>
      <point x="376" y="199"/>
      <point x="384" y="89" type="curve" smooth="yes"/>
      <point x="391" y="-8"/>
      <point x="338" y="-84"/>
      <point x="214" y="-95" type="curve" smooth="yes"/>
      <point x="205" y="-95" type="line"/>
      <point x="192" y="-95"/>
      <point x="179" y="-93"/>
      <point x="165" y="-91" type="curve"/>
      <point x="168" y="-80"/>
      <point x="178" y="-67"/>
      <point x="178" y="-47" type="curve" smooth="yes"/>
      <point x="178" y="-15"/>
      <point x="154" y="21"/>
      <point x="111" y="21" type="curve" smooth="yes"/>
      <point x="62" y="21"/>
      <point x="42" y="-10"/>
      <point x="42" y="-49" type="curve" smooth="yes"/>
      <point x="46" y="-116"/>
      <point x="124" y="-148"/>
      <point x="216" y="-148" type="curve" smooth="yes"/>
    </contour>
  </outline>
</glyph>
<glyph name="six" format="1">
  <advance width="618"/>
  <unicode hex="0036"/>
  <outline>
    <contour>
      <point x="335" y="409"/>
      <point x="336" y="409"/>
      <point x="338" y="409" type="curve" smooth="yes"/>
      <point x="425" y="409"/>
      <point x="472" y="329"/>
      <point x="472" y="229" type="curve" smooth="yes"/>
      <point x="472" y="126"/>
      <point x="428" y="51"/>
      <point x="327" y="51" type="curve" smooth="yes"/>
      <point x="325" y="51"/>
      <point x="324" y="51"/>
      <point x="323" y="51" type="curve" smooth="yes"/>
      <point x="246" y="53"/>
      <point x="172" y="109"/>
      <point x="172" y="272" type="curve" smooth="yes"/>
      <point x="172" y="288"/>
      <point x="172" y="306"/>
      <point x="174" y="323" type="curve"/>
      <point x="200" y="363"/>
      <point x="261" y="407"/>
      <point x="333" y="409" type="curve" smooth="yes"/>
    </contour>
    <contour>
      <point x="495" y="529"/>
      <point x="536" y="559"/>
      <point x="536" y="613" type="curve" smooth="yes"/>
      <point x="536" y="690"/>
      <point x="437" y="742"/>
      <point x="355" y="742" type="curve" smooth="yes"/>
      <point x="173" y="742"/>
      <point x="60" y="563"/>
      <point x="60" y="321" type="curve"/>
      <point x="60" y="77"/>
      <point x="202" y="-8"/>
      <point x="326" y="-10" type="curve" smooth="yes"/>
      <point x="327" y="-10"/>
      <point x="329" y="-10"/>
      <point x="329" y="-10" type="curve" smooth="yes"/>
      <point x="494" y="-10"/>
      <point x="584" y="116"/>
      <point x="584" y="235" type="curve" smooth="yes"/>
      <point x="584" y="361"/>
      <point x="496" y="466"/>
      <point x="369" y="466" type="curve" smooth="yes"/>
      <point x="282" y="466"/>
      <point x="205" y="429"/>
      <point x="173" y="385" type="curve"/>
      <point x="173" y="385"/>
      <point x="187" y="682"/>
      <point x="366" y="690" type="curve" smooth="yes"/>
      <point x="368" y="690"/>
      <point x="369" y="690"/>
      <point x="371" y="690" type="curve" smooth="yes"/>
      <point x="396" y="690"/>
      <point x="430" y="673"/>
      <point x="448" y="657" type="curve"/>
      <point x="423" y="657"/>
      <point x="384" y="642"/>
      <point x="384" y="601" type="curve" smooth="yes"/>
      <point x="384" y="553"/>
      <point x="419" y="529"/>
      <point x="454" y="529" type="curve" smooth="yes"/>
    </contour>
    <contour>
      <point x="273" y="-13" type="move" name="top"/>
    </contour>
  </outline>
</glyph>
<glyph name="seven" format="1">
  <advance width="509"/>
  <unicode hex="0037"/>
  <outline>
    <contour>
      <point x="463" y="450" type="line"/>
      <point x="449" y="524" type="line"/>
      <point x="48" y="524" type="line"/>
      <point x="48" y="336" type="line"/>
      <point x="138" y="336" type="line"/>
      <point x="138" y="455" type="line"/>
      <point x="384" y="455" type="line"/>
      <point x="384" y="455"/>
      <point x="126" y="-124"/>
      <point x="126" y="-124" type="curve" smooth="yes"/>
      <point x="120" y="-138"/>
      <point x="117" y="-152"/>
      <point x="117" y="-163" type="curve" smooth="yes"/>
      <point x="117" y="-199"/>
      <point x="143" y="-220"/>
      <point x="172" y="-220" type="curve" smooth="yes"/>
      <point x="195" y="-220"/>
      <point x="219" y="-207"/>
      <point x="232" y="-176" type="curve" smooth="yes"/>
    </contour>
  </outline>
</glyph>
<glyph name="eight" format="1">
  <advance width="1234"/>
  <unicode hex="0038"/>
  <outline>
    <contour>
      <point x="1141" y="358" type="curve"/>
      <point x="1141" y="350" type="line" smooth="yes"/>
      <point x="1141" y="123"/>
      <point x="946" y="-33"/>
      <point x="612" y="-31" type="curve" smooth="yes"/>
      <point x="309" y="-29"/>
      <point x="94" y="115"/>
      <point x="94" y="332" type="curve" smooth="yes"/>
      <point x="94" y="593.157"/>
      <point x="361.066" y="718.808"/>
      <point x="463.059" y="756.968" type="curve"/>
      <point x="303.19" y="852.005"/>
      <point x="164" y="968.446"/>
      <point x="164" y="1163" type="curve" smooth="yes"/>
      <point x="164" y="1374"/>
      <point x="338" y="1509"/>
      <point x="623" y="1509" type="curve" smooth="yes"/>
      <point x="895" y="1509"/>
      <point x="1077" y="1344"/>
      <point x="1077" y="1143" type="curve" smooth="yes"/>
      <point x="1077" y="957.65"/>
      <point x="917.245" y="847.859"/>
      <point x="789.391" y="789.671" type="curve"/>
      <point x="968.633" y="686.358"/>
      <point x="1135.5" y="560.476"/>
    </contour>
    <contour>
      <point x="669.838" y="855.719" type="curve"/>
      <point x="759.023" y="898.642"/>
      <point x="893" y="990.212"/>
      <point x="893" y="1153" type="curve" smooth="yes"/>
      <point x="893" y="1272"/>
      <point x="786" y="1392"/>
      <point x="600" y="1382" type="curve" smooth="yes"/>
      <point x="461" y="1374"/>
      <point x="348" y="1294"/>
      <point x="348" y="1151" type="curve" smooth="yes"/>
      <point x="348" y="1030.38"/>
      <point x="499.36" y="947.933"/>
    </contour>
    <contour>
      <point x="583.5" y="689.619" type="curve"/>
      <point x="484.043" y="636.887"/>
      <point x="313" y="523.48"/>
      <point x="313" y="362" type="curve" smooth="yes"/>
      <point x="313" y="188"/>
      <point x="432" y="106"/>
      <point x="612" y="106" type="curve" smooth="yes"/>
      <point x="790" y="106"/>
      <point x="932" y="174"/>
      <point x="932" y="350" type="curve" smooth="yes"/>
      <point x="932" y="504.818"/>
      <point x="762.965" y="592.726"/>
    </contour>
  </outline>
</glyph>
<glyph name="nine" format="1">
  <advance width="624"/>
  <unicode hex="0039"/>
  <outline>
    <contour>
      <point x="231" y="341"/>
      <point x="166" y="397"/>
      <point x="166" y="500" type="curve" smooth="yes"/>
      <point x="166" y="505"/>
      <point x="166" y="509"/>
      <point x="166" y="514" type="curve" smooth="yes"/>
      <point x="171" y="611"/>
      <point x="213" y="678"/>
      <point x="308" y="678" type="curve" smooth="yes"/>
      <point x="310" y="678"/>
      <point x="311" y="678"/>
      <point x="312" y="678" type="curve" smooth="yes"/>
      <point x="389" y="676"/>
      <point x="463" y="620"/>
      <point x="463" y="457" type="curve" smooth="yes"/>
      <point x="463" y="441"/>
      <point x="463" y="431"/>
      <point x="461" y="414" type="curve"/>
      <point x="435" y="374"/>
      <point x="388" y="341"/>
      <point x="316" y="341" type="curve" smooth="yes"/>
    </contour>
    <contour>
      <point x="140" y="200"/>
      <point x="99" y="170"/>
      <point x="99" y="116" type="curve" smooth="yes"/>
      <point x="99" y="42"/>
      <point x="186" y="-13"/>
      <point x="271" y="-13" type="curve" smooth="yes"/>
      <point x="274" y="-13"/>
      <point x="277" y="-13"/>
      <point x="280" y="-13" type="curve" smooth="yes"/>
      <point x="462" y="-5"/>
      <point x="575" y="166"/>
      <point x="575" y="408" type="curve"/>
      <point x="575" y="652"/>
      <point x="433" y="737"/>
      <point x="309" y="739" type="curve" smooth="yes"/>
      <point x="308" y="739"/>
      <point x="306" y="739"/>
      <point x="306" y="739" type="curve" smooth="yes"/>
      <point x="149" y="739"/>
      <point x="54" y="645"/>
      <point x="52" y="513" type="curve" smooth="yes"/>
      <point x="52" y="512"/>
      <point x="52" y="510"/>
      <point x="52" y="509" type="curve" smooth="yes"/>
      <point x="52" y="361"/>
      <point x="157" y="284"/>
      <point x="290" y="284" type="curve" smooth="yes"/>
      <point x="358" y="284"/>
      <point x="430" y="308"/>
      <point x="462" y="352" type="curve"/>
      <point x="462" y="352"/>
      <point x="448" y="47"/>
      <point x="269" y="39" type="curve" smooth="yes"/>
      <point x="267" y="39"/>
      <point x="266" y="39"/>
      <point x="264" y="39" type="curve" smooth="yes"/>
      <point x="239" y="39"/>
      <point x="205" y="56"/>
      <point x="187" y="72" type="curve"/>
      <point x="212" y="72"/>
      <point x="251" y="87"/>
      <point x="251" y="128" type="curve" smooth="yes"/>
      <point x="251" y="176"/>
      <point x="216" y="200"/>
      <point x="181" y="200" type="curve" smooth="yes"/>
    </contour>
    <contour>
      <point x="362" y="742" type="move" name="top"/>
    </contour>
  </outline>
</glyph>
<glyph name="colon" format="1">
  <advance width="665"/>
  <unicode hex="003A"/>
  <outline>
    <contour>
      <point x="184" y="922" type="curve" smooth="yes"/>
      <point x="184" y="1004"/>
      <point x="250" y="1071"/>
      <point x="332" y="1071" type="curve" smooth="yes"/>
      <point x="412" y="1071"/>
      <point x="481" y="1004"/>
      <point x="481" y="922" type="curve" smooth="yes"/>
      <point x="481" y="842"/>
      <point x="412" y="774"/>
      <point x="332" y="774" type="curve" smooth="yes"/>
      <point x="250" y="774"/>
      <point x="184" y="842"/>
    </contour>
    <contour>
      <point x="184" y="147" type="curve" smooth="yes"/>
      <point x="184" y="229"/>
      <point x="250" y="297"/>
      <point x="332" y="297" type="curve" smooth="yes"/>
      <point x="412" y="297"/>
      <point x="481" y="229"/>
      <point x="481" y="147" type="curve" smooth="yes"/>
      <point x="481" y="67"/>
      <point x="412" y="0"/>
      <point x="332" y="0" type="curve" smooth="yes"/>
      <point x="250" y="0"/>
      <point x="184" y="67"/>
    </contour>
  </outline>
</glyph>
<glyph name="semicolon" format="1">
  <advance width="307.0"/>
  <unicode hex="003B"/>
  <outline>
    <contour>
      <point x="97" y="450" type="curve" smooth="yes"/>
      <point x="97" y="490"/>
      <point x="129" y="523"/>
      <point x="169" y="523" type="curve" smooth="yes"/>
      <point x="208" y="523"/>
      <point x="242" y="490"/>
      <point x="242" y="450" type="curve" smooth="yes"/>
      <point x="242" y="411"/>
      <point x="208" y="378"/>
      <point x="169" y="378" type="curve" smooth="yes"/>
      <point x="129" y="378"/>
      <point x="97" y="411"/>
    </contour>
    <contour>
      <point x="141.0" y="-73.0" type="line"/>
      <point x="166.0" y="-58.0"/>
      <point x="199.0" y="-26.0"/>
      <point x="199.0" y="0.0" type="curve" smooth="yes"/>
      <point x="199.0" y="5.0"/>
      <point x="198.0" y="10.0"/>
      <point x="195.0" y="14.0" type="curve"/>
      <point x="185.0" y="7.0"/>
      <point x="171.0" y="2.0"/>
      <point x="157.0" y="2.0" type="curve" smooth="yes"/>
      <point x="126.0" y="2.0"/>
      <point x="97.0" y="33.0"/>
      <point x="97.0" y="64.0" type="curve" smooth="yes"/>
      <point x="97.0" y="100.0"/>
      <point x="132" y="129"/>
      <point x="165" y="131" type="curve" smooth="yes"/>
      <point x="208" y="133"/>
      <point x="250.0" y="101.0"/>
      <point x="250.0" y="34.0" type="curve" smooth="yes"/>
      <point x="250.0" y="-10.0"/>
      <point x="228.0" y="-63.0"/>
      <point x="168.0" y="-105.0" type="curve" smooth="yes"/>
      <point x="166.0" y="-106.0"/>
      <point x="164.0" y="-108.0"/>
      <point x="163.0" y="-109.0" type="curve"/>
    </contour>
  </outline>
</glyph>
<glyph name="equal" format="1">
  <advance width="919"/>
  <unicode hex="003D"/>
  <outline>
    <contour>
      <point x="111" y="860" type="line"/>
      <point x="809" y="860" type="line"/>
      <point x="809" y="723" type="line"/>
      <point x="111" y="723" type="line"/>
    </contour>
    <contour>
      <point x="111" y="496" type="line"/>
      <point x="809" y="496" type="line"/>
      <point x="809" y="358" type="line"/>
      <point x="111" y="358" type="line"/>
    </contour>
  </outline>
</glyph>
<glyph name="greater" format="1">
  <advance width="450"/>
  <unicode hex="003E"/>
  <outline>
    <contour>
      <point x="435" y="391" type="line"/>
      <point x="44" y="564" type="line"/>
      <point x="44" y="483" type="line"/>
      <point x="359" y="347" type="line"/>
      <point x="44" y="219" type="line"/>
      <point x="44" y="136" type="line"/>
      <point x="435" y="295" type="line"/>
    </contour>
  </outline>
</glyph>
<glyph name="question" format="1">
  <advance width="493"/>
  <unicode hex="003F"/>
  <outline>
    <contour>
      <point x="222" y="-10" type="curve" smooth="yes"/>
      <point x="261" y="-10"/>
      <point x="295" y="23"/>
      <point x="295" y="62" type="curve" smooth="yes"/>
      <point x="295" y="102"/>
      <point x="261" y="135"/>
      <point x="222" y="135" type="curve" smooth="yes"/>
      <point x="182" y="135"/>
      <point x="150" y="102"/>
      <point x="150" y="62" type="curve" smooth="yes"/>
      <point x="150" y="23"/>
      <point x="182" y="-10"/>
    </contour>
    <contour>
      <point x="240" y="198" type="line"/>
      <point x="279" y="318"/>
      <point x="452" y="370"/>
      <point x="452" y="535" type="curve" smooth="yes"/>
      <point x="452" y="694.006"/>
      <point x="325.471" y="734.955"/>
      <point x="258" y="737" type="curve"/>
      <point x="143" y="737"/>
      <point x="40" y="676"/>
      <point x="40" y="564" type="curve" smooth="yes"/>
      <point x="40" y="529"/>
      <point x="71" y="487"/>
      <point x="125" y="487" type="curve" smooth="yes"/>
      <point x="167" y="487"/>
      <point x="196" y="517"/>
      <point x="196" y="559" type="curve" smooth="yes"/>
      <point x="196" y="609"/>
      <point x="150" y="622"/>
      <point x="123" y="622" type="curve"/>
      <point x="139" y="658"/>
      <point x="191" y="682"/>
      <point x="231" y="682" type="curve" smooth="yes"/>
      <point x="282.753" y="682"/>
      <point x="347" y="659.733"/>
      <point x="347" y="550" type="curve" smooth="yes"/>
      <point x="347" y="421"/>
      <point x="208" y="375"/>
      <point x="208" y="198" type="curve"/>
    </contour>
  </outline>
</glyph>
<glyph name="at" format="1">
  <advance width="1642"/>
  <unicode hex="0040"/>
  <outline>
    <contour>
      <point x="1471" y="797" type="curve" smooth="yes"/>
      <point x="1471" y="507"/>
      <point x="1309" y="377"/>
      <point x="1233" y="377" type="curve" smooth="yes"/>
      <point x="1170" y="377"/>
      <point x="1149" y="424"/>
      <point x="1149" y="498" type="curve" smooth="yes"/>
      <point x="1149" y="543"/>
      <point x="1259" y="1126"/>
      <point x="1266" y="1163" type="curve"/>
      <point x="1106" y="1163" type="line"/>
      <point x="1098" y="1138"/>
      <point x="1071" y="1063"/>
      <point x="1071" y="1063" type="curve"/>
      <point x="1071" y="1063"/>
      <point x="925" y="1212"/>
      <point x="870" y="1212" type="curve" smooth="yes"/>
      <point x="605" y="1212"/>
      <point x="381" y="879"/>
      <point x="381" y="608" type="curve" smooth="yes"/>
      <point x="381" y="385"/>
      <point x="522" y="303"/>
      <point x="643" y="303" type="curve" smooth="yes"/>
      <point x="848" y="303"/>
      <point x="922" y="402"/>
      <point x="985" y="547" type="curve"/>
      <point x="995" y="369"/>
      <point x="1067" y="285"/>
      <point x="1208" y="285" type="curve" smooth="yes"/>
      <point x="1470" y="285"/>
      <point x="1612" y="526"/>
      <point x="1612" y="795" type="curve" smooth="yes"/>
      <point x="1612" y="1134"/>
      <point x="1385" y="1516"/>
      <point x="889" y="1516" type="curve" smooth="yes"/>
      <point x="440" y="1516"/>
      <point x="37" y="1149"/>
      <point x="37" y="686" type="curve" smooth="yes"/>
      <point x="37" y="287"/>
      <point x="316" y="-31"/>
      <point x="817" y="-31" type="curve" smooth="yes"/>
      <point x="983" y="-31"/>
      <point x="1211" y="24"/>
      <point x="1348" y="113" type="curve"/>
      <point x="1348" y="120"/>
      <point x="1302" y="175"/>
      <point x="1286" y="195" type="curve"/>
      <point x="1169" y="124"/>
      <point x="973" y="82"/>
      <point x="836" y="82" type="curve" smooth="yes"/>
      <point x="385" y="82"/>
      <point x="183" y="360"/>
      <point x="183" y="660" type="curve" smooth="yes"/>
      <point x="183" y="1015"/>
      <point x="446" y="1401"/>
      <point x="897" y="1401" type="curve" smooth="yes"/>
      <point x="1231" y="1401"/>
      <point x="1471" y="1130"/>
    </contour>
    <contour>
      <point x="557" y="631" type="curve" smooth="yes"/>
      <point x="557" y="826"/>
      <point x="704" y="1096"/>
      <point x="858" y="1096" type="curve" smooth="yes"/>
      <point x="930" y="1096"/>
      <point x="1032" y="961"/>
      <point x="1032" y="961" type="curve"/>
      <point x="1030" y="947"/>
      <point x="985" y="684"/>
      <point x="985" y="682" type="curve" smooth="yes"/>
      <point x="962" y="584"/>
      <point x="832" y="422"/>
      <point x="709" y="422" type="curve" smooth="yes"/>
      <point x="649" y="422"/>
      <point x="557" y="476"/>
    </contour>
  </outline>
</glyph>
<glyph name="A" format="1">
  <advance width="812"/>
  <unicode hex="0041"/>
  <outline>
    <contour>
      <point x="509" y="308" type="line"/>
      <point x="274" y="308" type="line"/>
      <point x="388" y="639" type="line"/>
    </contour>
    <contour>
      <point x="310" y="67" type="line"/>
      <point x="187" y="67" type="line"/>
      <point x="251" y="246" type="line"/>
      <point x="533" y="246" type="line"/>
      <point x="601" y="67" type="line"/>
      <point x="492" y="67" type="line"/>
      <point x="492" y="0" type="line"/>
      <point x="808" y="0" type="line"/>
      <point x="808" y="67" type="line"/>
      <point x="726" y="67" type="line"/>
      <point x="465" y="735" type="line"/>
      <point x="349" y="735" type="line"/>
      <point x="92" y="67" type="line"/>
      <point x="4" y="67" type="line"/>
      <point x="4" y="0" type="line"/>
      <point x="310" y="0" type="line"/>
    </contour>
    <contour>
      <point x="406" y="722" type="move" name="top"/>
    </contour>
    <contour>
      <point x="730" y="10" type="move" name="ogonek"/>
    </contour>
  </outline>
</glyph>
<glyph name="B" format="1">
  <advance width="706"/>
  <unicode hex="0042"/>
  <outline>
    <contour>
      <point x="16" y="0" type="line"/>
      <point x="16" y="67" type="line"/>
      <point x="136" y="67" type="line"/>
      <point x="136" y="665" type="line"/>
      <point x="16" y="665" type="line"/>
      <point x="16" y="735" type="line"/>
      <point x="323" y="735" type="line" smooth="yes"/>
      <point x="442" y="735"/>
      <point x="632" y="708"/>
      <point x="632" y="553" type="curve" smooth="yes"/>
      <point x="632" y="547"/>
      <point x="631" y="542"/>
      <point x="631" y="536" type="curve" smooth="yes"/>
      <point x="625" y="463"/>
      <point x="584" y="418"/>
      <point x="503" y="395" type="curve"/>
      <point x="606" y="368"/>
      <point x="671" y="305"/>
      <point x="671" y="201" type="curve" smooth="yes"/>
      <point x="671" y="10"/>
      <point x="454" y="0"/>
      <point x="325" y="0" type="curve" smooth="yes"/>
    </contour>
    <contour>
      <point x="251" y="67" type="line"/>
      <point x="434" y="67"/>
      <point x="556" y="73"/>
      <point x="556" y="205" type="curve" smooth="yes"/>
      <point x="556" y="309"/>
      <point x="456" y="356"/>
      <point x="357" y="356" type="curve" smooth="yes"/>
      <point x="251" y="356" type="line"/>
    </contour>
    <contour>
      <point x="251" y="421" type="line"/>
      <point x="357" y="421" type="line" smooth="yes"/>
      <point x="436" y="421"/>
      <point x="526" y="451"/>
      <point x="526" y="537" type="curve" smooth="yes"/>
      <point x="526" y="659"/>
      <point x="412" y="665"/>
      <point x="251" y="665" type="curve"/>
    </contour>
  </outline>
</glyph>
<glyph name="C" format="1">
  <advance width="707"/>
  <unicode hex="0043"/>
  <outline>
    <contour>
      <point x="399" y="750" type="curve" smooth="yes"/>
      <point x="184" y="750"/>
      <point x="44" y="592"/>
      <point x="41" y="375" type="curve" smooth="yes"/>
      <point x="41" y="369" type="line" smooth="yes"/>
      <point x="41" y="163"/>
      <point x="185" y="-13"/>
      <point x="388" y="-13" type="curve" smooth="yes"/>
      <point x="559" y="-13"/>
      <point x="664" y="75"/>
      <point x="698" y="223" type="curve"/>
      <point x="633" y="255" type="line"/>
      <point x="612" y="173"/>
      <point x="539" y="77"/>
      <point x="419" y="77" type="curve" smooth="yes"/>
      <point x="408" y="77" type="line" smooth="yes"/>
      <point x="258" y="84"/>
      <point x="170" y="234"/>
      <point x="170" y="373" type="curve" smooth="yes"/>
      <point x="170" y="563"/>
      <point x="268" y="680"/>
      <point x="398" y="680" type="curve" smooth="yes"/>
      <point x="486" y="680"/>
      <point x="548" y="637"/>
      <point x="577" y="594" type="curve"/>
      <point x="546" y="594"/>
      <point x="490" y="572"/>
      <point x="490" y="516" type="curve" smooth="yes"/>
      <point x="490" y="509" type="line" smooth="yes"/>
      <point x="493" y="463"/>
      <point x="527" y="435"/>
      <point x="573" y="435" type="curve" smooth="yes"/>
      <point x="635" y="435"/>
      <point x="669" y="484"/>
      <point x="669" y="524" type="curve" smooth="yes"/>
      <point x="669" y="658"/>
      <point x="532" y="750"/>
    </contour>
    <contour>
      <point x="369" y="722" type="move" name="top"/>
    </contour>
    <contour>
      <point x="369" y="0" type="move" name="bottom"/>
    </contour>
  </outline>
</glyph>
<glyph name="D" format="1">
  <advance width="778"/>
  <unicode hex="0044"/>
  <outline>
    <contour>
      <point x="20" y="652" type="line"/>
      <point x="139" y="652" type="line"/>
      <point x="139" y="67" type="line"/>
      <point x="20" y="67" type="line"/>
      <point x="20" y="0" type="line"/>
      <point x="259" y="0" type="line" smooth="yes"/>
      <point x="535" y="0"/>
      <point x="736" y="96"/>
      <point x="739" y="357" type="curve" smooth="yes"/>
      <point x="739" y="362" type="line" smooth="yes"/>
      <point x="739" y="648"/>
      <point x="490" y="722"/>
      <point x="241" y="722" type="curve" smooth="yes"/>
      <point x="20" y="722" type="line"/>
    </contour>
    <contour>
      <point x="254" y="67" type="curve"/>
      <point x="254" y="651" type="line"/>
      <point x="435" y="651"/>
      <point x="614" y="610"/>
      <point x="614" y="362" type="curve" smooth="yes"/>
      <point x="614" y="358" type="line" smooth="yes"/>
      <point x="612" y="122"/>
      <point x="448" y="67"/>
    </contour>
    <contour>
      <point x="394" y="722" type="move" name="top"/>
    </contour>
    <contour>
      <point x="394" y="361" type="move" name="center"/>
    </contour>
  </outline>
</glyph>
<glyph name="E" format="1">
  <advance width="759"/>
  <unicode hex="0045"/>
  <outline>
    <contour>
      <point x="28" y="0" type="line"/>
      <point x="28" y="67" type="line"/>
      <point x="148" y="67" type="line"/>
      <point x="148" y="652" type="line"/>
      <point x="28" y="652" type="line"/>
      <point x="28" y="722" type="line"/>
      <point x="692" y="722" type="line"/>
      <point x="692" y="439" type="line"/>
      <point x="604" y="439" type="line"/>
      <point x="604" y="652" type="line"/>
      <point x="263" y="652" type="line"/>
      <point x="263" y="397" type="line"/>
      <point x="445" y="397" type="line"/>
      <point x="445" y="507" type="line"/>
      <point x="510" y="507" type="line"/>
      <point x="510" y="207" type="line"/>
      <point x="445" y="207" type="line"/>
      <point x="445" y="341" type="line"/>
      <point x="263" y="341" type="line"/>
      <point x="263" y="67" type="line"/>
      <point x="604" y="67" type="line"/>
      <point x="604" y="279" type="line"/>
      <point x="692" y="279" type="line"/>
      <point x="692" y="0" type="line"/>
    </contour>
    <contour>
      <point x="378" y="722" type="move" name="top"/>
    </contour>
    <contour>
      <point x="378" y="0" type="move" name="bottom"/>
    </contour>
    <contour>
      <point x="689" y="10" type="move" name="ogonek"/>
    </contour>
  </outline>
</glyph>
<glyph name="F" format="1">
  <advance width="688"/>
  <unicode hex="0046"/>
  <outline>
    <contour>
      <point x="16.0" y="0.0" type="line"/>
      <point x="16.0" y="67.0" type="line"/>
      <point x="135.0" y="67.0" type="line"/>
      <point x="135.0" y="665.0" type="line"/>
      <point x="16.0" y="665.0" type="line"/>
      <point x="16.0" y="735.0" type="line"/>
      <point x="671.0" y="735.0" type="line"/>
      <point x="671.0" y="467.0" type="line"/>
      <point x="582.0" y="467.0" type="line"/>
      <point x="582.0" y="665.0" type="line"/>
      <point x="250.0" y="665.0" type="line"/>
      <point x="250.0" y="412.0" type="line"/>
      <point x="426.0" y="412.0" type="line"/>
      <point x="426.0" y="515.0" type="line"/>
      <point x="493.0" y="515.0" type="line"/>
      <point x="493.0" y="230.0" type="line"/>
      <point x="426.0" y="230.0" type="line"/>
      <point x="426.0" y="354.0" type="line"/>
      <point x="250.0" y="354.0" type="line"/>
      <point x="250.0" y="67.0" type="line"/>
      <point x="377.0" y="67.0" type="line"/>
      <point x="377.0" y="0.0" type="line"/>
    </contour>
  </outline>
</glyph>
<glyph name="G" format="1">
  <advance width="851"/>
  <unicode hex="0047"/>
  <outline>
    <contour>
      <point x="613" y="103" type="curve"/>
      <point x="637" y="0" type="line"/>
      <point x="696" y="0" type="line"/>
      <point x="696" y="278" type="line"/>
      <point x="790" y="278" type="line"/>
      <point x="790" y="352" type="line"/>
      <point x="458" y="352" type="line"/>
      <point x="458" y="278" type="line"/>
      <point x="596" y="278" type="line"/>
      <point x="596" y="218" type="line" smooth="yes"/>
      <point x="596" y="160"/>
      <point x="518" y="74"/>
      <point x="413" y="74" type="curve" smooth="yes"/>
      <point x="267" y="74"/>
      <point x="164" y="211"/>
      <point x="166" y="368" type="curve" smooth="yes"/>
      <point x="168" y="537"/>
      <point x="258" y="673"/>
      <point x="419" y="673" type="curve" smooth="yes"/>
      <point x="472" y="673"/>
      <point x="560" y="649"/>
      <point x="603" y="591" type="curve"/>
      <point x="572" y="591"/>
      <point x="516" y="565"/>
      <point x="516" y="509" type="curve" smooth="yes"/>
      <point x="516" y="502" type="line" smooth="yes"/>
      <point x="519" y="456"/>
      <point x="553" y="431"/>
      <point x="599" y="431" type="curve" smooth="yes"/>
      <point x="662" y="431"/>
      <point x="695" y="481"/>
      <point x="695" y="522" type="curve" smooth="yes"/>
      <point x="694" y="660"/>
      <point x="539" y="737"/>
      <point x="410" y="737" type="curve" smooth="yes"/>
      <point x="407" y="737" type="line" smooth="yes"/>
      <point x="172" y="735"/>
      <point x="38" y="560"/>
      <point x="38" y="363" type="curve" smooth="yes"/>
      <point x="38" y="178"/>
      <point x="150" y="-10"/>
      <point x="382" y="-13" type="curve"/>
      <point x="463" y="-12"/>
      <point x="567" y="12"/>
    </contour>
    <contour>
      <point x="426" y="722" type="move" name="top"/>
    </contour>
    <contour>
      <point x="426" y="0" type="move" name="bottom"/>
    </contour>
  </outline>
</glyph>
<glyph name="H" format="1">
  <advance width="816"/>
  <unicode hex="0048"/>
  <outline>
    <contour>
      <point x="796" y="67" type="line"/>
      <point x="796" y="0" type="line"/>
      <point x="449" y="0" type="line"/>
      <point x="449" y="67" type="line"/>
      <point x="562" y="67" type="line"/>
      <point x="562" y="341" type="line"/>
      <point x="254" y="341" type="line"/>
      <point x="254" y="67" type="line"/>
      <point x="366" y="67" type="line"/>
      <point x="366" y="0" type="line"/>
      <point x="20" y="0" type="line"/>
      <point x="20" y="67" type="line"/>
      <point x="139" y="67" type="line"/>
      <point x="139" y="652" type="line"/>
      <point x="20" y="652" type="line"/>
      <point x="20" y="722" type="line"/>
      <point x="366" y="722" type="line"/>
      <point x="366" y="652" type="line"/>
      <point x="254" y="652" type="line"/>
      <point x="254" y="403" type="line"/>
      <point x="562" y="403" type="line"/>
      <point x="562" y="652" type="line"/>
      <point x="449" y="652" type="line"/>
      <point x="449" y="722" type="line"/>
      <point x="796" y="722" type="line"/>
      <point x="796" y="652" type="line"/>
      <point x="677" y="652" type="line"/>
      <point x="677" y="67" type="line"/>
    </contour>
    <contour>
      <point x="408" y="722" type="move" name="top"/>
    </contour>
    <contour>
      <point x="408" y="361" type="move" name="center"/>
    </contour>
  </outline>
</glyph>
<glyph name="I" format="1">
  <advance width="426"/>
  <unicode hex="0049"/>
  <outline>
    <contour>
      <point x="275" y="67" type="line"/>
      <point x="387" y="67" type="line"/>
      <point x="387" y="0" type="line"/>
      <point x="41" y="0" type="line"/>
      <point x="41" y="67" type="line"/>
      <point x="160" y="67" type="line"/>
      <point x="160" y="652" type="line"/>
      <point x="41" y="652" type="line"/>
      <point x="41" y="722" type="line"/>
      <point x="387" y="722" type="line"/>
      <point x="387" y="652" type="line"/>
      <point x="275" y="652" type="line"/>
    </contour>
    <contour>
      <point x="213" y="722" type="move" name="top"/>
    </contour>
    <contour>
      <point x="383" y="10" type="move" name="ogonek"/>
    </contour>
  </outline>
</glyph>
<glyph name="J" format="1">
  <advance width="1161"/>
  <unicode hex="004A"/>
  <outline>
    <contour>
      <point x="451" y="-201" type="curve" smooth="yes"/>
      <point x="826" y="-201"/>
      <point x="911" y="45"/>
      <point x="911" y="338" type="curve" smooth="yes"/>
      <point x="911" y="1362" type="line"/>
      <point x="1149" y="1362" type="line"/>
      <point x="1149" y="1505" type="line"/>
      <point x="395" y="1505" type="line"/>
      <point x="395" y="1362" type="line"/>
      <point x="676" y="1362" type="line"/>
      <point x="676" y="311" type="line" smooth="yes"/>
      <point x="676" y="69"/>
      <point x="645" y="-88"/>
      <point x="440" y="-88" type="curve" smooth="yes"/>
      <point x="383" y="-88"/>
      <point x="287" y="-66"/>
      <point x="260" y="-27" type="curve"/>
      <point x="301" y="-2"/>
      <point x="371" y="61"/>
      <point x="371" y="141" type="curve" smooth="yes"/>
      <point x="371" y="243"/>
      <point x="287" y="301"/>
      <point x="205" y="301" type="curve" smooth="yes"/>
      <point x="119" y="301"/>
      <point x="35" y="242"/>
      <point x="35" y="123" type="curve" smooth="yes"/>
      <point x="35" y="-51"/>
      <point x="199" y="-201"/>
    </contour>
    <contour>
      <point x="581" y="1505" type="move" name="top"/>
    </contour>
  </outline>
</glyph>
<glyph name="K" format="1">
  <advance width="797"/>
  <unicode hex="004B"/>
  <outline>
    <contour>
      <point x="446" y="0" type="line"/>
      <point x="446" y="67" type="line"/>
      <point x="555" y="67" type="line"/>
      <point x="338" y="340" type="line"/>
      <point x="254" y="270" type="line"/>
      <point x="254" y="67" type="line"/>
      <point x="357" y="67" type="line"/>
      <point x="357" y="0" type="line"/>
      <point x="20" y="0" type="line"/>
      <point x="20" y="67" type="line"/>
      <point x="139" y="67" type="line"/>
      <point x="139" y="652" type="line"/>
      <point x="20" y="652" type="line"/>
      <point x="20" y="722" type="line"/>
      <point x="357" y="722" type="line"/>
      <point x="357" y="652" type="line"/>
      <point x="254" y="652" type="line"/>
      <point x="254" y="359" type="line"/>
      <point x="261" y="361"/>
      <point x="298" y="395"/>
      <point x="303" y="399" type="curve" smooth="yes"/>
      <point x="334" y="429"/>
      <point x="550" y="652"/>
      <point x="550" y="652" type="curve"/>
      <point x="438" y="652" type="line"/>
      <point x="438" y="722" type="line"/>
      <point x="785" y="722" type="line"/>
      <point x="785" y="652" type="line"/>
      <point x="673" y="652" type="line"/>
      <point x="425" y="403" type="line"/>
      <point x="705" y="67" type="line"/>
      <point x="791" y="67" type="line"/>
      <point x="791" y="0" type="line"/>
    </contour>
    <contour>
      <point x="394" y="722" type="move" name="top"/>
    </contour>
    <contour>
      <point x="394" y="0" type="move" name="bottom"/>
    </contour>
  </outline>
</glyph>
<glyph name="L" format="1">
  <advance width="662"/>
  <unicode hex="004C"/>
  <outline>
    <contour>
      <point x="28" y="0"/>
      <point x="629" y="0"/>
      <point x="629" y="0" type="curve"/>
      <point x="629" y="305" type="line"/>
      <point x="538" y="305" type="line"/>
      <point x="538" y="67" type="line" smooth="yes"/>
      <point x="538" y="67"/>
      <point x="262" y="67"/>
      <point x="262" y="67" type="curve"/>
      <point x="262" y="652" type="line"/>
      <point x="374" y="652" type="line"/>
      <point x="374" y="722" type="line"/>
      <point x="28" y="722" type="line"/>
      <point x="28" y="652" type="line"/>
      <point x="147" y="652" type="line"/>
      <point x="147" y="67" type="line"/>
      <point x="28" y="67" type="line"/>
      <point x="28" y="0" type="line"/>
    </contour>
    <contour>
      <point x="335" y="722" type="move" name="top"/>
    </contour>
    <contour>
      <point x="335" y="0" type="move" name="bottom"/>
    </contour>
  </outline>
</glyph>
<glyph name="M" format="1">
  <advance width="1937"/>
  <unicode hex="004D"/>
  <outline>
    <contour>
      <point x="51" y="0" type="line"/>
      <point x="51" y="137" type="line"/>
      <point x="270" y="137" type="line"/>
      <point x="270" y="1362" type="line"/>
      <point x="33" y="1362" type="line"/>
      <point x="33" y="1505" type="line"/>
      <point x="639" y="1505" type="line"/>
      <point x="995" y="557" type="line"/>
      <point x="1327" y="1505" type="line"/>
      <point x="1890" y="1505" type="line"/>
      <point x="1890" y="1362" type="line"/>
      <point x="1657" y="1362" type="line"/>
      <point x="1657" y="137" type="line"/>
      <point x="1905" y="137" type="line"/>
      <point x="1905" y="0" type="line"/>
      <point x="1212" y="0" type="line"/>
      <point x="1212" y="137" type="line"/>
      <point x="1432" y="137" type="line"/>
      <point x="1432" y="1329" type="line"/>
      <point x="1042" y="258" type="line" smooth="yes"/>
      <point x="1022" y="205"/>
      <point x="996" y="182"/>
      <point x="969" y="182" type="curve" smooth="yes"/>
      <point x="938" y="182"/>
      <point x="907" y="213"/>
      <point x="891" y="252" type="curve" smooth="yes"/>
      <point x="453" y="1360" type="line"/>
      <point x="453" y="137" type="line"/>
      <point x="705" y="137" type="line"/>
      <point x="705" y="0" type="line"/>
    </contour>
  </outline>
</glyph>
<glyph name="N" format="1">
  <advance width="855"/>
  <unicode hex="004e"/>
  <outline>
    <contour>
      <point x="357" y="67" type="line" smooth="no"/>
      <point x="245" y="67" type="line" smooth="no"/>
      <point x="245" y="618" type="line" smooth="no"/>
      <point x="608" y="0" type="line" smooth="no"/>
      <point x="738" y="0" type="line" smooth="no"/>
      <point x="738" y="652" type="line" smooth="no"/>
      <point x="850" y="652" type="line" smooth="no"/>
      <point x="850" y="722" type="line" smooth="no"/>
      <point x="526" y="722" type="line" smooth="no"/>
      <point x="526" y="652" type="line" smooth="no"/>
      <point x="645" y="652" type="line" smooth="no"/>
      <point x="645" y="130" type="line" smooth="no"/>
      <point x="298" y="722" type="line" smooth="no"/>
      <point x="34" y="722" type="line" smooth="no"/>
      <point x="34" y="652" type="line" smooth="no"/>
      <point x="152" y="652" type="line" smooth="no"/>
      <point x="152" y="67" type="line" smooth="no"/>
      <point x="34" y="67" type="line" smooth="no"/>
      <point x="34" y="0" type="line" smooth="no"/>
      <point x="357" y="0" type="line" smooth="no"/>
    </contour>
  </outline>
</glyph>
<glyph name="O" format="1">
  <advance width="776"/>
  <unicode hex="004F"/>
  <outline>
    <contour>
      <point x="166" y="363" type="curve" smooth="yes"/>
      <point x="166" y="205"/>
      <point x="244" y="55"/>
      <point x="388" y="55" type="curve" smooth="yes"/>
      <point x="532" y="55"/>
      <point x="610" y="204"/>
      <point x="610" y="361" type="curve" smooth="yes"/>
      <point x="610" y="517"/>
      <point x="532" y="667"/>
      <point x="388" y="670" type="curve"/>
      <point x="244" y="670"/>
      <point x="166" y="520"/>
    </contour>
    <contour>
      <point x="41" y="362" type="curve" smooth="yes"/>
      <point x="41" y="549"/>
      <point x="154" y="737"/>
      <point x="388" y="737" type="curve" smooth="yes"/>
      <point x="621" y="737"/>
      <point x="735" y="549"/>
      <point x="735" y="362" type="curve" smooth="yes"/>
      <point x="735" y="174"/>
      <point x="621" y="-13"/>
      <point x="388" y="-13" type="curve" smooth="yes"/>
      <point x="154" y="-13"/>
      <point x="41" y="174"/>
    </contour>
    <contour>
      <point x="388" y="722" type="move" name="top"/>
    </contour>
  </outline>
</glyph>
<glyph name="P" format="1">
  <advance width="653"/>
  <unicode hex="0050"/>
  <outline>
    <contour>
      <point x="20" y="722" type="line"/>
      <point x="320" y="722" type="line" smooth="yes"/>
      <point x="437" y="722"/>
      <point x="646" y="714"/>
      <point x="646" y="523" type="curve" smooth="yes"/>
      <point x="646" y="331"/>
      <point x="460" y="317"/>
      <point x="293" y="317" type="curve" smooth="yes"/>
      <point x="254" y="317" type="line"/>
      <point x="254" y="67" type="line"/>
      <point x="376" y="67" type="line"/>
      <point x="376" y="0" type="line"/>
      <point x="20" y="0" type="line"/>
      <point x="20" y="67" type="line"/>
      <point x="139" y="67" type="line"/>
      <point x="139" y="652" type="line"/>
      <point x="20" y="652" type="line"/>
    </contour>
    <contour>
      <point x="287" y="652" type="curve"/>
      <point x="254" y="652" type="line"/>
      <point x="254" y="380" type="line"/>
      <point x="322" y="380" type="line" smooth="yes"/>
      <point x="426" y="380"/>
      <point x="528" y="406"/>
      <point x="528" y="519" type="curve" smooth="yes"/>
      <point x="528" y="652"/>
      <point x="418" y="651"/>
    </contour>
  </outline>
</glyph>
<glyph name="Q" format="1">
  <advance width="790"/>
  <unicode hex="0051"/>
  <outline>
    <contour>
      <point x="757.0" y="-108.0"/>
      <point x="816.0" y="-71.0"/>
      <point x="816.0" y="112.0" type="curve" smooth="yes"/>
      <point x="816.0" y="123.0" type="line"/>
      <point x="757.0" y="123.0" type="line"/>
      <point x="757.0" y="112.0" type="line" smooth="yes"/>
      <point x="757.0" y="42.0"/>
      <point x="729.0" y="-10.0"/>
      <point x="690.0" y="-14.0" type="curve" smooth="yes"/>
      <point x="689.0" y="-14.0"/>
      <point x="687.0" y="-14.0"/>
      <point x="686.0" y="-14.0" type="curve" smooth="yes"/>
      <point x="657.0" y="-14.0"/>
      <point x="632.0" y="18.0"/>
      <point x="604.0" y="59.0" type="curve"/>
      <point x="692.0" y="131.0"/>
      <point x="735" y="252"/>
      <point x="735" y="368" type="curve" smooth="yes"/>
      <point x="735" y="555"/>
      <point x="621" y="750"/>
      <point x="388" y="750" type="curve" smooth="yes"/>
      <point x="154" y="750"/>
      <point x="41" y="555"/>
      <point x="41" y="368" type="curve" smooth="yes"/>
      <point x="41" y="180"/>
      <point x="154.0" y="-13.0"/>
      <point x="388.0" y="-13.0" type="curve" smooth="yes"/>
      <point x="434.0" y="-13.0"/>
      <point x="475.0" y="-6.0"/>
      <point x="512.0" y="7.0" type="curve"/>
      <point x="551.0" y="-54.0"/>
      <point x="596.0" y="-108.0"/>
      <point x="663.0" y="-108.0" type="curve" smooth="yes"/>
    </contour>
    <contour>
      <point x="367" y="245" type="line" smooth="yes"/>
      <point x="353.0" y="245.0" type="line"/>
      <point x="271.0" y="240.0"/>
      <point x="233.0" y="180.0"/>
      <point x="220.0" y="154.0" type="curve"/>
      <point x="185.0" y="211.0"/>
      <point x="166" y="292"/>
      <point x="166" y="369" type="curve" smooth="yes"/>
      <point x="166" y="526"/>
      <point x="244" y="683"/>
      <point x="388" y="683" type="curve" smooth="yes"/>
      <point x="532" y="680"/>
      <point x="610" y="523"/>
      <point x="610" y="367" type="curve" smooth="yes"/>
      <point x="610" y="285"/>
      <point x="589.0" y="198.0"/>
      <point x="547.0" y="141.0" type="curve"/>
      <point x="505.0" y="195.0"/>
      <point x="452.0" y="242.0"/>
      <point x="374.0" y="245.0" type="curve"/>
    </contour>
    <contour>
      <point x="447.0" y="62.0"/>
      <point x="419.0" y="55.0"/>
      <point x="388.0" y="55.0" type="curve" smooth="yes"/>
      <point x="335.0" y="55.0"/>
      <point x="291.0" y="75.0"/>
      <point x="257.0" y="109.0" type="curve"/>
      <point x="270.0" y="133.0"/>
      <point x="302.0" y="183.0"/>
      <point x="348.0" y="183.0" type="curve" smooth="yes"/>
      <point x="399.0" y="183.0"/>
      <point x="436.0" y="133.0"/>
      <point x="471.0" y="74.0" type="curve"/>
    </contour>
  </outline>
</glyph>
<glyph name="R" format="1">
  <advance width="776"/>
  <unicode hex="0052"/>
  <outline>
    <contour>
      <point x="630" y="-16" type="curve" smooth="yes"/>
      <point x="700" y="-16"/>
      <point x="776" y="12"/>
      <point x="776" y="158" type="curve" smooth="yes"/>
      <point x="776" y="230" type="line"/>
      <point x="710" y="230" type="line"/>
      <point x="710" y="167" type="line" smooth="yes"/>
      <point x="710" y="95"/>
      <point x="688" y="69"/>
      <point x="653" y="69" type="curve" smooth="yes"/>
      <point x="548" y="69"/>
      <point x="651" y="308"/>
      <point x="468" y="347" type="curve"/>
      <point x="569" y="368"/>
      <point x="648" y="409"/>
      <point x="650" y="524" type="curve" smooth="yes"/>
      <point x="650" y="528" type="line" smooth="yes"/>
      <point x="650" y="720"/>
      <point x="446" y="722"/>
      <point x="301" y="722" type="curve" smooth="yes"/>
      <point x="20" y="722" type="line"/>
      <point x="20" y="652" type="line"/>
      <point x="139" y="652" type="line"/>
      <point x="139" y="67" type="line"/>
      <point x="20" y="67" type="line"/>
      <point x="20" y="0" type="line"/>
      <point x="365" y="0" type="line"/>
      <point x="365" y="67" type="line"/>
      <point x="254" y="67" type="line"/>
      <point x="254" y="322" type="line"/>
      <point x="283" y="322" type="line"/>
      <point x="307" y="323"/>
      <point x="346" y="321"/>
      <point x="369" y="322" type="curve"/>
      <point x="359" y="320" type="line"/>
      <point x="359" y="320"/>
      <point x="362" y="321"/>
      <point x="367" y="321" type="curve" smooth="yes"/>
      <point x="382" y="321"/>
      <point x="451" y="305"/>
      <point x="469" y="202" type="curve" smooth="yes"/>
      <point x="494" y="58"/>
      <point x="525" y="-16"/>
    </contour>
    <contour>
      <point x="254" y="395" type="line"/>
      <point x="254" y="652" type="line"/>
      <point x="311" y="652" type="line" smooth="yes"/>
      <point x="468" y="652"/>
      <point x="544" y="625"/>
      <point x="547" y="524" type="curve" smooth="yes"/>
      <point x="547" y="519" type="line" smooth="yes"/>
      <point x="547" y="425"/>
      <point x="461" y="395"/>
      <point x="315" y="395" type="curve" smooth="yes"/>
    </contour>
    <contour>
      <point x="392" y="722" type="move" name="top"/>
    </contour>
    <contour>
      <point x="392" y="0" type="move" name="bottom"/>
    </contour>
  </outline>
</glyph>
<glyph name="S" format="1">
  <advance width="681.013607947"/>
  <unicode hex="0053"/>
  <outline>
    <contour>
      <point x="542" y="-13"/>
      <point x="641" y="62"/>
      <point x="642" y="194" type="curve" smooth="yes"/>
      <point x="643" y="282"/>
      <point x="589" y="362"/>
      <point x="442" y="399" type="curve" smooth="yes"/>
      <point x="257" y="446" type="line" smooth="yes"/>
      <point x="200" y="462"/>
      <point x="171" y="501"/>
      <point x="171" y="547" type="curve" smooth="yes"/>
      <point x="171" y="622"/>
      <point x="233" y="664"/>
      <point x="359" y="664" type="curve" smooth="yes"/>
      <point x="420" y="664"/>
      <point x="485" y="639"/>
      <point x="508" y="615" type="curve"/>
      <point x="477" y="615"/>
      <point x="435" y="595"/>
      <point x="435" y="539" type="curve" smooth="yes"/>
      <point x="435" y="491"/>
      <point x="470" y="460"/>
      <point x="518" y="460" type="curve" smooth="yes"/>
      <point x="581" y="460"/>
      <point x="607" y="507"/>
      <point x="608" y="548" type="curve" smooth="yes"/>
      <point x="610" y="691"/>
      <point x="445" y="737"/>
      <point x="335" y="737" type="curve" smooth="yes"/>
      <point x="172" y="737"/>
      <point x="54" y="654"/>
      <point x="54" y="531" type="curve" smooth="yes"/>
      <point x="54" y="432"/>
      <point x="103" y="371"/>
      <point x="220" y="337" type="curve" smooth="yes"/>
      <point x="427" y="281" type="line" smooth="yes"/>
      <point x="500" y="261"/>
      <point x="517" y="211"/>
      <point x="517" y="178" type="curve" smooth="yes"/>
      <point x="517" y="178"/>
      <point x="517" y="177"/>
      <point x="517" y="177" type="curve" smooth="yes"/>
      <point x="517" y="98"/>
      <point x="460" y="61"/>
      <point x="350" y="60" type="curve" smooth="yes"/>
      <point x="264" y="59"/>
      <point x="182" y="80"/>
      <point x="153" y="115" type="curve"/>
      <point x="184" y="115"/>
      <point x="221" y="141"/>
      <point x="221" y="197" type="curve" smooth="yes"/>
      <point x="221" y="245"/>
      <point x="190" y="275"/>
      <point x="142" y="275" type="curve" smooth="yes"/>
      <point x="79" y="275"/>
      <point x="46" y="230"/>
      <point x="46" y="189" type="curve" smooth="yes"/>
      <point x="46" y="44"/>
      <point x="195" y="-13"/>
      <point x="352" y="-13" type="curve" smooth="yes"/>
    </contour>
    <contour>
      <point x="344" y="722" type="move" name="top"/>
    </contour>
    <contour>
      <point x="344" y="0" type="move" name="bottom"/>
    </contour>
  </outline>
</glyph>
<glyph name="T" format="1">
  <advance width="697"/>
  <unicode hex="0054"/>
  <outline>
    <contour>
      <point x="525" y="70" type="line"/>
      <point x="408" y="70" type="line"/>
      <point x="408" y="655" type="line"/>
      <point x="591" y="655" type="line"/>
      <point x="591" y="425" type="line"/>
      <point x="682" y="425" type="line"/>
      <point x="682" y="722" type="line"/>
      <point x="15" y="722" type="line"/>
      <point x="15" y="425" type="line"/>
      <point x="106" y="425" type="line"/>
      <point x="106" y="655" type="line"/>
      <point x="106" y="656"/>
      <point x="293" y="655"/>
      <point x="293" y="655" type="curve"/>
      <point x="293" y="70" type="line"/>
      <point x="179" y="70" type="line"/>
      <point x="179" y="0" type="line"/>
      <point x="525" y="0" type="line"/>
    </contour>
    <contour>
      <point x="349" y="722" type="move" name="top"/>
    </contour>
    <contour>
      <point x="349" y="0" type="move" name="bottom"/>
    </contour>
    <contour>
      <point x="349" y="361" type="move" name="center"/>
    </contour>
  </outline>
</glyph>
<glyph name="U" format="1">
  <advance width="783"/>
  <unicode hex="0055"/>
  <outline>
    <contour>
      <point x="390" y="-13" type="curve" smooth="yes"/>
      <point x="611" y="-13"/>
      <point x="671" y="108"/>
      <point x="671" y="267" type="curve" smooth="yes"/>
      <point x="671" y="665" type="line"/>
      <point x="773" y="665" type="line"/>
      <point x="773" y="735" type="line"/>
      <point x="461" y="735" type="line"/>
      <point x="461" y="665" type="line"/>
      <point x="572" y="665" type="line"/>
      <point x="572" y="248" type="line" smooth="yes"/>
      <point x="572" y="122"/>
      <point x="511" y="61"/>
      <point x="401" y="61" type="curve" smooth="yes"/>
      <point x="282" y="61"/>
      <point x="230" y="128"/>
      <point x="230" y="245" type="curve" smooth="yes"/>
      <point x="230" y="665" type="line"/>
      <point x="338" y="665" type="line"/>
      <point x="338" y="735" type="line"/>
      <point x="10" y="735" type="line"/>
      <point x="10" y="665" type="line"/>
      <point x="115" y="665" type="line"/>
      <point x="115" y="252" type="line" smooth="yes"/>
      <point x="115" y="100"/>
      <point x="191" y="-13"/>
    </contour>
    <contour>
      <point x="387" y="722" type="move" name="top"/>
    </contour>
    <contour>
      <point x="724" y="10" type="move" name="ogonek"/>
    </contour>
  </outline>
</glyph>
<glyph name="V" format="1">
  <advance width="801"/>
  <unicode hex="0056"/>
  <outline>
    <contour>
      <point x="330" y="52" type="line" smooth="yes"/>
      <point x="348" y="4"/>
      <point x="366" y="-17"/>
      <point x="401" y="-17" type="curve" smooth="yes"/>
      <point x="438" y="-17"/>
      <point x="452" y="6"/>
      <point x="468" y="52" type="curve" smooth="yes"/>
      <point x="678" y="652" type="line"/>
      <point x="797" y="652" type="line"/>
      <point x="797" y="722" type="line"/>
      <point x="466" y="722" type="line"/>
      <point x="466" y="652" type="line"/>
      <point x="595" y="652" type="line"/>
      <point x="423" y="143" type="line"/>
      <point x="251" y="652" type="line"/>
      <point x="354" y="652" type="line"/>
      <point x="354" y="722" type="line"/>
      <point x="4" y="722" type="line"/>
      <point x="4" y="652" type="line"/>
      <point x="116" y="652" type="line"/>
    </contour>
  </outline>
</glyph>
<glyph name="W" format="1">
  <advance width="1207"/>
  <unicode hex="0057"/>
  <outline>
    <contour>
      <point x="791" y="-16" type="curve" smooth="yes"/>
      <point x="824" y="-16"/>
      <point x="862" y="7"/>
      <point x="878" y="52" type="curve" smooth="yes"/>
      <point x="1080" y="632" type="line"/>
      <point x="1192" y="632" type="line"/>
      <point x="1192" y="722" type="line"/>
      <point x="850" y="722" type="line"/>
      <point x="850" y="632" type="line"/>
      <point x="969" y="632" type="line"/>
      <point x="820" y="160" type="line"/>
      <point x="675" y="632" type="line"/>
      <point x="777" y="632" type="line"/>
      <point x="777" y="722" type="line"/>
      <point x="440" y="722" type="line"/>
      <point x="440" y="632" type="line"/>
      <point x="544" y="632" type="line"/>
      <point x="412" y="160" type="line"/>
      <point x="270" y="632" type="line"/>
      <point x="358" y="632" type="line"/>
      <point x="358" y="722" type="line"/>
      <point x="15" y="722" type="line"/>
      <point x="15" y="632" type="line"/>
      <point x="107" y="632" type="line"/>
      <point x="302" y="52" type="line"/>
      <point x="319" y="6"/>
      <point x="351" y="-16"/>
      <point x="383" y="-16" type="curve" smooth="yes"/>
      <point x="416" y="-16"/>
      <point x="457" y="7"/>
      <point x="471" y="52" type="curve" smooth="yes"/>
      <point x="587" y="429" type="line"/>
      <point x="706" y="52" type="line" smooth="yes"/>
      <point x="721" y="6"/>
      <point x="759" y="-16"/>
    </contour>
    <contour>
      <point x="604" y="722" type="move" name="top"/>
    </contour>
  </outline>
</glyph>
<glyph name="X" format="1">
  <advance width="1699"/>
  <unicode hex="0058"/>
  <outline>
    <contour>
      <point x="1464" y="137" type="line"/>
      <point x="1683" y="137" type="line"/>
      <point x="1683" y="0" type="line"/>
      <point x="969" y="0" type="line"/>
      <point x="969" y="137" type="line"/>
      <point x="1190" y="137" type="line"/>
      <point x="833.648" y="609.436" type="line"/>
      <point x="453" y="137" type="line"/>
      <point x="664" y="137" type="line"/>
      <point x="664" y="0" type="line"/>
      <point x="16" y="0" type="line"/>
      <point x="16" y="137" type="line"/>
      <point x="217" y="137" type="line"/>
      <point x="720.521" y="759.415" type="line"/>
      <point x="266" y="1362" type="line"/>
      <point x="23" y="1362" type="line"/>
      <point x="23" y="1505" type="line"/>
      <point x="770" y="1505" type="line"/>
      <point x="770" y="1362" type="line"/>
      <point x="541" y="1362" type="line"/>
      <point x="862.652" y="935.106" type="line"/>
      <point x="1208" y="1362" type="line"/>
      <point x="961" y="1362" type="line"/>
      <point x="961" y="1505" type="line"/>
      <point x="1669" y="1505" type="line"/>
      <point x="1669" y="1362" type="line"/>
      <point x="1440" y="1362" type="line"/>
      <point x="975.438" y="785.416" type="line"/>
    </contour>
  </outline>
</glyph>
<glyph name="Y" format="1">
  <advance width="772"/>
  <unicode hex="0059"/>
  <outline>
    <contour>
      <point x="448" y="67" type="line"/>
      <point x="448" y="295" type="line"/>
      <point x="333" y="292" type="line"/>
      <point x="333" y="67" type="line"/>
      <point x="214" y="67" type="line"/>
      <point x="214" y="0" type="line"/>
      <point x="560" y="0" type="line"/>
      <point x="560" y="67" type="line"/>
    </contour>
    <contour>
      <point x="442" y="265" type="curve"/>
      <point x="667" y="652" type="line"/>
      <point x="769" y="652" type="line"/>
      <point x="769" y="722" type="line"/>
      <point x="463" y="722" type="line"/>
      <point x="463" y="652" type="line"/>
      <point x="572" y="652" type="line"/>
      <point x="402" y="349" type="line"/>
      <point x="237" y="652" type="line"/>
      <point x="349" y="652" type="line"/>
      <point x="349" y="722" type="line"/>
      <point x="3" y="722" type="line"/>
      <point x="3" y="652" type="line"/>
      <point x="122" y="652" type="line"/>
      <point x="346" y="254" type="line"/>
      <point x="346" y="254"/>
      <point x="442" y="265"/>
    </contour>
    <contour>
      <point x="420.0" y="722.0" type="move" name="top"/>
    </contour>
    <contour>
      <point x="560.0" y="10.0" type="move" name="ogonek"/>
    </contour>
    <contour>
      <point x="390.0" y="722.0" type="move" name="top"/>
    </contour>
    <contour>
      <point x="560.0" y="10.0" type="move" name="ogonek"/>
    </contour>
    <contour>
      <point x="390.0" y="722.0" type="move" name="top"/>
    </contour>
    <contour>
      <point x="420" y="722" type="move" name="top"/>
    </contour>
  </outline>
</glyph>
<glyph name="Z" format="1">
  <advance width="756"/>
  <unicode hex="005A"/>
  <outline>
    <contour>
      <point x="659.0" y="0.0" type="line"/>
      <point x="659.0" y="288.0" type="line"/>
      <point x="568.0" y="288.0" type="line"/>
      <point x="568.0" y="67.0" type="line" smooth="yes"/>
      <point x="214.0" y="67.0" type="line"/>
      <point x="638.0" y="645.0" type="line"/>
      <point x="638.0" y="722.0" type="line"/>
      <point x="98.0" y="722.0" type="line"/>
      <point x="98.0" y="434.0" type="line"/>
      <point x="189.0" y="434.0" type="line"/>
      <point x="189.0" y="655.0" type="line" smooth="yes"/>
      <point x="523.0" y="655.0" type="line"/>
      <point x="99.0" y="67.0" type="line"/>
      <point x="98.0" y="67.0" type="line"/>
      <point x="98.0" y="0.0" type="line"/>
    </contour>
  </outline>
</glyph>
<glyph name="bracketleft" format="1">
  <advance width="695"/>
  <unicode hex="005B"/>
  <outline>
    <contour>
      <point x="523" y="-120" type="curve" smooth="yes"/>
      <point x="524" y="-53" type="line"/>
      <point x="275" y="-53" type="line"/>
      <point x="275" y="715" type="line"/>
      <point x="524" y="715" type="line"/>
      <point x="523" y="782" type="line" smooth="yes"/>
      <point x="523" y="783"/>
      <point x="41" y="782"/>
      <point x="41" y="782" type="curve"/>
      <point x="41" y="715" type="line"/>
      <point x="160" y="715" type="line"/>
      <point x="160" y="-53" type="line"/>
      <point x="41" y="-53" type="line"/>
      <point x="41" y="-120" type="line"/>
      <point x="41" y="-120"/>
      <point x="523" y="-121"/>
    </contour>
  </outline>
</glyph>
<glyph name="backslash" format="1">
  <advance width="582"/>
  <unicode hex="005C"/>
  <outline>
    <contour>
      <point x="433.0" y="780.0" type="line"/>
      <point x="491.0" y="762.0" type="line"/>
      <point x="211.0" y="-83.0" type="line"/>
      <point x="153.0" y="-65.0" type="line"/>
    </contour>
    <contour>
      <point x="53.0" y="453.0" type="move" name="top"/>
    </contour>
  </outline>
</glyph>
<glyph name="bracketright" format="1">
  <advance width="1423"/>
  <unicode hex="005D"/>
  <outline>
    <contour>
      <point x="328" y="1602" type="curve" smooth="yes"/>
      <point x="328" y="1464" type="line"/>
      <point x="838" y="1464" type="line"/>
      <point x="838" y="-109" type="line"/>
      <point x="328" y="-109" type="line"/>
      <point x="328" y="-246" type="line" smooth="yes"/>
      <point x="328" y="-248"/>
      <point x="1073" y="-246"/>
      <point x="1073" y="-246" type="curve"/>
      <point x="1073" y="1602" type="line"/>
      <point x="1073" y="1602"/>
      <point x="328" y="1604"/>
    </contour>
  </outline>
</glyph>
<glyph name="asciicircum" format="1">
  <advance width="450"/>
  <unicode hex="005E"/>
  <outline>
    <contour>
      <point x="199" y="545" type="line"/>
      <point x="26" y="154" type="line"/>
      <point x="107" y="154" type="line"/>
      <point x="243" y="476" type="line"/>
      <point x="371" y="154" type="line"/>
      <point x="454" y="154" type="line"/>
      <point x="295" y="545" type="line"/>
    </contour>
  </outline>
</glyph>
<glyph name="underscore" format="1">
  <advance width="739"/>
  <unicode hex="005F"/>
  <outline>
    <contour>
      <point x="748" y="-127" type="line"/>
      <point x="748" y="10" type="line"/>
      <point x="-8" y="10" type="line"/>
      <point x="-8" y="-127" type="line"/>
    </contour>
  </outline>
</glyph>
<glyph name="grave" format="1">
  <advance width="1269"/>
  <unicode hex="0060"/>
  <outline>
    <contour>
      <point x="395" y="1458" type="line"/>
      <point x="495" y="1356"/>
      <point x="942" y="1194"/>
      <point x="942" y="1194" type="curve"/>
      <point x="971" y="1233" type="line"/>
      <point x="789" y="1389"/>
      <point x="496" y="1597"/>
      <point x="496" y="1597" type="curve"/>
    </contour>
    <contour>
      <point x="683" y="1073" type="move" name="_top"/>
    </contour>
  </outline>
</glyph>
<glyph name="a" format="1">
  <advance width="619"/>
  <unicode hex="0061"/>
  <outline>
    <contour>
      <point x="563" y="-13"/>
      <point x="623" y="18"/>
      <point x="623" y="153" type="curve" smooth="yes"/>
      <point x="623" y="216" type="line"/>
      <point x="570" y="216" type="line"/>
      <point x="570" y="143" type="line" smooth="yes"/>
      <point x="570" y="91"/>
      <point x="555" y="56"/>
      <point x="508" y="56" type="curve" smooth="yes"/>
      <point x="463" y="56"/>
      <point x="450" y="105"/>
      <point x="450" y="138" type="curve" smooth="yes"/>
      <point x="450" y="363" type="line" smooth="yes"/>
      <point x="450" y="495"/>
      <point x="364" y="538"/>
      <point x="262" y="538" type="curve" smooth="yes"/>
      <point x="121" y="538"/>
      <point x="55" y="450"/>
      <point x="55" y="399" type="curve" smooth="yes"/>
      <point x="55" y="344"/>
      <point x="93" y="320"/>
      <point x="127" y="320" type="curve" smooth="yes"/>
      <point x="163" y="320"/>
      <point x="195" y="347"/>
      <point x="195" y="389" type="curve" smooth="yes"/>
      <point x="195" y="418"/>
      <point x="171" y="446"/>
      <point x="127" y="446" type="curve"/>
      <point x="150" y="472"/>
      <point x="196" y="487"/>
      <point x="241" y="487" type="curve" smooth="yes"/>
      <point x="305" y="487"/>
      <point x="345" y="453"/>
      <point x="345" y="377" type="curve" smooth="yes"/>
      <point x="345" y="252"/>
      <point x="38" y="271"/>
      <point x="38" y="107" type="curve" smooth="yes"/>
      <point x="38" y="30"/>
      <point x="96" y="-14"/>
      <point x="174" y="-14" type="curve" smooth="yes"/>
      <point x="252" y="-13"/>
      <point x="325" y="38"/>
      <point x="353" y="109" type="curve"/>
      <point x="361" y="25"/>
      <point x="424" y="-14"/>
      <point x="487" y="-14" type="curve" smooth="yes"/>
      <point x="487" y="-14"/>
      <point x="488" y="-14"/>
      <point x="489" y="-14" type="curve" smooth="yes"/>
    </contour>
    <contour>
      <point x="160" y="57"/>
      <point x="142" y="81"/>
      <point x="142" y="112" type="curve" smooth="yes"/>
      <point x="142" y="197"/>
      <point x="248" y="189"/>
      <point x="345" y="285" type="curve"/>
      <point x="345" y="181" type="line" smooth="yes"/>
      <point x="345" y="126"/>
      <point x="265" y="57"/>
      <point x="199" y="57" type="curve" smooth="yes"/>
    </contour>
    <contour>
      <point x="312" y="524" type="move" name="top"/>
    </contour>
    <contour>
      <point x="570" y="10" type="move" name="ogonek"/>
    </contour>
  </outline>
</glyph>
<glyph name="b" format="1">
  <advance width="585"/>
  <unicode hex="0062"/>
  <outline>
    <contour>
      <point x="323" y="-13" type="curve" smooth="yes"/>
      <point x="453" y="-13"/>
      <point x="543" y="106"/>
      <point x="543" y="262" type="curve" smooth="yes"/>
      <point x="543" y="421.914"/>
      <point x="455.723" y="538"/>
      <point x="318" y="538" type="curve" smooth="no"/>
      <point x="260" y="534"/>
      <point x="206" y="509"/>
      <point x="173" y="460" type="curve" smooth="no"/>
      <point x="173" y="750" type="line" smooth="no"/>
      <point x="-33" y="750" type="line" smooth="no"/>
      <point x="-33" y="690" type="line" smooth="no"/>
      <point x="68" y="690" type="line" smooth="no"/>
      <point x="68" y="0" type="line" smooth="no"/>
      <point x="113" y="0" type="line" smooth="no"/>
      <point x="151" y="97" type="line" smooth="no"/>
      <point x="185" y="17"/>
      <point x="258" y="-13"/>
    </contour>
    <contour>
      <point x="303" y="483" type="curve" smooth="yes"/>
      <point x="397" y="483"/>
      <point x="431" y="363"/>
      <point x="431" y="256" type="curve" smooth="yes"/>
      <point x="431" y="152"/>
      <point x="387" y="46"/>
      <point x="303" y="46" type="curve" smooth="yes"/>
      <point x="222" y="46"/>
      <point x="173" y="153"/>
      <point x="173" y="285" type="curve" smooth="yes"/>
      <point x="173" y="366"/>
      <point x="212" y="483"/>
    </contour>
  </outline>
</glyph>
<glyph name="c" format="1">
  <advance width="1118"/>
  <unicode hex="0063"/>
  <outline>
    <contour>
      <point x="74" y="516" type="curve" smooth="yes"/>
      <point x="74" y="182"/>
      <point x="305" y="-31"/>
      <point x="592" y="-31" type="curve" smooth="yes"/>
      <point x="848" y="-31"/>
      <point x="1014" y="121"/>
      <point x="1063" y="334" type="curve"/>
      <point x="950" y="371" type="line"/>
      <point x="925" y="292"/>
      <point x="809" y="135"/>
      <point x="637" y="135" type="curve" smooth="yes"/>
      <point x="426" y="135"/>
      <point x="301" y="293"/>
      <point x="301" y="549" type="curve" smooth="yes"/>
      <point x="301" y="762"/>
      <point x="410" y="989"/>
      <point x="651" y="989" type="curve" smooth="yes"/>
      <point x="760" y="989"/>
      <point x="842" y="934"/>
      <point x="883" y="868" type="curve"/>
      <point x="809" y="868"/>
      <point x="731" y="825"/>
      <point x="729" y="735" type="curve" smooth="yes"/>
      <point x="727" y="645"/>
      <point x="799" y="590"/>
      <point x="883" y="590" type="curve" smooth="yes"/>
      <point x="990" y="590"/>
      <point x="1040" y="683"/>
      <point x="1040" y="752" type="curve"/>
      <point x="1030" y="994"/>
      <point x="804" y="1106"/>
      <point x="616" y="1106" type="curve" smooth="yes"/>
      <point x="258" y="1106"/>
      <point x="74" y="821"/>
    </contour>
    <contour>
      <point x="559" y="1073" type="move" name="top"/>
    </contour>
    <contour>
      <point x="559" y="0" type="move" name="bottom"/>
    </contour>
  </outline>
</glyph>
<glyph name="d" format="1">
  <advance width="604"/>
  <unicode hex="0064"/>
  <outline>
    <contour>
      <point x="370" y="483"/>
      <point x="410" y="373"/>
      <point x="412" y="278" type="curve" smooth="yes"/>
      <point x="412" y="275"/>
      <point x="412" y="272"/>
      <point x="412" y="268" type="curve" smooth="yes"/>
      <point x="412" y="141"/>
      <point x="354" y="49"/>
      <point x="275" y="49" type="curve" smooth="yes"/>
      <point x="190.192382006" y="49.0"/>
      <point x="151.0" y="154.990430403"/>
      <point x="151" y="260" type="curve" smooth="yes"/>
      <point x="151" y="366"/>
      <point x="186" y="483"/>
      <point x="279" y="483" type="curve" smooth="yes"/>
    </contour>
    <contour>
      <point x="307" y="-13"/>
      <point x="371" y="18"/>
      <point x="406" y="83" type="curve"/>
      <point x="425" y="0" type="line"/>
      <point x="598" y="0" type="line"/>
      <point x="598" y="56" type="line"/>
      <point x="510" y="56" type="line"/>
      <point x="510" y="750" type="line"/>
      <point x="290" y="750" type="line"/>
      <point x="290" y="690" type="line"/>
      <point x="405" y="690" type="line"/>
      <point x="405" y="460" type="line"/>
      <point x="372" y="509"/>
      <point x="314" y="538"/>
      <point x="261" y="538" type="curve"/>
      <point x="123" y="538"/>
      <point x="39" y="426"/>
      <point x="39" y="262" type="curve" smooth="yes"/>
      <point x="39" y="97"/>
      <point x="124" y="-13"/>
      <point x="254" y="-13" type="curve" smooth="yes"/>
    </contour>
    <contour>
      <point x="322" y="262" type="move" name="center"/>
    </contour>
  </outline>
</glyph>
<glyph name="e" format="1">
  <advance width="562.1919"/>
  <unicode hex="0065"/>
  <outline>
    <contour>
      <point x="36.0" y="255.274" type="curve" smooth="yes"/>
      <point x="36.1189" y="119"/>
      <point x="126.1189" y="-14"/>
      <point x="291.1189" y="-14" type="curve" smooth="yes"/>
      <point x="409.1189" y="-14"/>
      <point x="489.1919" y="57"/>
      <point x="514.1919" y="163" type="curve"/>
      <point x="457.1919" y="181" type="line"/>
      <point x="435.1919" y="100"/>
      <point x="364.1919" y="60"/>
      <point x="301.1919" y="60" type="curve" smooth="yes"/>
      <point x="193.5259" y="60"/>
      <point x="148.1919" y="156.596"/>
      <point x="148.1919" y="265" type="curve" smooth="yes"/>
      <point x="148.1919" y="269" type="line"/>
      <point x="524.1919" y="269" type="line"/>
      <point x="521.1919" y="445"/>
      <point x="417.1919" y="539"/>
      <point x="285.1919" y="539" type="curve" smooth="yes"/>
      <point x="123.9719" y="539"/>
      <point x="36.1189" y="402"/>
    </contour>
    <contour>
      <point x="151.1919" y="322" type="line"/>
      <point x="159.1919" y="418"/>
      <point x="217.1919" y="481"/>
      <point x="288.1919" y="481" type="curve" smooth="yes"/>
      <point x="358.1919" y="481"/>
      <point x="414.1919" y="418"/>
      <point x="417.1919" y="322" type="curve"/>
    </contour>
    <contour>
      <point x="274.1189" y="524" type="move" name="top"/>
    </contour>
    <contour>
      <point x="274.1189" y="0" type="move" name="bottom"/>
    </contour>
    <contour>
      <point x="499.1189" y="10" type="move" name="ogonek"/>
    </contour>
  </outline>
</glyph>
<glyph name="f" format="1">
  <advance width="384"/>
  <unicode hex="0066"/>
  <outline>
    <contour>
      <point x="347" y="57" type="line"/>
      <point x="225" y="57" type="line"/>
      <point x="225" y="467" type="line"/>
      <point x="378" y="467" type="line"/>
      <point x="382" y="524" type="line"/>
      <point x="222" y="524" type="line"/>
      <point x="222" y="607" type="line" smooth="yes"/>
      <point x="222" y="697"/>
      <point x="262" y="732"/>
      <point x="319" y="732" type="curve" smooth="yes"/>
      <point x="342" y="732"/>
      <point x="371" y="724"/>
      <point x="386" y="710" type="curve"/>
      <point x="351" y="701"/>
      <point x="332" y="671"/>
      <point x="332" y="650" type="curve" smooth="yes"/>
      <point x="332" y="611"/>
      <point x="364" y="584"/>
      <point x="398" y="584" type="curve" smooth="yes"/>
      <point x="438" y="584"/>
      <point x="471" y="615"/>
      <point x="471" y="668" type="curve" smooth="yes"/>
      <point x="471" y="718"/>
      <point x="417" y="773"/>
      <point x="304" y="773" type="curve" smooth="yes"/>
      <point x="167" y="773"/>
      <point x="120" y="690"/>
      <point x="120" y="524" type="curve"/>
      <point x="25" y="524" type="line"/>
      <point x="25" y="467" type="line"/>
      <point x="120" y="467" type="line"/>
      <point x="120" y="57" type="line"/>
      <point x="25" y="57" type="line"/>
      <point x="25" y="0" type="line"/>
      <point x="347" y="0" type="line"/>
    </contour>
  </outline>
</glyph>
<glyph name="g" format="1">
  <advance width="585.2508"/>
  <unicode hex="0067"/>
  <outline>
    <contour>
      <point x="408" y="150"/>
      <point x="364" y="47"/>
      <point x="273" y="47" type="curve" smooth="yes"/>
      <point x="179" y="47"/>
      <point x="147" y="162"/>
      <point x="147" y="269" type="curve" smooth="yes"/>
      <point x="147" y="373"/>
      <point x="191" y="473"/>
      <point x="275" y="473" type="curve" smooth="yes"/>
      <point x="356" y="473"/>
      <point x="408" y="382"/>
      <point x="408" y="250" type="curve" smooth="yes"/>
    </contour>
    <contour>
      <point x="86" y="-226"/>
      <point x="176" y="-261"/>
      <point x="269" y="-261" type="curve" smooth="yes"/>
      <point x="444" y="-261"/>
      <point x="510" y="-122"/>
      <point x="510" y="25" type="curve" smooth="yes"/>
      <point x="510" y="466" type="line"/>
      <point x="580" y="466" type="line"/>
      <point x="580" y="524" type="line"/>
      <point x="417" y="524" type="line"/>
      <point x="405" y="430" type="line"/>
      <point x="383" y="501"/>
      <point x="308" y="538"/>
      <point x="255" y="538" type="curve" smooth="yes"/>
      <point x="112" y="538"/>
      <point x="40" y="398"/>
      <point x="40" y="260" type="curve" smooth="yes"/>
      <point x="40" y="123"/>
      <point x="110" y="-13"/>
      <point x="252" y="-13" type="curve" smooth="yes"/>
      <point x="254" y="-13"/>
      <point x="256" y="-13"/>
      <point x="258" y="-13" type="curve" smooth="yes"/>
      <point x="328" y="-13"/>
      <point x="386" y="42"/>
      <point x="405" y="98" type="curve"/>
      <point x="405" y="11" type="line" smooth="yes"/>
      <point x="405" y="-124"/>
      <point x="358" y="-210"/>
      <point x="253" y="-210" type="curve" smooth="yes"/>
      <point x="228" y="-210"/>
      <point x="213" y="-206"/>
      <point x="193" y="-199" type="curve"/>
      <point x="211" y="-192"/>
      <point x="234" y="-163"/>
      <point x="234" y="-136" type="curve" smooth="yes"/>
      <point x="234" y="-95"/>
      <point x="203" y="-68"/>
      <point x="168" y="-68" type="curve" smooth="yes"/>
      <point x="128" y="-68"/>
      <point x="86" y="-90"/>
      <point x="86" y="-144" type="curve" smooth="yes"/>
    </contour>
    <contour>
      <point x="298.2508" y="524" type="move" name="top"/>
    </contour>
  </outline>
</glyph>
<glyph name="h" format="1">
  <advance width="693"/>
  <unicode hex="0068"/>
  <outline>
    <contour>
      <point x="581" y="353" type="line" smooth="yes"/>
      <point x="581" y="521"/>
      <point x="475" y="538"/>
      <point x="419" y="538" type="curve" smooth="yes"/>
      <point x="361" y="538"/>
      <point x="287" y="511"/>
      <point x="248" y="431" type="curve" smooth="no"/>
      <point x="248" y="750" type="line" smooth="no"/>
      <point x="47" y="736" type="line" smooth="no"/>
      <point x="47" y="691" type="line" smooth="no"/>
      <point x="143" y="680" type="line" smooth="no"/>
      <point x="143" y="57" type="line" smooth="no"/>
      <point x="39" y="57" type="line" smooth="no"/>
      <point x="39" y="0" type="line" smooth="no"/>
      <point x="343" y="0" type="line" smooth="no"/>
      <point x="343" y="57" type="line" smooth="no"/>
      <point x="248" y="57" type="line" smooth="no"/>
      <point x="248" y="292" type="line" smooth="yes"/>
      <point x="248" y="391.848"/>
      <point x="331.946" y="468.975"/>
      <point x="397.964" y="468.975" type="curve" smooth="yes"/>
      <point x="440.747" y="468.975"/>
      <point x="476" y="436.585"/>
      <point x="476" y="357" type="curve" smooth="yes"/>
      <point x="476" y="57" type="line" smooth="no"/>
      <point x="381" y="57" type="line" smooth="no"/>
      <point x="381" y="0" type="line" smooth="no"/>
      <point x="686" y="0" type="line" smooth="no"/>
      <point x="686" y="57" type="line" smooth="no"/>
      <point x="581" y="57" type="line" smooth="no"/>
    </contour>
  </outline>
</glyph>
<glyph name="i" format="1">
  <advance width="325"/>
  <unicode hex="0069"/>
  <outline>
    <contour>
      <point x="226" y="524" type="line"/>
      <point x="226" y="57" type="line"/>
      <point x="322" y="57" type="line"/>
      <point x="322" y="0" type="line"/>
      <point x="27" y="0" type="line"/>
      <point x="27" y="57" type="line"/>
      <point x="121" y="57" type="line"/>
      <point x="121" y="469" type="line"/>
      <point x="26" y="469" type="line"/>
      <point x="26" y="524" type="line"/>
    </contour>
    <contour>
      <point x="92" y="688" type="curve" smooth="yes"/>
      <point x="92" y="728"/>
      <point x="124" y="761"/>
      <point x="164" y="761" type="curve" smooth="yes"/>
      <point x="203" y="761"/>
      <point x="237" y="728"/>
      <point x="237" y="688" type="curve" smooth="yes"/>
      <point x="237" y="649"/>
      <point x="203" y="616"/>
      <point x="164" y="616" type="curve" smooth="yes"/>
      <point x="124" y="616"/>
      <point x="92" y="649"/>
    </contour>
  </outline>
</glyph>
<glyph name="j" format="1">
  <advance width="340"/>
  <unicode hex="006a"/>
  <outline>
    <contour>
      <point x="111" y="688" type="curve" smooth="yes"/>
      <point x="111" y="728"/>
      <point x="143" y="761"/>
      <point x="183" y="761" type="curve" smooth="yes"/>
      <point x="222" y="761"/>
      <point x="256" y="728"/>
      <point x="256" y="688" type="curve" smooth="yes"/>
      <point x="256" y="649"/>
      <point x="222" y="616"/>
      <point x="183" y="616" type="curve" smooth="yes"/>
      <point x="143" y="616"/>
      <point x="111" y="649"/>
    </contour>
    <contour>
      <point x="78" y="-190" type="curve" smooth="yes"/>
      <point x="82" y="-190" type="line" smooth="yes"/>
      <point x="178" y="-189"/>
      <point x="250" y="-126"/>
      <point x="250" y="-4" type="curve" smooth="yes"/>
      <point x="250" y="524" type="line" smooth="no"/>
      <point x="26" y="524" type="line" smooth="no"/>
      <point x="26" y="454" type="line" smooth="no"/>
      <point x="145" y="454" type="line" smooth="no"/>
      <point x="145" y="-19" type="line" smooth="yes"/>
      <point x="145" y="-119"/>
      <point x="99" y="-137"/>
      <point x="65" y="-137" type="curve" smooth="yes"/>
      <point x="46" y="-137"/>
      <point x="30" y="-131"/>
      <point x="30" y="-131" type="curve" smooth="no"/>
      <point x="53" y="-121"/>
      <point x="58" y="-91"/>
      <point x="58" y="-69" type="curve" smooth="yes"/>
      <point x="58" y="-33"/>
      <point x="30" y="-15"/>
      <point x="1" y="-15" type="curve" smooth="yes"/>
      <point x="-33" y="-15"/>
      <point x="-70" y="-38"/>
      <point x="-70" y="-84" type="curve" smooth="yes"/>
      <point x="-70" y="-149"/>
      <point x="-20" y="-190"/>
    </contour>
  </outline>
</glyph>
<glyph name="k" format="1">
  <advance width="646"/>
  <unicode hex="006B"/>
  <outline>
    <contour>
      <point x="369" y="307" type="line"/>
      <point x="437" y="212"/>
      <point x="506" y="55"/>
      <point x="596" y="68" type="curve" smooth="yes"/>
      <point x="608" y="70"/>
      <point x="621" y="70"/>
      <point x="636" y="77" type="curve"/>
      <point x="650" y="11" type="line"/>
      <point x="615" y="-9"/>
      <point x="591" y="-10"/>
      <point x="563" y="-10" type="curve" smooth="yes"/>
      <point x="490" y="-10"/>
      <point x="447" y="34"/>
      <point x="405" y="97" type="curve" smooth="yes"/>
      <point x="307" y="266" type="line"/>
      <point x="226" y="204" type="line"/>
      <point x="226" y="57" type="line"/>
      <point x="309" y="57" type="line"/>
      <point x="309" y="0" type="line"/>
      <point x="22" y="0" type="line"/>
      <point x="22" y="57" type="line"/>
      <point x="121" y="57" type="line"/>
      <point x="121" y="690" type="line"/>
      <point x="22" y="690" type="line"/>
      <point x="22" y="750" type="line"/>
      <point x="226" y="750" type="line"/>
      <point x="226" y="279" type="line"/>
      <point x="430" y="467" type="line"/>
      <point x="338" y="467" type="line"/>
      <point x="338" y="524" type="line"/>
      <point x="631" y="524" type="line"/>
      <point x="631" y="467" type="line"/>
      <point x="538" y="467" type="line"/>
    </contour>
    <contour>
      <point x="326" y="0" type="move" name="bottom"/>
    </contour>
  </outline>
</glyph>
<glyph name="l" format="1">
  <advance width="353"/>
  <unicode hex="006C"/>
  <outline>
    <contour>
      <point x="239" y="750" type="line"/>
      <point x="239" y="57" type="line"/>
      <point x="344" y="57" type="line"/>
      <point x="344" y="0" type="line"/>
      <point x="25" y="0" type="line"/>
      <point x="25" y="57" type="line"/>
      <point x="134" y="57" type="line"/>
      <point x="134" y="690" type="line"/>
      <point x="25" y="690" type="line"/>
      <point x="25" y="750" type="line"/>
    </contour>
    <contour>
      <point x="183" y="524" type="move" name="top"/>
    </contour>
    <contour>
      <point x="183" y="0" type="move" name="bottom"/>
    </contour>
    <contour>
      <point x="348" y="524" type="move" name="topright"/>
    </contour>
  </outline>
</glyph>
<glyph name="m" format="1">
  <advance width="942"/>
  <unicode hex="006D"/>
  <outline>
    <contour>
      <point x="308" y="58" type="line"/>
      <point x="224" y="58" type="line"/>
      <point x="224" y="286" type="line" smooth="yes"/>
      <point x="224" y="377"/>
      <point x="242" y="471"/>
      <point x="339" y="471" type="curve"/>
      <point x="394" y="470"/>
      <point x="432" y="435"/>
      <point x="432" y="347" type="curve" smooth="yes"/>
      <point x="432" y="58" type="line"/>
      <point x="348" y="58" type="line"/>
      <point x="348" y="0" type="line"/>
      <point x="621" y="0" type="line"/>
      <point x="621" y="58" type="line"/>
      <point x="537" y="58" type="line"/>
      <point x="537" y="357" type="line"/>
      <point x="547" y="420"/>
      <point x="576" y="471"/>
      <point x="647" y="471" type="curve"/>
      <point x="702" y="470"/>
      <point x="740" y="435"/>
      <point x="740" y="347" type="curve" smooth="yes"/>
      <point x="740" y="58" type="line"/>
      <point x="661" y="58" type="line"/>
      <point x="661" y="0" type="line"/>
      <point x="935" y="0" type="line"/>
      <point x="935" y="58" type="line"/>
      <point x="845" y="58" type="line"/>
      <point x="845" y="348" type="line" smooth="yes"/>
      <point x="845" y="518"/>
      <point x="742" y="538"/>
      <point x="683" y="538" type="curve" smooth="yes"/>
      <point x="623" y="538"/>
      <point x="561" y="511"/>
      <point x="527" y="434" type="curve"/>
      <point x="500" y="530"/>
      <point x="427" y="538"/>
      <point x="379" y="538" type="curve" smooth="yes"/>
      <point x="318" y="538"/>
      <point x="255" y="510"/>
      <point x="221" y="432" type="curve"/>
      <point x="221" y="524" type="line"/>
      <point x="24" y="524" type="line"/>
      <point x="24" y="454" type="line"/>
      <point x="119" y="454" type="line"/>
      <point x="119" y="58" type="line"/>
      <point x="24" y="58" type="line"/>
      <point x="24" y="0" type="line"/>
      <point x="308" y="0" type="line"/>
    </contour>
  </outline>
</glyph>
<glyph name="n" format="1">
  <advance width="1359"/>
  <unicode hex="006E"/>
  <outline>
    <contour>
      <point x="641" y="0" type="line"/>
      <point x="641" y="119" type="line"/>
      <point x="459" y="119" type="line"/>
      <point x="459" y="586" type="line" smooth="yes"/>
      <point x="459" y="772"/>
      <point x="536" y="965"/>
      <point x="735" y="965" type="curve"/>
      <point x="848" y="963"/>
      <point x="926" y="891"/>
      <point x="926" y="711" type="curve" smooth="yes"/>
      <point x="926" y="119" type="line"/>
      <point x="743" y="119" type="line"/>
      <point x="743" y="0" type="line"/>
      <point x="1346" y="0" type="line"/>
      <point x="1346" y="119" type="line"/>
      <point x="1141" y="119" type="line"/>
      <point x="1141" y="713" type="line" smooth="yes"/>
      <point x="1141" y="1061"/>
      <point x="930" y="1106"/>
      <point x="809" y="1106" type="curve" smooth="yes"/>
      <point x="684" y="1106"/>
      <point x="523" y="1032"/>
      <point x="453" y="872" type="curve"/>
      <point x="428" y="1090" type="line"/>
      <point x="49" y="1073" type="line"/>
      <point x="49" y="954" type="line"/>
      <point x="244" y="954" type="line"/>
      <point x="244" y="119" type="line"/>
      <point x="49" y="119" type="line"/>
      <point x="49" y="0" type="line"/>
    </contour>
    <contour>
      <point x="680" y="1073" type="move" name="top"/>
    </contour>
    <contour>
      <point x="680" y="0" type="move" name="bottom"/>
    </contour>
  </outline>
</glyph>
<glyph name="o" format="1">
  <advance width="582"/>
  <unicode hex="006F"/>
  <outline>
    <contour>
      <point x="292" y="-13" type="curve" smooth="yes"/>
      <point x="132" y="-13"/>
      <point x="39" y="106"/>
      <point x="39" y="262" type="curve" smooth="yes"/>
      <point x="39" y="418"/>
      <point x="131" y="538"/>
      <point x="291" y="538" type="curve" smooth="yes"/>
      <point x="451" y="538"/>
      <point x="543" y="418"/>
      <point x="543" y="262" type="curve" smooth="yes"/>
      <point x="543" y="108"/>
      <point x="451" y="-13"/>
    </contour>
    <contour>
      <point x="291" y="480" type="curve" smooth="yes"/>
      <point x="191" y="480"/>
      <point x="151" y="383"/>
      <point x="151" y="256" type="curve" smooth="yes"/>
      <point x="151" y="132"/>
      <point x="202" y="49"/>
      <point x="292" y="49" type="curve" smooth="yes"/>
      <point x="381" y="49"/>
      <point x="431" y="134"/>
      <point x="431" y="256" type="curve" smooth="yes"/>
      <point x="431" y="383"/>
      <point x="391" y="480"/>
    </contour>
    <contour>
      <point x="291" y="524" type="move" name="top"/>
    </contour>
  </outline>
</glyph>
<glyph name="p" format="1">
  <advance width="596.0"/>
  <unicode hex="0070"/>
  <outline>
    <contour>
      <point x="472.0" y="543"/>
      <point x="560.0" y="419"/>
      <point x="560.0" y="263" type="curve" smooth="yes"/>
      <point x="560.0" y="103"/>
      <point x="476.0" y="-13"/>
      <point x="338.0" y="-13" type="curve"/>
      <point x="280.0" y="-9"/>
      <point x="227.0" y="16.0"/>
      <point x="194.0" y="65.0" type="curve"/>
      <point x="194.0" y="-136.0" type="line"/>
      <point x="302.0" y="-136.0" type="line"/>
      <point x="302.0" y="-196.0" type="line"/>
      <point x="-26.0" y="-196.0" type="line"/>
      <point x="-26.0" y="-137.0" type="line"/>
      <point x="89.0" y="-137.0" type="line"/>
      <point x="89.0" y="-137.0" type="line"/>
      <point x="89.0" y="469.0" type="line"/>
      <point x="-6.0" y="469" type="line"/>
      <point x="-6.0" y="524" type="line"/>
      <point x="191.0" y="538" type="line"/>
      <point x="191.0" y="440" type="line"/>
      <point x="225.0" y="502"/>
      <point x="280.0" y="536"/>
      <point x="343.0" y="538" type="curve" smooth="yes"/>
    </contour>
    <contour>
      <point x="413.0" y="42"/>
      <point x="448.0" y="162"/>
      <point x="448.0" y="269" type="curve" smooth="yes"/>
      <point x="448.0" y="373"/>
      <point x="403.0" y="476"/>
      <point x="319.0" y="476" type="curve" smooth="yes"/>
      <point x="241.0" y="476"/>
      <point x="187.0" y="386.0"/>
      <point x="187.0" y="260.0" type="curve" smooth="yes"/>
      <point x="187.0" y="160.0"/>
      <point x="224.0" y="42"/>
      <point x="319.0" y="42" type="curve" smooth="yes"/>
    </contour>
  </outline>
</glyph>
<glyph name="q" format="1">
  <advance width="1196"/>
  <unicode hex="0071"/>
  <outline>
    <contour>
      <point x="565" y="86" type="curve" smooth="yes"/>
      <point x="372" y="86"/>
      <point x="303" y="332"/>
      <point x="303" y="551" type="curve" smooth="yes"/>
      <point x="303" y="764"/>
      <point x="393" y="981"/>
      <point x="565" y="981" type="curve" smooth="yes"/>
      <point x="731" y="981"/>
      <point x="831" y="762"/>
      <point x="831" y="492" type="curve" smooth="yes"/>
      <point x="831" y="326"/>
      <point x="751" y="86"/>
    </contour>
    <contour>
      <point x="524" y="1106" type="curve" smooth="yes"/>
      <point x="258" y="1106"/>
      <point x="74" y="858"/>
      <point x="74" y="539" type="curve" smooth="yes"/>
      <point x="74" y="211"/>
      <point x="252" y="-31"/>
      <point x="535" y="-31" type="curve"/>
      <point x="654" y="-23"/>
      <point x="763" y="33"/>
      <point x="831" y="133" type="curve"/>
      <point x="831" y="-276" type="line"/>
      <point x="614" y="-276" type="line"/>
      <point x="614" y="-399" type="line"/>
      <point x="1253" y="-399" type="line"/>
      <point x="1253" y="-276" type="line"/>
      <point x="1047" y="-276" type="line"/>
      <point x="1047" y="1073" type="line"/>
      <point x="954" y="1073" type="line"/>
      <point x="877" y="877" type="line"/>
      <point x="807" y="1041"/>
      <point x="657" y="1106"/>
    </contour>
  </outline>
</glyph>
<glyph name="r" format="1">
  <advance width="954"/>
  <unicode hex="0072"/>
  <outline>
    <contour>
      <point x="684" y="0" type="line"/>
      <point x="684" y="117" type="line"/>
      <point x="459" y="117" type="line"/>
      <point x="459" y="575" type="line" smooth="yes"/>
      <point x="459" y="761"/>
      <point x="519" y="987"/>
      <point x="687" y="987" type="curve"/>
      <point x="687" y="987"/>
      <point x="646" y="946"/>
      <point x="646" y="899" type="curve" smooth="yes"/>
      <point x="646" y="813"/>
      <point x="716" y="766"/>
      <point x="788" y="766" type="curve" smooth="yes"/>
      <point x="864" y="766"/>
      <point x="941" y="819"/>
      <point x="941" y="930" type="curve" smooth="yes"/>
      <point x="941" y="1045"/>
      <point x="843" y="1106"/>
      <point x="743" y="1106" type="curve" smooth="yes"/>
      <point x="573" y="1106"/>
      <point x="484" y="956"/>
      <point x="455" y="856" type="curve"/>
      <point x="428" y="1090" type="line"/>
      <point x="49" y="1073" type="line"/>
      <point x="49" y="954" type="line"/>
      <point x="244" y="954" type="line"/>
      <point x="244" y="117" type="line"/>
      <point x="49" y="117" type="line"/>
      <point x="49" y="0" type="line"/>
    </contour>
    <contour>
      <point x="473" y="1073" type="move" name="top"/>
    </contour>
    <contour>
      <point x="473" y="0" type="move" name="bottom"/>
    </contour>
  </outline>
</glyph>
<glyph name="s" format="1">
  <advance width="543"/>
  <unicode hex="0073"/>
  <outline>
    <contour>
      <point x="54" y="125" type="curve" smooth="yes"/>
      <point x="54" y="19"/>
      <point x="178" y="-13"/>
      <point x="272" y="-13" type="curve" smooth="yes"/>
      <point x="280" y="-13" type="line" smooth="yes"/>
      <point x="379" y="-11"/>
      <point x="487" y="29"/>
      <point x="487" y="152" type="curve" smooth="yes"/>
      <point x="487" y="281"/>
      <point x="368" y="303"/>
      <point x="277" y="334" type="curve" smooth="yes"/>
      <point x="199" y="360"/>
      <point x="161" y="369"/>
      <point x="161" y="411" type="curve" smooth="yes"/>
      <point x="161" y="414" type="line" smooth="yes"/>
      <point x="164" y="470"/>
      <point x="231" y="481"/>
      <point x="290" y="481" type="curve" smooth="yes"/>
      <point x="332" y="481"/>
      <point x="380" y="470"/>
      <point x="408" y="446" type="curve"/>
      <point x="392" y="444"/>
      <point x="356" y="424"/>
      <point x="356" y="392" type="curve" smooth="yes"/>
      <point x="356" y="351"/>
      <point x="386" y="332"/>
      <point x="417" y="332" type="curve" smooth="yes"/>
      <point x="453" y="332"/>
      <point x="489" y="360"/>
      <point x="489" y="402" type="curve" smooth="yes"/>
      <point x="489" y="518"/>
      <point x="348" y="537"/>
      <point x="259" y="537" type="curve" smooth="yes"/>
      <point x="185" y="537"/>
      <point x="69" y="502"/>
      <point x="70" y="390" type="curve" smooth="yes"/>
      <point x="71" y="282"/>
      <point x="166" y="269"/>
      <point x="256" y="237" type="curve" smooth="yes"/>
      <point x="344" y="206"/>
      <point x="384" y="191"/>
      <point x="390" y="128" type="curve" smooth="yes"/>
      <point x="390" y="122" type="line" smooth="yes"/>
      <point x="390" y="71"/>
      <point x="328" y="42"/>
      <point x="261" y="42" type="curve" smooth="yes"/>
      <point x="218" y="42"/>
      <point x="172" y="50"/>
      <point x="143" y="74" type="curve"/>
      <point x="159" y="76"/>
      <point x="187" y="104"/>
      <point x="187" y="136" type="curve" smooth="yes"/>
      <point x="187" y="177"/>
      <point x="157" y="196"/>
      <point x="126" y="196" type="curve" smooth="yes"/>
      <point x="90" y="196"/>
      <point x="54" y="167"/>
    </contour>
    <contour>
      <point x="273" y="524" type="move" name="top"/>
    </contour>
    <contour>
      <point x="273" y="0" type="move" name="bottom"/>
    </contour>
  </outline>
</glyph>
<glyph name="t" format="1">
  <advance width="432"/>
  <unicode hex="0074"/>
  <outline>
    <contour>
      <point x="86" y="469" type="line"/>
      <point x="-14" y="469" type="line"/>
      <point x="-14" y="492" type="line"/>
      <point x="112" y="529"/>
      <point x="152" y="686"/>
      <point x="160" y="718" type="curve" smooth="yes"/>
      <point x="163" y="729"/>
      <point x="171" y="735"/>
      <point x="178" y="735" type="curve" smooth="yes"/>
      <point x="185" y="735"/>
      <point x="191" y="729"/>
      <point x="191" y="718" type="curve" smooth="yes"/>
      <point x="191" y="524" type="line"/>
      <point x="383" y="524" type="line"/>
      <point x="383" y="468" type="line"/>
      <point x="191" y="468" type="line"/>
      <point x="191" y="141" type="line" smooth="yes"/>
      <point x="191" y="81"/>
      <point x="221" y="55"/>
      <point x="262" y="55" type="curve" smooth="yes"/>
      <point x="262" y="55"/>
      <point x="263" y="55"/>
      <point x="264" y="55" type="curve" smooth="yes"/>
      <point x="310" y="56"/>
      <point x="341" y="80"/>
      <point x="341" y="171" type="curve" smooth="yes"/>
      <point x="341" y="241" type="line"/>
      <point x="400" y="241" type="line"/>
      <point x="400" y="181" type="line" smooth="yes"/>
      <point x="400" y="62"/>
      <point x="367" y="-10"/>
      <point x="249" y="-13" type="curve" smooth="yes"/>
      <point x="247" y="-13"/>
      <point x="246" y="-13"/>
      <point x="244" y="-13" type="curve" smooth="yes"/>
      <point x="166" y="-13"/>
      <point x="86" y="34"/>
      <point x="86" y="144" type="curve" smooth="yes"/>
    </contour>
    <contour>
      <point x="206" y="0" type="move" name="bottom"/>
    </contour>
    <contour>
      <point x="206" y="262" type="move" name="center"/>
    </contour>
  </outline>
</glyph>
<glyph name="u" format="1">
  <advance width="628"/>
  <unicode hex="0075"/>
  <outline>
    <contour>
      <point x="430" y="-14" type="line"/>
      <point x="627" y="0" type="line"/>
      <point x="627" y="45" type="line"/>
      <point x="532" y="55" type="line"/>
      <point x="532" y="524" type="line"/>
      <point x="338" y="524" type="line"/>
      <point x="338" y="466" type="line"/>
      <point x="427" y="466" type="line"/>
      <point x="427" y="183" type="line" smooth="yes"/>
      <point x="427" y="122"/>
      <point x="343" y="57"/>
      <point x="282" y="57" type="curve"/>
      <point x="281" y="57"/>
      <point x="280" y="57"/>
      <point x="280" y="57" type="curve" smooth="yes"/>
      <point x="223" y="57"/>
      <point x="195" y="91"/>
      <point x="195" y="177" type="curve" smooth="yes"/>
      <point x="195" y="524" type="line"/>
      <point x="-2" y="524" type="line"/>
      <point x="-2" y="466" type="line"/>
      <point x="90" y="466" type="line"/>
      <point x="90" y="176" type="line" smooth="yes"/>
      <point x="90" y="6"/>
      <point x="195" y="-14"/>
      <point x="254" y="-14" type="curve" smooth="yes"/>
      <point x="315" y="-14"/>
      <point x="382" y="10"/>
      <point x="430" y="96" type="curve"/>
    </contour>
    <contour>
      <point x="321" y="524" type="move" name="top"/>
    </contour>
    <contour>
      <point x="588" y="10" type="move" name="ogonek"/>
    </contour>
  </outline>
</glyph>
<glyph name="v" format="1">
  <advance width="668"/>
  <unicode hex="0076"/>
  <outline>
    <contour>
      <point x="336" y="-8" type="curve" smooth="yes"/>
      <point x="378" y="-8"/>
      <point x="407" y="0"/>
      <point x="442" y="90" type="curve" smooth="yes"/>
      <point x="578" y="437" type="line"/>
      <point x="662" y="437" type="line"/>
      <point x="662" y="524" type="line"/>
      <point x="392" y="524" type="line"/>
      <point x="392" y="437" type="line"/>
      <point x="465" y="437" type="line"/>
      <point x="357" y="127" type="line"/>
      <point x="249" y="437" type="line"/>
      <point x="325" y="437" type="line"/>
      <point x="325" y="524" type="line"/>
      <point x="6" y="524" type="line"/>
      <point x="6" y="437" type="line"/>
      <point x="103" y="437" type="line"/>
      <point x="247" y="77" type="line" smooth="yes"/>
      <point x="278" y="0"/>
      <point x="297" y="-8"/>
    </contour>
  </outline>
</glyph>
<glyph name="w" format="1">
  <advance width="824"/>
  <unicode hex="0077"/>
  <outline>
    <contour>
      <point x="580" y="-19" type="curve" smooth="yes"/>
      <point x="616" y="-19"/>
      <point x="630" y="-2"/>
      <point x="644" y="53" type="curve" smooth="yes"/>
      <point x="755" y="466" type="line"/>
      <point x="824" y="466" type="line"/>
      <point x="824" y="524" type="line"/>
      <point x="599" y="524" type="line"/>
      <point x="599" y="466" type="line"/>
      <point x="681" y="466" type="line"/>
      <point x="590" y="104" type="line"/>
      <point x="484" y="468" type="line"/>
      <point x="395" y="468" type="line"/>
      <point x="281" y="107" type="line"/>
      <point x="199" y="466" type="line"/>
      <point x="278" y="466" type="line"/>
      <point x="278" y="524" type="line"/>
      <point x="4" y="524" type="line"/>
      <point x="4" y="466" type="line"/>
      <point x="86" y="466" type="line"/>
      <point x="197" y="51" type="line" smooth="yes"/>
      <point x="212" y="0"/>
      <point x="228" y="-19"/>
      <point x="259" y="-19" type="curve" smooth="yes"/>
      <point x="296" y="-19"/>
      <point x="312" y="1"/>
      <point x="329" y="54" type="curve" smooth="yes"/>
      <point x="430" y="365" type="line"/>
      <point x="516" y="50" type="line" smooth="yes"/>
      <point x="530" y="0"/>
      <point x="547" y="-19"/>
    </contour>
  </outline>
</glyph>
<glyph name="x" format="1">
  <advance width="1280"/>
  <unicode hex="0078"/>
  <outline>
    <contour>
      <point x="571" y="1073" type="line"/>
      <point x="571" y="954" type="line"/>
      <point x="422" y="954" type="line"/>
      <point x="647" y="659" type="line"/>
      <point x="874" y="952" type="line"/>
      <point x="713" y="952" type="line"/>
      <point x="713" y="1073" type="line"/>
      <point x="1217" y="1073" type="line"/>
      <point x="1217" y="954" type="line"/>
      <point x="1053" y="954" type="line"/>
      <point x="736.814" y="571.922" type="line"/>
      <point x="1110" y="119" type="line"/>
      <point x="1276" y="119" type="line"/>
      <point x="1276" y="0" type="line"/>
      <point x="682" y="0" type="line"/>
      <point x="682" y="119" type="line"/>
      <point x="860" y="119" type="line"/>
      <point x="622" y="440" type="line"/>
      <point x="362" y="119" type="line"/>
      <point x="543" y="119" type="line"/>
      <point x="543" y="0" type="line"/>
      <point x="27" y="0" type="line"/>
      <point x="27" y="119" type="line"/>
      <point x="184" y="119" type="line"/>
      <point x="521.511" y="526.459" type="line"/>
      <point x="168" y="952" type="line"/>
      <point x="4" y="952" type="line"/>
      <point x="4" y="1073" type="line"/>
    </contour>
  </outline>
</glyph>
<glyph name="y" format="1">
  <advance width="691"/>
  <unicode hex="0079"/>
  <outline>
    <contour>
      <point x="185" y="-242" type="curve" smooth="yes"/>
      <point x="323" y="-242"/>
      <point x="372" y="-112"/>
      <point x="413" y="-2" type="curve"/>
      <point x="583" y="437" type="line"/>
      <point x="667" y="437" type="line"/>
      <point x="667" y="524" type="line"/>
      <point x="397" y="524" type="line"/>
      <point x="397" y="437" type="line"/>
      <point x="470" y="437" type="line"/>
      <point x="362" y="127" type="line"/>
      <point x="254" y="437" type="line"/>
      <point x="330" y="437" type="line"/>
      <point x="330" y="524" type="line"/>
      <point x="11" y="524" type="line"/>
      <point x="11" y="437" type="line"/>
      <point x="108" y="437" type="line"/>
      <point x="285" y="0" type="line"/>
      <point x="260" y="-114"/>
      <point x="225" y="-173"/>
      <point x="168" y="-173" type="curve" smooth="yes"/>
      <point x="131.875" y="-173"/>
      <point x="118" y="-165"/>
      <point x="102" y="-149" type="curve"/>
      <point x="128" y="-149"/>
      <point x="168" y="-131"/>
      <point x="168" y="-87" type="curve" smooth="yes"/>
      <point x="168" y="-49"/>
      <point x="140" y="-24"/>
      <point x="99" y="-24" type="curve" smooth="yes"/>
      <point x="51" y="-24"/>
      <point x="18" y="-61"/>
      <point x="18" y="-102" type="curve" smooth="yes"/>
      <point x="18" y="-201"/>
      <point x="90" y="-242"/>
    </contour>
    <contour>
      <point x="346" y="524" type="move" name="top"/>
    </contour>
  </outline>
</glyph>
<glyph name="z" format="1">
  <advance width="534"/>
  <unicode hex="007A"/>
  <outline>
    <contour>
      <point x="493" y="0" type="line"/>
      <point x="493" y="204" type="line"/>
      <point x="413" y="204" type="line"/>
      <point x="413" y="57" type="line" smooth="yes"/>
      <point x="158" y="57" type="line"/>
      <point x="473" y="451" type="line"/>
      <point x="459" y="524" type="line"/>
      <point x="58" y="524" type="line"/>
      <point x="58" y="335" type="line"/>
      <point x="138" y="335" type="line"/>
      <point x="138" y="469" type="line" smooth="yes"/>
      <point x="365" y="469" type="line"/>
      <point x="54" y="77" type="line"/>
      <point x="53" y="77" type="line"/>
      <point x="62" y="0" type="line"/>
    </contour>
  </outline>
</glyph>
<glyph name="braceleft" format="1">
  <advance width="433"/>
  <unicode hex="007B"/>
  <outline>
    <contour>
      <point x="213.662" y="305" type="curve"/>
      <point x="278.838" y="320.323"/>
      <point x="285" y="364.968"/>
      <point x="285" y="495" type="curve" smooth="yes"/>
      <point x="285" y="670"/>
      <point x="290" y="731"/>
      <point x="418" y="731" type="curve"/>
      <point x="418" y="773" type="line"/>
      <point x="209" y="773"/>
      <point x="175" y="691"/>
      <point x="175" y="495" type="curve" smooth="yes"/>
      <point x="175" y="354"/>
      <point x="186" y="338"/>
      <point x="118" y="338" type="curve" smooth="yes"/>
      <point x="62" y="338" type="line"/>
      <point x="62" y="272" type="line"/>
      <point x="118" y="272" type="line" smooth="yes"/>
      <point x="186" y="272"/>
      <point x="175" y="256"/>
      <point x="175" y="115" type="curve" smooth="yes"/>
      <point x="175" y="-81"/>
      <point x="209" y="-163"/>
      <point x="418" y="-163" type="curve"/>
      <point x="418" y="-121" type="line"/>
      <point x="290" y="-121"/>
      <point x="285" y="-60"/>
      <point x="285" y="115" type="curve" smooth="yes"/>
      <point x="285" y="245.032"/>
      <point x="278.838" y="289.677"/>
    </contour>
  </outline>
</glyph>
<glyph name="braceleft" format="1">
  <advance width="1000"/>
  <unicode hex="007b"/>
  <outline>
    <contour>
      <point x="166.662" y="305" type="curve" smooth="no"/>
      <point x="231.838" y="320.323"/>
      <point x="238" y="364.968"/>
      <point x="238" y="495" type="curve" smooth="yes"/>
      <point x="238" y="670"/>
      <point x="243" y="731"/>
      <point x="371" y="731" type="curve" smooth="no"/>
      <point x="371" y="773" type="line" smooth="no"/>
      <point x="162" y="773"/>
      <point x="128" y="691"/>
      <point x="128" y="495" type="curve" smooth="yes"/>
      <point x="128" y="354"/>
      <point x="139" y="338"/>
      <point x="71" y="338" type="curve" smooth="yes"/>
      <point x="15" y="338" type="line" smooth="no"/>
      <point x="15" y="272" type="line" smooth="no"/>
      <point x="71" y="272" type="line" smooth="yes"/>
      <point x="139" y="272"/>
      <point x="128" y="256"/>
      <point x="128" y="115" type="curve" smooth="yes"/>
      <point x="128" y="-81"/>
      <point x="162" y="-163"/>
      <point x="371" y="-163" type="curve" smooth="no"/>
      <point x="371" y="-121" type="line" smooth="no"/>
      <point x="243" y="-121"/>
      <point x="238" y="-60"/>
      <point x="238" y="115" type="curve" smooth="yes"/>
      <point x="238" y="245.032"/>
      <point x="231.838" y="289.677"/>
    </contour>
  </outline>
</glyph>
<glyph name="bar" format="1">
  <advance width="761"/>
  <unicode hex="007C"/>
  <outline>
    <contour>
      <point x="471" y="1606" type="line"/>
      <point x="291" y="1606" type="line"/>
      <point x="291" y="-246" type="line"/>
      <point x="471" y="-246" type="line"/>
    </contour>
  </outline>
</glyph>
<glyph name="braceright" format="1">
  <advance width="1000"/>
  <unicode hex="007D"/>
  <outline>
    <contour>
      <point x="241" y="305" type="curve"/>
      <point x="176" y="290"/>
      <point x="148" y="245"/>
      <point x="148" y="115" type="curve" smooth="yes"/>
      <point x="148" y="-60"/>
      <point x="143" y="-121"/>
      <point x="15" y="-121" type="curve"/>
      <point x="15" y="-163" type="line"/>
      <point x="224" y="-163"/>
      <point x="258" y="-81"/>
      <point x="258" y="115" type="curve" smooth="yes"/>
      <point x="258" y="256"/>
      <point x="260" y="276"/>
      <point x="328" y="276" type="curve" smooth="yes"/>
      <point x="371" y="276" type="line"/>
      <point x="371" y="334" type="line"/>
      <point x="328" y="334" type="line" smooth="yes"/>
      <point x="260" y="334"/>
      <point x="258" y="354"/>
      <point x="258" y="495" type="curve" smooth="yes"/>
      <point x="258" y="691"/>
      <point x="224" y="773"/>
      <point x="15" y="773" type="curve"/>
      <point x="15" y="731" type="line"/>
      <point x="143" y="731"/>
      <point x="148" y="670"/>
      <point x="148" y="495" type="curve" smooth="yes"/>
      <point x="148" y="365"/>
      <point x="176" y="320"/>
    </contour>
  </outline>
</glyph>
<glyph name="cent" format="1">
  <advance width="560"/>
  <unicode hex="00A2"/>
  <outline>
    <contour>
      <point x="273" y="630" type="line"/>
      <point x="316" y="630" type="line"/>
      <point x="316" y="-104" type="line"/>
      <point x="273" y="-104" type="line"/>
    </contour>
    <component base="c"/>
  </outline>
</glyph>
<glyph name="sterling" format="1">
  <advance width="1234"/>
  <unicode hex="00A3"/>
  <outline>
    <contour>
      <point x="1110" y="496" type="line"/>
      <point x="924" y="496" type="line"/>
      <point x="924" y="119" type="line"/>
      <point x="344" y="119" type="line"/>
      <point x="442" y="232"/>
      <point x="549" y="448"/>
      <point x="549" y="641" type="curve" smooth="yes"/>
      <point x="549" y="662" type="line"/>
      <point x="821" y="659" type="line"/>
      <point x="848" y="780" type="line"/>
      <point x="535" y="780" type="line"/>
      <point x="498" y="934"/>
      <point x="413" y="1013"/>
      <point x="403" y="1130" type="curve" smooth="yes"/>
      <point x="389" y="1292"/>
      <point x="508" y="1397"/>
      <point x="682" y="1397" type="curve" smooth="yes"/>
      <point x="784" y="1397"/>
      <point x="846" y="1358"/>
      <point x="893" y="1309" type="curve"/>
      <point x="848" y="1301"/>
      <point x="770" y="1239"/>
      <point x="770" y="1161" type="curve" smooth="yes"/>
      <point x="770" y="1071"/>
      <point x="854" y="1020"/>
      <point x="938" y="1020" type="curve" smooth="yes"/>
      <point x="1042" y="1020"/>
      <point x="1108" y="1098"/>
      <point x="1108" y="1202" type="curve" smooth="yes"/>
      <point x="1108" y="1221" type="line"/>
      <point x="1094" y="1395"/>
      <point x="901" y="1509"/>
      <point x="674" y="1509" type="curve" smooth="yes"/>
      <point x="664" y="1509" type="line" smooth="yes"/>
      <point x="347" y="1503"/>
      <point x="143" y="1347"/>
      <point x="168" y="1118" type="curve"/>
      <point x="180" y="1020"/>
      <point x="262" y="936"/>
      <point x="299" y="780" type="curve"/>
      <point x="164" y="780" type="line"/>
      <point x="141" y="659" type="line"/>
      <point x="313" y="659" type="line"/>
      <point x="313" y="639" type="line" smooth="yes"/>
      <point x="313" y="434"/>
      <point x="204" y="248"/>
      <point x="106" y="135" type="curve"/>
      <point x="170" y="0" type="line"/>
      <point x="1110" y="0" type="line"/>
    </contour>
  </outline>
</glyph>
<glyph name="currency" format="1">
  <advance width="581"/>
  <unicode hex="00A4"/>
  <outline>
    <contour>
      <point x="149" y="603"/>
      <point x="213" y="668"/>
      <point x="303" y="668" type="curve" smooth="yes"/>
      <point x="393" y="668"/>
      <point x="457" y="603"/>
      <point x="457" y="498" type="curve" smooth="yes"/>
      <point x="457" y="397"/>
      <point x="393" y="335"/>
      <point x="304" y="335" type="curve" smooth="yes"/>
      <point x="214" y="335"/>
      <point x="149" y="395"/>
      <point x="149" y="498" type="curve" smooth="yes"/>
    </contour>
    <contour>
      <point x="494" y="282" type="line"/>
      <point x="523" y="311" type="line"/>
      <point x="477" y="357" type="line"/>
      <point x="508" y="397"/>
      <point x="524" y="448"/>
      <point x="524" y="498" type="curve" smooth="yes"/>
      <point x="524" y="551"/>
      <point x="508" y="603"/>
      <point x="475" y="644" type="curve"/>
      <point x="523" y="692" type="line"/>
      <point x="494" y="721" type="line"/>
      <point x="446" y="673" type="line"/>
      <point x="411" y="703"/>
      <point x="363" y="721"/>
      <point x="303" y="721" type="curve" smooth="yes"/>
      <point x="243" y="721"/>
      <point x="195" y="703"/>
      <point x="160" y="674" type="curve"/>
      <point x="113" y="721" type="line"/>
      <point x="84" y="692" type="line"/>
      <point x="130" y="646" type="line"/>
      <point x="97" y="605"/>
      <point x="80" y="553"/>
      <point x="80" y="500" type="curve" smooth="yes"/>
      <point x="80" y="449"/>
      <point x="97" y="397"/>
      <point x="129" y="356" type="curve"/>
      <point x="84" y="311" type="line"/>
      <point x="113" y="282" type="line"/>
      <point x="158" y="327" type="line"/>
      <point x="195" y="298"/>
      <point x="243" y="279"/>
      <point x="304" y="279" type="curve" smooth="yes"/>
      <point x="365" y="279"/>
      <point x="413" y="298"/>
      <point x="448" y="328" type="curve"/>
    </contour>
  </outline>
</glyph>
<glyph name="brokenbar" format="1">
  <advance width="651"/>
  <unicode hex="00A6"/>
  <outline>
    <contour>
      <point x="416" y="1606" type="line"/>
      <point x="236" y="1606" type="line"/>
      <point x="236" y="911" type="line"/>
      <point x="416" y="911" type="line"/>
    </contour>
    <contour>
      <point x="416" y="449" type="line"/>
      <point x="236" y="449" type="line"/>
      <point x="236" y="-246" type="line"/>
      <point x="416" y="-246" type="line"/>
    </contour>
  </outline>
</glyph>
<glyph name="section" format="1">
  <advance width="505"/>
  <unicode hex="00A7"/>
  <outline>
    <contour>
      <point x="350" y="265" type="line"/>
      <point x="252" y="305"/>
      <point x="121" y="314"/>
      <point x="121" y="397" type="curve" smooth="yes"/>
      <point x="121" y="423"/>
      <point x="131" y="443"/>
      <point x="149" y="457" type="curve"/>
      <point x="247" y="417"/>
      <point x="378" y="408"/>
      <point x="378" y="325" type="curve" smooth="yes"/>
      <point x="378" y="301"/>
      <point x="369" y="282"/>
      <point x="354" y="268" type="curve"/>
    </contour>
    <contour>
      <point x="42" y="20"/>
      <point x="159" y="-4"/>
      <point x="250" y="-4" type="curve" smooth="yes"/>
      <point x="324" y="-4"/>
      <point x="455" y="23"/>
      <point x="455" y="137" type="curve" smooth="yes"/>
      <point x="455" y="175"/>
      <point x="441" y="203"/>
      <point x="418" y="224" type="curve"/>
      <point x="450" y="250"/>
      <point x="471" y="288"/>
      <point x="471" y="340" type="curve" smooth="yes"/>
      <point x="471" y="536"/>
      <point x="135" y="491"/>
      <point x="135" y="598" type="curve" smooth="yes"/>
      <point x="135" y="654"/>
      <point x="192" y="676"/>
      <point x="255" y="676" type="curve" smooth="yes"/>
      <point x="302" y="676"/>
      <point x="349" y="664"/>
      <point x="377" y="644" type="curve"/>
      <point x="344" y="641"/>
      <point x="325" y="621"/>
      <point x="325" y="587" type="curve" smooth="yes"/>
      <point x="325" y="548"/>
      <point x="359" y="530"/>
      <point x="394" y="530" type="curve" smooth="yes"/>
      <point x="426" y="530"/>
      <point x="457" y="559"/>
      <point x="457" y="603" type="curve" smooth="yes"/>
      <point x="457" y="702"/>
      <point x="340" y="726"/>
      <point x="249" y="726" type="curve" smooth="yes"/>
      <point x="175" y="726"/>
      <point x="44" y="699"/>
      <point x="44" y="585" type="curve" smooth="yes"/>
      <point x="44" y="547"/>
      <point x="58" y="519"/>
      <point x="81" y="498" type="curve"/>
      <point x="49" y="472"/>
      <point x="28" y="434"/>
      <point x="28" y="382" type="curve" smooth="yes"/>
      <point x="28" y="186"/>
      <point x="364" y="231"/>
      <point x="364" y="124" type="curve" smooth="yes"/>
      <point x="364" y="68"/>
      <point x="307" y="46"/>
      <point x="244" y="46" type="curve" smooth="yes"/>
      <point x="197" y="46"/>
      <point x="150" y="58"/>
      <point x="122" y="78" type="curve"/>
      <point x="155" y="81"/>
      <point x="174" y="101"/>
      <point x="174" y="135" type="curve" smooth="yes"/>
      <point x="174" y="174"/>
      <point x="140" y="192"/>
      <point x="105" y="192" type="curve" smooth="yes"/>
      <point x="73" y="192"/>
      <point x="42" y="163"/>
      <point x="42" y="119" type="curve" smooth="yes"/>
    </contour>
  </outline>
</glyph>
<glyph name="dieresis" format="1">
  <advance width="1056"/>
  <unicode hex="00A8"/>
  <outline>
    <contour>
      <point x="172" y="1317" type="curve" smooth="yes"/>
      <point x="172" y="1393"/>
      <point x="233" y="1456"/>
      <point x="309" y="1456" type="curve" smooth="yes"/>
      <point x="383" y="1456"/>
      <point x="446" y="1393"/>
      <point x="446" y="1317" type="curve" smooth="yes"/>
      <point x="446" y="1243"/>
      <point x="383" y="1180"/>
      <point x="309" y="1180" type="curve" smooth="yes"/>
      <point x="233" y="1180"/>
      <point x="172" y="1243"/>
    </contour>
    <contour>
      <point x="647" y="1317" type="curve" smooth="yes"/>
      <point x="647" y="1393"/>
      <point x="708" y="1456"/>
      <point x="784" y="1456" type="curve" smooth="yes"/>
      <point x="858" y="1456"/>
      <point x="924" y="1393"/>
      <point x="924" y="1317" type="curve" smooth="yes"/>
      <point x="924" y="1243"/>
      <point x="858" y="1180"/>
      <point x="784" y="1180" type="curve" smooth="yes"/>
      <point x="708" y="1180"/>
      <point x="647" y="1243"/>
    </contour>
    <contour>
      <point x="548" y="1073" type="move" name="_top"/>
    </contour>
  </outline>
</glyph>
<glyph name="copyright" format="1">
  <advance width="1703"/>
  <unicode hex="00A9"/>
  <outline>
    <contour>
      <point x="1245" y="602" type="curve"/>
      <point x="1167" y="641" type="line"/>
      <point x="1142" y="543"/>
      <point x="1044" y="430"/>
      <point x="903" y="430" type="curve"/>
      <point x="727" y="438"/>
      <point x="627" y="608"/>
      <point x="627" y="772" type="curve" smooth="yes"/>
      <point x="627" y="995"/>
      <point x="737" y="1126"/>
      <point x="891" y="1126" type="curve" smooth="yes"/>
      <point x="995" y="1126"/>
      <point x="1065" y="1077"/>
      <point x="1100" y="1024" type="curve"/>
      <point x="1061" y="1024"/>
      <point x="981" y="992"/>
      <point x="981" y="918" type="curve" smooth="yes"/>
      <point x="981" y="857"/>
      <point x="1033" y="815"/>
      <point x="1092" y="815" type="curve" smooth="yes"/>
      <point x="1172" y="815"/>
      <point x="1219" y="881"/>
      <point x="1219" y="934" type="curve" smooth="yes"/>
      <point x="1219" y="1104"/>
      <point x="1049" y="1208"/>
      <point x="893" y="1208" type="curve" smooth="yes"/>
      <point x="639" y="1208"/>
      <point x="465" y="1024"/>
      <point x="463" y="768" type="curve"/>
      <point x="463" y="524"/>
      <point x="643" y="328"/>
      <point x="883" y="326" type="curve"/>
      <point x="1053" y="326"/>
      <point x="1204" y="430"/>
    </contour>
    <contour>
      <point x="854" y="70" type="curve" smooth="yes"/>
      <point x="483" y="70"/>
      <point x="178" y="374"/>
      <point x="178" y="745" type="curve" smooth="yes"/>
      <point x="178" y="1118"/>
      <point x="483" y="1421"/>
      <point x="854" y="1421" type="curve" smooth="yes"/>
      <point x="1227" y="1421"/>
      <point x="1530" y="1118"/>
      <point x="1530" y="745" type="curve" smooth="yes"/>
      <point x="1530" y="374"/>
      <point x="1227" y="70"/>
    </contour>
    <contour>
      <point x="852" y="-27" type="curve" smooth="yes"/>
      <point x="1274" y="-27"/>
      <point x="1620" y="321"/>
      <point x="1620" y="743" type="curve" smooth="yes"/>
      <point x="1620" y="1163"/>
      <point x="1274" y="1509"/>
      <point x="852" y="1509" type="curve" smooth="yes"/>
      <point x="432" y="1509"/>
      <point x="84" y="1163"/>
      <point x="84" y="743" type="curve" smooth="yes"/>
      <point x="84" y="321"/>
      <point x="432" y="-27"/>
    </contour>
  </outline>
</glyph>
<glyph name="ordfeminine" format="1">
  <advance width="623"/>
  <unicode hex="00AA"/>
  <outline>
    <contour>
      <point x="522" y="262"/>
      <point x="574" y="289"/>
      <point x="574" y="404" type="curve" smooth="yes"/>
      <point x="574" y="457" type="line"/>
      <point x="528" y="457" type="line"/>
      <point x="528" y="395" type="line" smooth="yes"/>
      <point x="528" y="351"/>
      <point x="515" y="321"/>
      <point x="475" y="321" type="curve" smooth="yes"/>
      <point x="436" y="321"/>
      <point x="425" y="363"/>
      <point x="425" y="391" type="curve" smooth="yes"/>
      <point x="425" y="583" type="line" smooth="yes"/>
      <point x="425" y="695"/>
      <point x="351" y="732"/>
      <point x="263" y="732" type="curve" smooth="yes"/>
      <point x="142" y="732"/>
      <point x="85" y="657"/>
      <point x="85" y="614" type="curve" smooth="yes"/>
      <point x="85" y="567"/>
      <point x="118" y="546"/>
      <point x="147" y="546" type="curve" smooth="yes"/>
      <point x="178" y="546"/>
      <point x="206" y="569"/>
      <point x="206" y="605" type="curve" smooth="yes"/>
      <point x="206" y="630"/>
      <point x="185" y="654"/>
      <point x="147" y="654" type="curve"/>
      <point x="167" y="676"/>
      <point x="206" y="689"/>
      <point x="245" y="689" type="curve" smooth="yes"/>
      <point x="300" y="689"/>
      <point x="335" y="660"/>
      <point x="335" y="595" type="curve" smooth="yes"/>
      <point x="335" y="488"/>
      <point x="70" y="504"/>
      <point x="70" y="365" type="curve" smooth="yes"/>
      <point x="70" y="299"/>
      <point x="120" y="261"/>
      <point x="187" y="261" type="curve" smooth="yes"/>
      <point x="255" y="262"/>
      <point x="317" y="306"/>
      <point x="342" y="366" type="curve"/>
      <point x="348" y="295"/>
      <point x="403" y="261"/>
      <point x="457" y="261" type="curve" smooth="yes"/>
      <point x="457" y="261"/>
      <point x="458" y="261"/>
      <point x="459" y="261" type="curve" smooth="yes"/>
    </contour>
    <contour>
      <point x="175" y="322"/>
      <point x="160" y="342"/>
      <point x="160" y="369" type="curve" smooth="yes"/>
      <point x="160" y="441"/>
      <point x="251" y="434"/>
      <point x="335" y="516" type="curve"/>
      <point x="335" y="428" type="line" smooth="yes"/>
      <point x="335" y="381"/>
      <point x="266" y="322"/>
      <point x="209" y="322" type="curve" smooth="yes"/>
    </contour>
    <contour>
      <point x="314.0" y="524.0" type="move" name="top"/>
    </contour>
    <contour>
      <point x="572.0" y="10.0" type="move" name="ogonek"/>
    </contour>
  </outline>
</glyph>
<glyph name="guillemotleft" format="1">
  <advance width="956"/>
  <unicode hex="00AB"/>
  <outline>
    <contour>
      <point x="520" y="258" type="line"/>
      <point x="907" y="596" type="line"/>
      <point x="907" y="731" type="line"/>
      <point x="907" y="731"/>
      <point x="606" y="987"/>
      <point x="520" y="1061" type="curve"/>
      <point x="520" y="846" type="line"/>
      <point x="760" y="672" type="line"/>
      <point x="520" y="485" type="line"/>
    </contour>
    <contour>
      <point x="102" y="258" type="line"/>
      <point x="489" y="596" type="line"/>
      <point x="489" y="731" type="line"/>
      <point x="489" y="731"/>
      <point x="188" y="987"/>
      <point x="102" y="1061" type="curve"/>
      <point x="102" y="846" type="line"/>
      <point x="342" y="672" type="line"/>
      <point x="102" y="485" type="line"/>
    </contour>
  </outline>
</glyph>
<glyph name="logicalnot" format="1">
  <advance width="995"/>
  <unicode hex="00AC"/>
  <outline>
    <contour>
      <point x="725" y="289" type="line"/>
      <point x="895" y="289" type="line"/>
      <point x="895" y="797" type="line"/>
      <point x="61" y="797" type="line"/>
      <point x="61" y="649" type="line"/>
      <point x="725" y="649" type="line"/>
    </contour>
  </outline>
</glyph>
<glyph name="uni00AD" format="1">
  <advance width="778"/>
  <unicode hex="00AD"/>
  <outline>
    <contour>
      <point x="724" y="797" type="line"/>
      <point x="61" y="797" type="line"/>
      <point x="61" y="649" type="line"/>
      <point x="724" y="649" type="line"/>
    </contour>
  </outline>
</glyph>
<glyph name="registered" format="1">
  <advance width="1703"/>
  <unicode hex="00AE"/>
  <outline>
    <contour>
      <point x="717" y="813" type="line"/>
      <point x="717" y="1106" type="line"/>
      <point x="764" y="1106" type="line" smooth="yes"/>
      <point x="940" y="1106"/>
      <point x="1008" y="1075"/>
      <point x="1012" y="958" type="curve"/>
      <point x="1012" y="852"/>
      <point x="932" y="813"/>
      <point x="768" y="813" type="curve" smooth="yes"/>
    </contour>
    <contour>
      <point x="1122" y="328" type="curve" smooth="yes"/>
      <point x="1200" y="328"/>
      <point x="1313" y="358"/>
      <point x="1313" y="524" type="curve" smooth="yes"/>
      <point x="1313" y="608" type="line"/>
      <point x="1210" y="608" type="line"/>
      <point x="1210" y="537" type="line" smooth="yes"/>
      <point x="1210" y="453"/>
      <point x="1188" y="424"/>
      <point x="1147" y="424" type="curve" smooth="yes"/>
      <point x="1053" y="424"/>
      <point x="1155" y="717"/>
      <point x="944" y="762" type="curve"/>
      <point x="1063" y="785"/>
      <point x="1165" y="831"/>
      <point x="1167" y="958" type="curve"/>
      <point x="1167" y="1175"/>
      <point x="928" y="1186"/>
      <point x="764" y="1186" type="curve" smooth="yes"/>
      <point x="438" y="1186" type="line"/>
      <point x="438" y="1106" type="line"/>
      <point x="563" y="1106" type="line"/>
      <point x="563" y="422" type="line"/>
      <point x="438" y="422" type="line"/>
      <point x="438" y="344" type="line"/>
      <point x="819" y="344" type="line"/>
      <point x="819" y="422" type="line"/>
      <point x="717" y="422" type="line"/>
      <point x="717" y="745" type="line"/>
      <point x="819" y="745" type="line" smooth="yes"/>
      <point x="835" y="745"/>
      <point x="891" y="682"/>
      <point x="911" y="569" type="curve"/>
      <point x="938" y="405"/>
      <point x="981" y="328"/>
    </contour>
    <contour>
      <point x="854" y="70" type="curve" smooth="yes"/>
      <point x="483" y="70"/>
      <point x="178" y="374"/>
      <point x="178" y="745" type="curve" smooth="yes"/>
      <point x="178" y="1118"/>
      <point x="483" y="1421"/>
      <point x="854" y="1421" type="curve" smooth="yes"/>
      <point x="1227" y="1421"/>
      <point x="1530" y="1118"/>
      <point x="1530" y="745" type="curve" smooth="yes"/>
      <point x="1530" y="374"/>
      <point x="1227" y="70"/>
    </contour>
    <contour>
      <point x="852" y="-27" type="curve" smooth="yes"/>
      <point x="1274" y="-27"/>
      <point x="1620" y="321"/>
      <point x="1620" y="743" type="curve" smooth="yes"/>
      <point x="1620" y="1163"/>
      <point x="1274" y="1509"/>
      <point x="852" y="1509" type="curve" smooth="yes"/>
      <point x="432" y="1509"/>
      <point x="84" y="1163"/>
      <point x="84" y="743" type="curve" smooth="yes"/>
      <point x="84" y="321"/>
      <point x="432" y="-27"/>
    </contour>
  </outline>
</glyph>
<glyph name="macron" format="1">
  <advance width="831"/>
  <unicode hex="00AF"/>
  <outline>
    <contour>
      <point x="707" y="1341" type="line"/>
      <point x="707" y="1479" type="line"/>
      <point x="125" y="1479" type="line"/>
      <point x="125" y="1341" type="line"/>
    </contour>
    <contour>
      <point x="416" y="1073" type="move" name="_top"/>
    </contour>
  </outline>
</glyph>
<glyph name="degree" format="1">
  <advance width="370"/>
  <unicode hex="00B0"/>
  <outline>
    <contour>
      <point x="89" y="450"/>
      <point x="31" y="512"/>
      <point x="31" y="594" type="curve" smooth="yes"/>
      <point x="31" y="674"/>
      <point x="87" y="737"/>
      <point x="185" y="737" type="curve" smooth="yes"/>
      <point x="282" y="737"/>
      <point x="339" y="674"/>
      <point x="339" y="594" type="curve" smooth="yes"/>
      <point x="339" y="514"/>
      <point x="282" y="450"/>
      <point x="185" y="450" type="curve" smooth="yes"/>
    </contour>
    <contour>
      <point x="272" y="660"/>
      <point x="227" y="694"/>
      <point x="185" y="694" type="curve" smooth="yes"/>
      <point x="143" y="694"/>
      <point x="98" y="660"/>
      <point x="98" y="594" type="curve" smooth="yes"/>
      <point x="98" y="527"/>
      <point x="141" y="497"/>
      <point x="184" y="497" type="curve" smooth="yes"/>
      <point x="226" y="497"/>
      <point x="272" y="530"/>
      <point x="272" y="594" type="curve" smooth="yes"/>
    </contour>
  </outline>
</glyph>
<glyph name="plusminus" format="1">
  <advance width="956"/>
  <unicode hex="00B1"/>
  <outline>
    <contour>
      <point x="102" y="147" type="line"/>
      <point x="854" y="147" type="line"/>
      <point x="854" y="0" type="line"/>
      <point x="102" y="0" type="line"/>
    </contour>
    <contour>
      <point x="563" y="621" type="line"/>
      <point x="563" y="326" type="line"/>
      <point x="393" y="326" type="line"/>
      <point x="393" y="621" type="line"/>
      <point x="102" y="621" type="line"/>
      <point x="102" y="768" type="line"/>
      <point x="393" y="768" type="line"/>
      <point x="393" y="1053" type="line"/>
      <point x="563" y="1053" type="line"/>
      <point x="563" y="768" type="line"/>
      <point x="854" y="768" type="line"/>
      <point x="854" y="621" type="line"/>
    </contour>
  </outline>
</glyph>
<glyph name="uni00B3" format="1">
  <advance width="1878"/>
  <unicode hex="00B3"/>
  <outline>
    <contour>
      <point x="1157" y="352" type="line"/>
      <point x="1393" y="696" type="line"/>
      <point x="1393" y="352" type="line"/>
    </contour>
    <contour>
      <point x="1649" y="0" type="line"/>
      <point x="1649" y="86" type="line"/>
      <point x="1518" y="86" type="line"/>
      <point x="1518" y="268" type="line"/>
      <point x="1649" y="268" type="line"/>
      <point x="1649" y="352" type="line"/>
      <point x="1518" y="352" type="line"/>
      <point x="1518" y="805" type="line"/>
      <point x="1360" y="805" type="line"/>
      <point x="1044" y="360" type="line"/>
      <point x="1044" y="268" type="line"/>
      <point x="1393" y="268" type="line"/>
      <point x="1393" y="86" type="line"/>
      <point x="1247" y="86" type="line"/>
      <point x="1247" y="0" type="line"/>
    </contour>
    <contour>
      <point x="453" y="729" type="line" smooth="yes"/>
      <point x="664" y="735"/>
      <point x="801" y="848"/>
      <point x="801" y="995" type="curve" smooth="yes"/>
      <point x="801" y="1101"/>
      <point x="727" y="1206"/>
      <point x="563" y="1206" type="curve" smooth="yes"/>
      <point x="549" y="1206" type="line"/>
      <point x="668" y="1229"/>
      <point x="735" y="1305"/>
      <point x="735" y="1389" type="curve"/>
      <point x="733" y="1483"/>
      <point x="659" y="1583"/>
      <point x="481" y="1583" type="curve" smooth="yes"/>
      <point x="327" y="1583"/>
      <point x="209" y="1480"/>
      <point x="209" y="1384" type="curve" smooth="yes"/>
      <point x="209" y="1374" type="line" smooth="yes"/>
      <point x="213" y="1331"/>
      <point x="241" y="1280"/>
      <point x="307" y="1280" type="curve" smooth="yes"/>
      <point x="360" y="1280"/>
      <point x="403" y="1319"/>
      <point x="403" y="1370" type="curve" smooth="yes"/>
      <point x="403" y="1429"/>
      <point x="357" y="1450"/>
      <point x="322" y="1456" type="curve"/>
      <point x="367" y="1497"/>
      <point x="420" y="1516"/>
      <point x="467" y="1516" type="curve" smooth="yes"/>
      <point x="549" y="1516"/>
      <point x="616" y="1464"/>
      <point x="616" y="1380" type="curve" smooth="yes"/>
      <point x="616" y="1296"/>
      <point x="551" y="1237"/>
      <point x="418" y="1217" type="curve"/>
      <point x="432" y="1141" type="line"/>
      <point x="455" y="1145"/>
      <point x="476" y="1147"/>
      <point x="494" y="1147" type="curve" smooth="yes"/>
      <point x="504" y="1147" type="line" smooth="yes"/>
      <point x="631" y="1139"/>
      <point x="653" y="1067"/>
      <point x="653" y="995" type="curve" smooth="yes"/>
      <point x="653" y="991" type="line" smooth="yes"/>
      <point x="653" y="891"/>
      <point x="571" y="803"/>
      <point x="442" y="803" type="curve" smooth="yes"/>
      <point x="424" y="803"/>
      <point x="404" y="805"/>
      <point x="381" y="809" type="curve"/>
      <point x="391" y="823"/>
      <point x="397" y="846"/>
      <point x="397" y="866" type="curve" smooth="yes"/>
      <point x="397" y="907"/>
      <point x="364" y="944"/>
      <point x="311" y="944" type="curve" smooth="yes"/>
      <point x="250" y="944"/>
      <point x="225" y="905"/>
      <point x="225" y="856" type="curve"/>
      <point x="229" y="774"/>
      <point x="327" y="729"/>
      <point x="440" y="729" type="curve" smooth="yes"/>
    </contour>
    <contour>
      <point x="344" y="-2" type="line"/>
      <point x="444" y="-61" type="line"/>
      <point x="1509" y="1419" type="line"/>
      <point x="1409" y="1479" type="line"/>
    </contour>
  </outline>
</glyph>
<glyph name="acute" format="1">
  <advance width="620"/>
  <unicode hex="00b4"/>
  <outline>
    <contour>
      <point x="484" y="698" type="line" smooth="no"/>
      <point x="435" y="648"/>
      <point x="212" y="576"/>
      <point x="212" y="576" type="curve" smooth="no"/>
      <point x="187" y="611" type="line" smooth="no"/>
      <point x="276" y="687"/>
      <point x="419" y="788"/>
      <point x="419" y="788" type="curve" smooth="no"/>
    </contour>
  </outline>
</glyph>
<glyph name="paragraph" format="1">
  <advance width="1210"/>
  <unicode hex="00B6"/>
  <outline>
    <contour>
      <point x="797" y="735" type="line"/>
      <point x="942" y="735" type="line"/>
      <point x="942" y="-57" type="line"/>
      <point x="1106" y="-57" type="line"/>
      <point x="1106" y="1479" type="line"/>
      <point x="555" y="1479" type="line" smooth="yes"/>
      <point x="285" y="1479"/>
      <point x="147" y="1292"/>
      <point x="147" y="1106" type="curve" smooth="yes"/>
      <point x="147" y="920"/>
      <point x="284" y="735"/>
      <point x="565" y="735" type="curve" smooth="yes"/>
      <point x="627" y="735" type="line"/>
      <point x="627" y="-57" type="line"/>
      <point x="797" y="-57" type="line"/>
    </contour>
  </outline>
</glyph>
<glyph name="periodcentered" format="1">
  <advance width="327"/>
  <unicode hex="00B7"/>
  <outline>
    <contour>
      <point x="91" y="451" type="curve" smooth="yes"/>
      <point x="91" y="491"/>
      <point x="123" y="524"/>
      <point x="163" y="524" type="curve" smooth="yes"/>
      <point x="202" y="524"/>
      <point x="236" y="491"/>
      <point x="236" y="451" type="curve" smooth="yes"/>
      <point x="236" y="412"/>
      <point x="202" y="379"/>
      <point x="163" y="379" type="curve" smooth="yes"/>
      <point x="123" y="379"/>
      <point x="91" y="412"/>
    </contour>
  </outline>
</glyph>
<glyph name="cedilla" format="1">
  <advance width="165"/>
  <unicode hex="00B8"/>
  <outline>
    <contour>
      <point x="150" y="-135" type="line" smooth="yes"/>
      <point x="150" y="-198"/>
      <point x="18" y="-217"/>
      <point x="18" y="-217" type="curve"/>
      <point x="4" y="-182" type="line"/>
      <point x="36" y="-176"/>
      <point x="75" y="-164"/>
      <point x="75" y="-150" type="curve" smooth="yes"/>
      <point x="75" y="-129"/>
      <point x="29" y="-105.737"/>
      <point x="29" y="-82" type="curve" smooth="yes"/>
      <point x="29" y="-47"/>
      <point x="72" y="0"/>
      <point x="131" y="0" type="curve" smooth="yes"/>
      <point x="150" y="0" type="line"/>
    </contour>
    <contour>
      <point x="77" y="0" type="move" name="_bottom"/>
    </contour>
  </outline>
</glyph>
<glyph name="uni00B9" format="1">
  <advance width="1878"/>
  <unicode hex="00B9"/>
  <outline>
    <contour>
      <point x="1409" y="1479" type="line"/>
      <point x="1509" y="1419" type="line"/>
      <point x="444" y="-61" type="line"/>
      <point x="344" y="-2" type="line"/>
    </contour>
    <contour>
      <point x="260" y="750" type="line"/>
      <point x="664" y="750" type="line"/>
      <point x="664" y="836" type="line"/>
      <point x="539" y="836" type="line"/>
      <point x="539" y="1561" type="line"/>
      <point x="260" y="1483" type="line"/>
      <point x="260" y="1376" type="line"/>
      <point x="393" y="1411" type="line"/>
      <point x="393" y="836" type="line"/>
      <point x="260" y="836" type="line"/>
    </contour>
    <contour>
      <point x="1649" y="86" type="line"/>
      <point x="1518" y="86" type="line"/>
      <point x="1518" y="268" type="line"/>
      <point x="1649" y="268" type="line"/>
      <point x="1649" y="352" type="line"/>
      <point x="1518" y="352" type="line"/>
      <point x="1518" y="805" type="line"/>
      <point x="1360" y="805" type="line"/>
      <point x="1044" y="360" type="line"/>
      <point x="1044" y="268" type="line"/>
      <point x="1393" y="268" type="line"/>
      <point x="1393" y="86" type="line"/>
      <point x="1247" y="86" type="line"/>
      <point x="1247" y="0" type="line"/>
      <point x="1649" y="0" type="line"/>
    </contour>
    <contour>
      <point x="1393" y="352" type="line"/>
      <point x="1157" y="352" type="line"/>
      <point x="1393" y="696" type="line"/>
    </contour>
  </outline>
</glyph>
<glyph name="ordmasculine" format="1">
  <advance width="1189"/>
  <unicode hex="00BA"/>
  <outline>
    <contour>
      <point x="598" y="1397" type="curve" smooth="yes"/>
      <point x="424" y="1397"/>
      <point x="348" y="1227"/>
      <point x="348" y="1006" type="curve" smooth="yes"/>
      <point x="348" y="789"/>
      <point x="442" y="643"/>
      <point x="600" y="643" type="curve" smooth="yes"/>
      <point x="756" y="643"/>
      <point x="846" y="793"/>
      <point x="846" y="1006" type="curve" smooth="yes"/>
      <point x="846" y="1227"/>
      <point x="774" y="1397"/>
    </contour>
    <contour>
      <point x="600" y="535" type="curve" smooth="yes"/>
      <point x="319" y="535"/>
      <point x="152" y="744"/>
      <point x="152" y="1016" type="curve" smooth="yes"/>
      <point x="152" y="1288"/>
      <point x="317" y="1499"/>
      <point x="598" y="1499" type="curve" smooth="yes"/>
      <point x="879" y="1499"/>
      <point x="1042" y="1288"/>
      <point x="1042" y="1016" type="curve" smooth="yes"/>
      <point x="1042" y="746"/>
      <point x="879" y="535"/>
    </contour>
  </outline>
</glyph>
<glyph name="guillemotright" format="1">
  <advance width="467"/>
  <unicode hex="00BB"/>
  <outline>
    <contour>
      <point x="50" y="126" type="line"/>
      <point x="239" y="291" type="line"/>
      <point x="239" y="357" type="line"/>
      <point x="239" y="357"/>
      <point x="92" y="482"/>
      <point x="50" y="518" type="curve"/>
      <point x="50" y="413" type="line"/>
      <point x="167" y="328" type="line"/>
      <point x="50" y="237" type="line"/>
    </contour>
    <contour>
      <point x="254" y="126" type="line"/>
      <point x="443" y="291" type="line"/>
      <point x="443" y="357" type="line"/>
      <point x="443" y="357"/>
      <point x="296" y="482"/>
      <point x="254" y="518" type="curve"/>
      <point x="254" y="413" type="line"/>
      <point x="371" y="328" type="line"/>
      <point x="254" y="237" type="line"/>
    </contour>
  </outline>
</glyph>
<glyph name="onequarter" format="1">
  <advance width="917"/>
  <unicode hex="00BC"/>
  <outline>
    <contour>
      <point x="680" y="172" type="line"/>
      <point x="565" y="172" type="line"/>
      <point x="680" y="340" type="line"/>
    </contour>
    <contour>
      <point x="805" y="42" type="line"/>
      <point x="741" y="42" type="line"/>
      <point x="741" y="131" type="line"/>
      <point x="805" y="131" type="line"/>
      <point x="805" y="172" type="line"/>
      <point x="741" y="172" type="line"/>
      <point x="741" y="393" type="line"/>
      <point x="664" y="393" type="line"/>
      <point x="510" y="176" type="line"/>
      <point x="510" y="131" type="line"/>
      <point x="680" y="131" type="line"/>
      <point x="680" y="42" type="line"/>
      <point x="609" y="42" type="line"/>
      <point x="609" y="0" type="line"/>
      <point x="805" y="0" type="line"/>
    </contour>
    <contour>
      <point x="127" y="366" type="line"/>
      <point x="324" y="366" type="line"/>
      <point x="324" y="408" type="line"/>
      <point x="263" y="408" type="line"/>
      <point x="263" y="762" type="line"/>
      <point x="127" y="724" type="line"/>
      <point x="127" y="672" type="line"/>
      <point x="192" y="689" type="line"/>
      <point x="192" y="408" type="line"/>
      <point x="127" y="408" type="line"/>
    </contour>
    <contour>
      <point x="688" y="722" type="line"/>
      <point x="737" y="693" type="line"/>
      <point x="217" y="-30" type="line"/>
      <point x="168" y="-1" type="line"/>
    </contour>
    <contour>
      <point x="552.0" y="10.0" type="move" name="ogonek"/>
    </contour>
    <contour>
      <point x="382.0" y="722.0" type="move" name="top"/>
    </contour>
    <contour>
      <point x="378.0" y="10.0" type="move" name="ogonek"/>
    </contour>
    <contour>
      <point x="208.0" y="722.0" type="move" name="top"/>
    </contour>
    <contour>
      <point x="235.0" y="529.0" type="move" name="top"/>
    </contour>
  </outline>
</glyph>
<glyph name="onehalf" format="1">
  <advance width="917"/>
  <unicode hex="00BD"/>
  <outline>
    <contour>
      <point x="680.0" y="172.0" type="line"/>
      <point x="565.0" y="172.0" type="line"/>
      <point x="680.0" y="340.0" type="line"/>
    </contour>
    <contour>
      <point x="805.0" y="42.0" type="line"/>
      <point x="741.0" y="42.0" type="line"/>
      <point x="741.0" y="131.0" type="line"/>
      <point x="805.0" y="131.0" type="line"/>
      <point x="805.0" y="172.0" type="line"/>
      <point x="741.0" y="172.0" type="line"/>
      <point x="741.0" y="393.0" type="line"/>
      <point x="664.0" y="393.0" type="line"/>
      <point x="510.0" y="176.0" type="line"/>
      <point x="510.0" y="131.0" type="line"/>
      <point x="680.0" y="131.0" type="line"/>
      <point x="680.0" y="42.0" type="line"/>
      <point x="609.0" y="42.0" type="line"/>
      <point x="609.0" y="0.0" type="line"/>
      <point x="805.0" y="0.0" type="line"/>
    </contour>
    <contour>
      <point x="127.0" y="366.0" type="line"/>
      <point x="324.0" y="366.0" type="line"/>
      <point x="324.0" y="408.0" type="line"/>
      <point x="263.0" y="408.0" type="line"/>
      <point x="263.0" y="762.0" type="line"/>
      <point x="127.0" y="724.0" type="line"/>
      <point x="127.0" y="672.0" type="line"/>
      <point x="192.0" y="689.0" type="line"/>
      <point x="192.0" y="408.0" type="line"/>
      <point x="127.0" y="408.0" type="line"/>
    </contour>
    <contour>
      <point x="688.0" y="722.0" type="line"/>
      <point x="737.0" y="693.0" type="line"/>
      <point x="217.0" y="-30.0" type="line"/>
      <point x="168.0" y="-1.0" type="line"/>
    </contour>
    <contour>
      <point x="552.0" y="10.0" type="move" name="ogonek"/>
    </contour>
    <contour>
      <point x="382.0" y="722.0" type="move" name="top"/>
    </contour>
    <contour>
      <point x="378.0" y="10.0" type="move" name="ogonek"/>
    </contour>
    <contour>
      <point x="208.0" y="722.0" type="move" name="top"/>
    </contour>
    <contour>
      <point x="235.0" y="529.0" type="move" name="top"/>
    </contour>
  </outline>
</glyph>
<glyph name="AE" format="1">
  <advance width="1078"/>
  <unicode hex="00C6"/>
  <outline>
    <contour>
      <point x="326" y="308" type="line"/>
      <point x="326" y="308"/>
      <point x="517.0" y="652.0"/>
      <point x="517" y="652" type="curve"/>
      <point x="517" y="308" type="line"/>
    </contour>
    <contour>
      <point x="302" y="67" type="line"/>
      <point x="196" y="67" type="line"/>
      <point x="292" y="246" type="line"/>
      <point x="517" y="246" type="line"/>
      <point x="517" y="67" type="line"/>
      <point x="427" y="67" type="line"/>
      <point x="427" y="0" type="line"/>
      <point x="1021" y="0" type="line"/>
      <point x="1021" y="279" type="line"/>
      <point x="933" y="279" type="line"/>
      <point x="933" y="67" type="line"/>
      <point x="632" y="67" type="line"/>
      <point x="632" y="341" type="line"/>
      <point x="774" y="341" type="line"/>
      <point x="774" y="207" type="line"/>
      <point x="839" y="207" type="line"/>
      <point x="839" y="507" type="line"/>
      <point x="774" y="507" type="line"/>
      <point x="774" y="397" type="line"/>
      <point x="632" y="397" type="line"/>
      <point x="632" y="652" type="line"/>
      <point x="933" y="652" type="line"/>
      <point x="933" y="439" type="line"/>
      <point x="1021" y="439" type="line"/>
      <point x="1021" y="722" type="line"/>
      <point x="297" y="722" type="line"/>
      <point x="297" y="652" type="line"/>
      <point x="427" y="652" type="line"/>
      <point x="88" y="67" type="line"/>
      <point x="0" y="67" type="line"/>
      <point x="0" y="0" type="line"/>
      <point x="302" y="0" type="line"/>
    </contour>
    <contour>
      <point x="825.0" y="10.0" type="move" name="ogonek"/>
    </contour>
    <contour>
      <point x="514.0" y="0.0" type="move" name="bottom"/>
    </contour>
    <contour>
      <point x="514.0" y="722.0" type="move" name="top"/>
    </contour>
    <contour>
      <point x="535.0" y="722.0" type="move" name="top"/>
    </contour>
    <contour>
      <point x="859.0" y="10.0" type="move" name="ogonek"/>
    </contour>
  </outline>
</glyph>
<glyph name="AE" format="1">
  <advance width="1190"/>
  <unicode hex="00c6"/>
  <outline>
    <contour>
      <point x="325.072" y="323" type="curve" smooth="yes"/>
      <point x="325.072" y="251"/>
      <point x="440.072" y="292"/>
      <point x="440.072" y="202" type="curve" smooth="no"/>
      <point x="30.0723" y="202" type="line" smooth="yes"/>
      <point x="13.0723" y="202"/>
      <point x="15.0723" y="229"/>
      <point x="15.0723" y="236" type="curve" smooth="yes"/>
      <point x="15.0723" y="247"/>
      <point x="12.7573" y="266.901"/>
      <point x="30.0723" y="269" type="curve" smooth="yes"/>
      <point x="111.757" y="278.901"/>
      <point x="187.072" y="305"/>
      <point x="232.072" y="377" type="curve" smooth="yes"/>
      <point x="474.072" y="768" type="line" smooth="no"/>
      <point x="474.072" y="768"/>
      <point x="475.072" y="781"/>
      <point x="475.072" y="786" type="curve" smooth="yes"/>
      <point x="475.072" y="792"/>
      <point x="476.072" y="828"/>
      <point x="461.072" y="828" type="curve" smooth="yes"/>
      <point x="312.072" y="828" type="line" smooth="yes"/>
      <point x="294.427" y="828"/>
      <point x="294.072" y="898.844"/>
      <point x="294.072" y="918" type="curve" smooth="no"/>
      <point x="572.072" y="918"/>
      <point x="914.072" y="910"/>
      <point x="1174.07" y="902" type="curve" smooth="no"/>
      <point x="1174.07" y="899"/>
      <point x="1175.07" y="885"/>
      <point x="1175.07" y="882" type="curve" smooth="yes"/>
      <point x="1175.07" y="877"/>
      <point x="1174.07" y="863"/>
      <point x="1174.07" y="862" type="curve" smooth="yes"/>
      <point x="1173.05" y="825.042"/>
      <point x="1174.5" y="605"/>
      <point x="1141.07" y="605" type="curve" smooth="yes"/>
      <point x="1107.07" y="605"/>
      <point x="1095.07" y="773"/>
      <point x="1013.07" y="808" type="curve" smooth="yes"/>
      <point x="944.072" y="837"/>
      <point x="845.072" y="816"/>
      <point x="784.072" y="816" type="curve" smooth="no"/>
      <point x="784.072" y="597" type="line" smooth="no"/>
      <point x="956.072" y="597"/>
      <point x="911.072" y="718"/>
      <point x="986.072" y="718" type="curve" smooth="no"/>
      <point x="986.072" y="377" type="line" smooth="no"/>
      <point x="945.072" y="377" type="line" smooth="no"/>
      <point x="934.072" y="459"/>
      <point x="889.072" y="513"/>
      <point x="806.072" y="513" type="curve" smooth="yes"/>
      <point x="756.072" y="513"/>
      <point x="769.072" y="439"/>
      <point x="769.072" y="404" type="curve" smooth="yes"/>
      <point x="769.072" y="290"/>
      <point x="792.072" y="268"/>
      <point x="905.072" y="268" type="curve" smooth="yes"/>
      <point x="1054.07" y="268"/>
      <point x="1098.07" y="342"/>
      <point x="1134.07" y="485" type="curve" smooth="no"/>
      <point x="1174.07" y="485" type="line" smooth="no"/>
      <point x="1174.07" y="202" type="line" smooth="no"/>
      <point x="1161.07" y="189" type="line" smooth="no"/>
      <point x="1158.07" y="188"/>
      <point x="1076.07" y="187"/>
      <point x="1045.07" y="187" type="curve" smooth="yes"/>
      <point x="842.072" y="187"/>
      <point x="692.072" y="191"/>
      <point x="474.072" y="202" type="curve" smooth="no"/>
      <point x="474.072" y="256" type="line" smooth="no"/>
      <point x="622.072" y="286" type="line" smooth="no"/>
      <point x="622.072" y="512" type="line" smooth="no"/>
      <point x="434.072" y="498" type="line" smooth="no"/>
      <point x="408.169" y="498"/>
      <point x="338.776" y="361.252"/>
      <point x="326.072" y="337" type="curve" smooth="yes"/>
      <point x="326.072" y="335"/>
      <point x="325.072" y="325"/>
    </contour>
    <contour>
      <point x="488.072" y="606" type="curve" smooth="yes"/>
      <point x="488.072" y="593" type="line" smooth="no"/>
      <point x="622.072" y="593" type="line" smooth="no"/>
      <point x="622.072" y="808" type="line" smooth="no"/>
      <point x="581.558" y="783.692"/>
      <point x="488.072" y="608.363"/>
    </contour>
  </outline>
</glyph>
<glyph name="Eth" format="1">
  <advance width="788"/>
  <unicode hex="00D0"/>
  <outline>
    <contour>
      <point x="373" y="337" type="line"/>
      <point x="373" y="407" type="line"/>
      <point x="27" y="407" type="line"/>
      <point x="27" y="337" type="line"/>
    </contour>
    <component base="D"/>
    <contour>
      <point x="208.0" y="722.0" type="move" name="top"/>
    </contour>
    <contour>
      <point x="378.0" y="10.0" type="move" name="ogonek"/>
    </contour>
  </outline>
</glyph>
<glyph name="multiply" format="1">
  <advance width="467"/>
  <unicode hex="00D7"/>
  <outline>
    <contour>
      <point x="361" y="96" type="line"/>
      <point x="53" y="405" type="line"/>
      <point x="102" y="455" type="line"/>
      <point x="102" y="455"/>
      <point x="411" y="147"/>
      <point x="411" y="147" type="curve"/>
    </contour>
    <contour>
      <point x="53" y="146" type="line"/>
      <point x="361" y="454" type="line"/>
      <point x="411" y="405" type="line"/>
      <point x="411" y="405"/>
      <point x="103" y="97"/>
      <point x="103" y="97" type="curve"/>
    </contour>
  </outline>
</glyph>
<glyph name="Oslash" format="1">
  <advance width="1589"/>
  <unicode hex="00D8"/>
  <outline>
    <contour>
      <point x="1432" y="1536" type="line"/>
      <point x="1497" y="1483" type="line"/>
      <point x="166" y="-90" type="line"/>
      <point x="100" y="-37" type="line"/>
    </contour>
    <component base="O"/>
    <contour>
      <point x="795" y="1505" type="move" name="top"/>
    </contour>
  </outline>
</glyph>
<glyph name="Thorn" format="1">
  <advance width="1382"/>
  <unicode hex="00DE"/>
  <outline>
    <contour>
      <point x="1110" y="766" type="curve" smooth="yes"/>
      <point x="1110" y="535"/>
      <point x="901" y="506"/>
      <point x="688" y="506" type="curve" smooth="yes"/>
      <point x="549" y="506" type="line"/>
      <point x="549" y="1026" type="line"/>
      <point x="616" y="1026" type="line"/>
      <point x="884" y="1024"/>
      <point x="1110" y="1038"/>
    </contour>
    <contour>
      <point x="799" y="0" type="line"/>
      <point x="799" y="137" type="line"/>
      <point x="549" y="137" type="line"/>
      <point x="549" y="377" type="line"/>
      <point x="629" y="377" type="line" smooth="yes"/>
      <point x="971" y="377"/>
      <point x="1352" y="381"/>
      <point x="1352" y="774" type="curve" smooth="yes"/>
      <point x="1352" y="1165"/>
      <point x="924" y="1169"/>
      <point x="684" y="1169" type="curve" smooth="yes"/>
      <point x="549" y="1169" type="line"/>
      <point x="549" y="1335" type="line"/>
      <point x="778" y="1335" type="line"/>
      <point x="778" y="1479" type="line"/>
      <point x="70" y="1479" type="line"/>
      <point x="70" y="1335" type="line"/>
      <point x="313" y="1335" type="line"/>
      <point x="313" y="137" type="line"/>
      <point x="70" y="137" type="line"/>
      <point x="70" y="0" type="line"/>
    </contour>
  </outline>
</glyph>
<glyph name="germandbls" format="1">
  <advance width="642.0"/>
  <unicode hex="00DF"/>
  <outline>
    <contour>
      <point x="210.0" y="479.0" type="line"/>
      <point x="210.0" y="592.0"/>
      <point x="248.0" y="661"/>
      <point x="332.0" y="661" type="curve" smooth="yes"/>
      <point x="394.0" y="661"/>
      <point x="435.0" y="625"/>
      <point x="435.0" y="561" type="curve" smooth="yes"/>
      <point x="435.0" y="480"/>
      <point x="310.0" y="454"/>
      <point x="306.0" y="376" type="curve" smooth="yes"/>
      <point x="306.0" y="375"/>
      <point x="306.0" y="375"/>
      <point x="306.0" y="374" type="curve" smooth="yes"/>
      <point x="306.0" y="296"/>
      <point x="498.0" y="299"/>
      <point x="501.0" y="173" type="curve" smooth="yes"/>
      <point x="501.0" y="172"/>
      <point x="501.0" y="171"/>
      <point x="501.0" y="170" type="curve" smooth="yes"/>
      <point x="501.0" y="95"/>
      <point x="433.0" y="58"/>
      <point x="274.0" y="58" type="curve" smooth="yes"/>
      <point x="274.0" y="0" type="line" smooth="yes"/>
      <point x="395.0" y="0"/>
      <point x="606.0" y="12"/>
      <point x="606.0" y="171" type="curve" smooth="yes"/>
      <point x="606.0" y="323"/>
      <point x="400.0" y="347"/>
      <point x="400.0" y="376" type="curve"/>
      <point x="400.0" y="395"/>
      <point x="525.0" y="436"/>
      <point x="525.0" y="552" type="curve" smooth="yes"/>
      <point x="525.0" y="675"/>
      <point x="442.0" y="727"/>
      <point x="328.0" y="727" type="curve" smooth="yes"/>
      <point x="186.0" y="727"/>
      <point x="105.0" y="643.0"/>
      <point x="105.0" y="479.0" type="curve"/>
      <point x="105.0" y="58.0" type="line"/>
      <point x="33.0" y="58.0" type="line"/>
      <point x="33.0" y="0.0" type="line"/>
      <point x="210.0" y="0.0" type="line"/>
    </contour>
  </outline>
</glyph>
<glyph name="ae" format="1">
  <advance width="875"/>
  <unicode hex="00E6"/>
  <outline>
    <contour>
      <point x="721" y="-14"/>
      <point x="801" y="57"/>
      <point x="826" y="163" type="curve"/>
      <point x="769" y="181" type="line"/>
      <point x="747" y="100"/>
      <point x="679" y="60"/>
      <point x="616" y="60" type="curve" smooth="yes"/>
      <point x="508" y="60"/>
      <point x="475" y="154"/>
      <point x="475" y="262" type="curve" smooth="yes"/>
      <point x="475" y="266" type="line"/>
      <point x="561" y="280" type="line" smooth="yes"/>
      <point x="702" y="303"/>
      <point x="791" y="329"/>
      <point x="791" y="392" type="curve" smooth="yes"/>
      <point x="791" y="463"/>
      <point x="718" y="539"/>
      <point x="613" y="539" type="curve" smooth="yes"/>
      <point x="610" y="539"/>
      <point x="608" y="539"/>
      <point x="605" y="539" type="curve" smooth="yes"/>
      <point x="534" y="536"/>
      <point x="481" y="511"/>
      <point x="440" y="446" type="curve"/>
      <point x="405" y="520"/>
      <point x="330" y="538"/>
      <point x="261" y="538" type="curve" smooth="yes"/>
      <point x="157" y="538"/>
      <point x="66" y="480"/>
      <point x="66" y="407" type="curve" smooth="yes"/>
      <point x="66" y="346"/>
      <point x="102" y="320"/>
      <point x="138" y="320" type="curve" smooth="yes"/>
      <point x="174" y="320"/>
      <point x="211" y="347"/>
      <point x="211" y="389" type="curve" smooth="yes"/>
      <point x="211" y="418"/>
      <point x="185" y="446"/>
      <point x="141" y="446" type="curve"/>
      <point x="164" y="472"/>
      <point x="207" y="487"/>
      <point x="252" y="487" type="curve" smooth="yes"/>
      <point x="316" y="487"/>
      <point x="363" y="453"/>
      <point x="363" y="377" type="curve" smooth="yes"/>
      <point x="363" y="358"/>
      <point x="363" y="304"/>
      <point x="363" y="304" type="curve"/>
      <point x="245" y="274"/>
      <point x="49" y="247"/>
      <point x="49" y="107" type="curve" smooth="yes"/>
      <point x="49" y="30"/>
      <point x="101" y="-14"/>
      <point x="179" y="-14" type="curve" smooth="yes"/>
      <point x="237" y="-13"/>
      <point x="343" y="9"/>
      <point x="411" y="118" type="curve"/>
      <point x="445" y="31"/>
      <point x="500" y="-14"/>
      <point x="603" y="-14" type="curve" smooth="yes"/>
    </contour>
    <contour>
      <point x="478" y="319" type="line"/>
      <point x="486" y="415"/>
      <point x="537" y="479"/>
      <point x="608" y="481" type="curve" smooth="yes"/>
      <point x="609" y="481"/>
      <point x="609" y="481"/>
      <point x="610" y="481" type="curve" smooth="yes"/>
      <point x="661" y="481"/>
      <point x="712" y="433"/>
      <point x="712" y="389" type="curve" smooth="yes"/>
      <point x="712" y="354"/>
      <point x="647" y="349"/>
      <point x="554" y="333" type="curve" smooth="yes"/>
    </contour>
    <contour>
      <point x="207" y="57"/>
      <point x="205" y="57"/>
      <point x="202" y="57" type="curve" smooth="yes"/>
      <point x="167" y="57"/>
      <point x="147" y="82"/>
      <point x="143" y="111" type="curve" smooth="yes"/>
      <point x="135" y="174"/>
      <point x="204" y="219"/>
      <point x="363" y="256" type="curve"/>
      <point x="363" y="256"/>
      <point x="363" y="222"/>
      <point x="365" y="210" type="curve" smooth="yes"/>
      <point x="371" y="181"/>
      <point x="341" y="71"/>
      <point x="210" y="57" type="curve" smooth="yes"/>
    </contour>
    <contour>
      <point x="281" y="524" type="move" name="top"/>
    </contour>
    <contour>
      <point x="281" y="0" type="move" name="bottom"/>
    </contour>
    <contour>
      <point x="506" y="10" type="move" name="ogonek"/>
    </contour>
    <contour>
      <point x="323" y="524" type="move" name="top"/>
    </contour>
    <contour>
      <point x="581" y="10" type="move" name="ogonek"/>
    </contour>
  </outline>
</glyph>
<glyph name="eth" format="1">
  <advance width="608"/>
  <unicode hex="00F0"/>
  <outline>
    <contour>
      <point x="419" y="391"/>
      <point x="369" y="429"/>
      <point x="304" y="429" type="curve"/>
      <point x="226" y="425"/>
      <point x="172" y="339"/>
      <point x="172" y="239" type="curve" smooth="yes"/>
      <point x="172" y="137"/>
      <point x="211" y="51"/>
      <point x="307" y="51" type="curve" smooth="yes"/>
      <point x="406" y="51"/>
      <point x="446" y="133"/>
      <point x="446" y="292" type="curve" smooth="yes"/>
      <point x="446" y="311"/>
      <point x="446" y="331"/>
      <point x="444" y="352" type="curve"/>
    </contour>
    <contour>
      <point x="120" y="730" type="line"/>
      <point x="155" y="738"/>
      <point x="189" y="742"/>
      <point x="220" y="742" type="curve" smooth="yes"/>
      <point x="437" y="742"/>
      <point x="555" y="555"/>
      <point x="555" y="316" type="curve" smooth="yes"/>
      <point x="555" y="72"/>
      <point x="444" y="-10"/>
      <point x="304" y="-10" type="curve"/>
      <point x="126" y="-10"/>
      <point x="60" y="126"/>
      <point x="60" y="245" type="curve" smooth="yes"/>
      <point x="60.0" y="370.925190973"/>
      <point x="138.593548651" y="496.0"/>
      <point x="299" y="496" type="curve" smooth="yes"/>
      <point x="382" y="496"/>
      <point x="414" y="454"/>
      <point x="435" y="438" type="curve"/>
      <point x="435" y="438"/>
      <point x="397" y="682"/>
      <point x="184" y="682" type="curve" smooth="yes"/>
      <point x="167" y="682"/>
      <point x="149" y="680"/>
      <point x="130" y="677" type="curve"/>
    </contour>
    <contour>
      <point x="250" y="585" type="line"/>
      <point x="550" y="726" type="line"/>
      <point x="567" y="685" type="line"/>
      <point x="267" y="544" type="line"/>
    </contour>
  </outline>
</glyph>
<glyph name="divide" format="1">
  <advance width="446"/>
  <unicode hex="00F7"/>
  <outline>
    <contour>
      <point x="385" y="258" type="curve"/>
      <point x="385" y="334" type="line"/>
      <point x="61" y="334" type="line"/>
      <point x="61" y="258" type="line"/>
      <point x="61" y="258"/>
      <point x="385" y="258"/>
    </contour>
    <contour>
      <point x="165" y="131" type="curve" smooth="yes"/>
      <point x="165" y="166"/>
      <point x="193" y="195"/>
      <point x="228" y="195" type="curve" smooth="yes"/>
      <point x="262" y="195"/>
      <point x="292" y="166"/>
      <point x="292" y="131" type="curve" smooth="yes"/>
      <point x="292" y="97"/>
      <point x="262" y="68"/>
      <point x="228" y="68" type="curve" smooth="yes"/>
      <point x="193" y="68"/>
      <point x="165" y="97"/>
    </contour>
    <contour>
      <point x="165" y="460" type="curve" smooth="yes"/>
      <point x="165" y="495"/>
      <point x="193" y="524"/>
      <point x="228" y="524" type="curve" smooth="yes"/>
      <point x="262" y="524"/>
      <point x="292" y="495"/>
      <point x="292" y="460" type="curve" smooth="yes"/>
      <point x="292" y="426"/>
      <point x="262" y="397"/>
      <point x="228" y="397" type="curve" smooth="yes"/>
      <point x="193" y="397"/>
      <point x="165" y="426"/>
    </contour>
  </outline>
</glyph>
<glyph name="oslash" format="1">
  <advance width="1189"/>
  <unicode hex="00F8"/>
  <outline>
    <contour>
      <point x="1112" y="1190" type="line"/>
      <point x="1178" y="1137" type="line"/>
      <point x="113" y="-111" type="line"/>
      <point x="47" y="-57" type="line"/>
    </contour>
    <component base="o"/>
    <contour>
      <point x="595" y="1073" type="move" name="top"/>
    </contour>
  </outline>
</glyph>
<glyph name="thorn" format="1">
  <advance width="623"/>
  <unicode hex="00FE"/>
  <outline>
    <contour>
      <point x="491.0" y="543.0"/>
      <point x="579.0" y="419.0"/>
      <point x="579.0" y="263.0" type="curve" smooth="yes"/>
      <point x="579.0" y="103.0"/>
      <point x="495.0" y="-13.0"/>
      <point x="357.0" y="-13.0" type="curve"/>
      <point x="299.0" y="-9.0"/>
      <point x="246.0" y="16.0"/>
      <point x="213.0" y="65.0" type="curve"/>
      <point x="213.0" y="-136.0" type="line"/>
      <point x="321.0" y="-136.0" type="line"/>
      <point x="321.0" y="-196.0" type="line"/>
      <point x="-7.0" y="-196.0" type="line"/>
      <point x="-7.0" y="-137.0" type="line"/>
      <point x="108.0" y="-137.0" type="line"/>
      <point x="108.0" y="-137.0" type="line"/>
      <point x="108" y="695" type="line"/>
      <point x="13" y="695" type="line"/>
      <point x="13" y="750" type="line"/>
      <point x="210" y="750" type="line"/>
      <point x="210.0" y="440.0" type="line"/>
      <point x="244.0" y="502.0"/>
      <point x="299.0" y="536.0"/>
      <point x="362.0" y="538.0" type="curve" smooth="yes"/>
    </contour>
    <contour>
      <point x="432.0" y="42.0"/>
      <point x="467.0" y="162.0"/>
      <point x="467.0" y="269.0" type="curve" smooth="yes"/>
      <point x="467.0" y="373.0"/>
      <point x="422.0" y="476.0"/>
      <point x="338.0" y="476.0" type="curve" smooth="yes"/>
      <point x="260.0" y="476.0"/>
      <point x="206.0" y="386.0"/>
      <point x="206.0" y="260.0" type="curve" smooth="yes"/>
      <point x="206.0" y="160.0"/>
      <point x="243.0" y="42.0"/>
      <point x="338.0" y="42.0" type="curve" smooth="yes"/>
    </contour>
  </outline>
</glyph>
<glyph name="dcroat" format="1">
  <advance width="1236"/>
  <unicode hex="0111"/>
  <outline>
    <contour>
      <point x="1225" y="1293" type="line"/>
      <point x="534" y="1293" type="line"/>
      <point x="534" y="1181" type="line"/>
      <point x="1225" y="1181" type="line"/>
    </contour>
    <component base="d"/>
  </outline>
</glyph>
<glyph name="Hbar" format="1">
  <advance width="1654"/>
  <unicode hex="0126"/>
  <outline>
    <contour>
      <point x="1143" y="1048" type="line"/>
      <point x="1143" y="852" type="line"/>
      <point x="512" y="852" type="line"/>
      <point x="512" y="1048" type="line"/>
    </contour>
    <contour>
      <point x="741" y="0" type="line"/>
      <point x="741" y="137" type="line"/>
      <point x="512" y="137" type="line"/>
      <point x="512" y="725" type="line"/>
      <point x="1143" y="725" type="line"/>
      <point x="1143" y="137" type="line"/>
      <point x="911" y="137" type="line"/>
      <point x="911" y="0" type="line"/>
      <point x="1622" y="0" type="line"/>
      <point x="1622" y="137" type="line"/>
      <point x="1378" y="137" type="line"/>
      <point x="1378" y="1048" type="line"/>
      <point x="1484" y="1048" type="line"/>
      <point x="1484" y="1166" type="line"/>
      <point x="1378" y="1166" type="line"/>
      <point x="1378" y="1362" type="line"/>
      <point x="1622" y="1362" type="line"/>
      <point x="1622" y="1505" type="line"/>
      <point x="911" y="1505" type="line"/>
      <point x="911" y="1362" type="line"/>
      <point x="1143" y="1362" type="line"/>
      <point x="1143" y="1166" type="line"/>
      <point x="512" y="1166" type="line"/>
      <point x="512" y="1362" type="line"/>
      <point x="741" y="1362" type="line"/>
      <point x="741" y="1505" type="line"/>
      <point x="33" y="1505" type="line"/>
      <point x="33" y="1362" type="line"/>
      <point x="276" y="1362" type="line"/>
      <point x="276" y="1166" type="line"/>
      <point x="173" y="1166" type="line"/>
      <point x="173" y="1048" type="line"/>
      <point x="276" y="1048" type="line"/>
      <point x="276" y="137" type="line"/>
      <point x="33" y="137" type="line"/>
      <point x="33" y="0" type="line"/>
    </contour>
  </outline>
</glyph>
<glyph name="hbar" format="1">
  <advance width="1355"/>
  <unicode hex="0127"/>
  <outline>
    <contour>
      <point x="717" y="1293" type="line"/>
      <point x="33" y="1293" type="line"/>
      <point x="33" y="1181" type="line"/>
      <point x="717" y="1181" type="line"/>
    </contour>
    <component base="h"/>
  </outline>
</glyph>
<glyph name="dotlessi" format="1">
  <advance width="671"/>
  <unicode hex="0131"/>
  <outline>
    <contour>
      <point x="461" y="1073" type="line"/>
      <point x="461" y="117" type="line"/>
      <point x="657" y="117" type="line"/>
      <point x="657" y="0" type="line"/>
      <point x="53" y="0" type="line"/>
      <point x="53" y="117" type="line"/>
      <point x="246" y="117" type="line"/>
      <point x="246" y="961" type="line"/>
      <point x="51" y="961" type="line"/>
      <point x="51" y="1073" type="line"/>
    </contour>
    <contour>
      <point x="336" y="1073" type="move" name="top"/>
    </contour>
    <contour>
      <point x="604" y="10" type="move" name="ogonek"/>
    </contour>
  </outline>
</glyph>
<glyph name="kgreenlandic" format="1">
  <advance width="639"/>
  <unicode hex="0138"/>
  <outline>
    <contour>
      <point x="365" y="298" type="line"/>
      <point x="433" y="203"/>
      <point x="506.0" y="55.0"/>
      <point x="596.0" y="68.0" type="curve" smooth="yes"/>
      <point x="608.0" y="70.0"/>
      <point x="621.0" y="70.0"/>
      <point x="636.0" y="77.0" type="curve"/>
      <point x="650.0" y="11.0" type="line"/>
      <point x="615.0" y="-9.0"/>
      <point x="591.0" y="-10.0"/>
      <point x="563.0" y="-10.0" type="curve" smooth="yes"/>
      <point x="490.0" y="-10.0"/>
      <point x="447.0" y="34.0"/>
      <point x="405.0" y="97.0" type="curve" smooth="yes"/>
      <point x="303" y="257" type="line"/>
      <point x="226" y="192" type="line"/>
      <point x="226.0" y="57.0" type="line"/>
      <point x="309.0" y="57.0" type="line"/>
      <point x="309.0" y="0.0" type="line"/>
      <point x="22.0" y="0.0" type="line"/>
      <point x="22.0" y="57.0" type="line"/>
      <point x="121.0" y="57.0" type="line"/>
      <point x="121" y="464" type="line"/>
      <point x="22" y="464" type="line"/>
      <point x="22" y="524" type="line"/>
      <point x="226" y="524" type="line"/>
      <point x="226" y="267" type="line"/>
      <point x="438" y="467" type="line"/>
      <point x="338.0" y="467.0" type="line"/>
      <point x="338.0" y="524.0" type="line"/>
      <point x="631.0" y="524.0" type="line"/>
      <point x="631.0" y="467.0" type="line"/>
      <point x="538.0" y="467.0" type="line"/>
    </contour>
    <contour>
      <point x="326.0" y="0.0" type="move" name="bottom"/>
    </contour>
  </outline>
</glyph>
<glyph name="Lslash" format="1">
  <advance width="1290"/>
  <unicode hex="0141"/>
  <outline>
    <contour>
      <point x="1264" y="0" type="line"/>
      <point x="1264" y="625" type="line"/>
      <point x="1077" y="625" type="line"/>
      <point x="1077" y="137" type="line"/>
      <point x="512" y="137" type="line"/>
      <point x="512" y="821" type="line"/>
      <point x="724" y="925" type="line"/>
      <point x="724" y="1073" type="line"/>
      <point x="512" y="969" type="line"/>
      <point x="512" y="1362" type="line"/>
      <point x="741" y="1362" type="line"/>
      <point x="741" y="1505" type="line"/>
      <point x="33" y="1505" type="line"/>
      <point x="33" y="1362" type="line"/>
      <point x="276" y="1362" type="line"/>
      <point x="276" y="853" type="line"/>
      <point x="61" y="747" type="line"/>
      <point x="61" y="599" type="line"/>
      <point x="276" y="705" type="line"/>
      <point x="276" y="137" type="line"/>
      <point x="33" y="137" type="line"/>
      <point x="33" y="0" type="line"/>
    </contour>
  </outline>
</glyph>
<glyph name="OE" format="1">
  <advance width="1094"/>
  <unicode hex="0152"/>
  <outline>
    <contour>
      <point x="1079" y="875" type="curve"/>
      <point x="1079" y="862" type="line"/>
      <point x="1077" y="822"/>
      <point x="1068" y="633"/>
      <point x="1066" y="593" type="curve"/>
      <point x="1063" y="589"/>
      <point x="1044" y="579"/>
      <point x="1039" y="579" type="curve" smooth="yes"/>
      <point x="1004" y="579"/>
      <point x="1049" y="796"/>
      <point x="776" y="796" type="curve" smooth="yes"/>
      <point x="763" y="796"/>
      <point x="702" y="795"/>
      <point x="689" y="795" type="curve"/>
      <point x="665" y="708"/>
      <point x="679" y="683"/>
      <point x="679" y="584" type="curve"/>
      <point x="786" y="584"/>
      <point x="807" y="589"/>
      <point x="850" y="700" type="curve"/>
      <point x="893" y="700" type="line"/>
      <point x="893" y="594"/>
      <point x="885" y="463"/>
      <point x="877" y="364" type="curve"/>
      <point x="837" y="364" type="line"/>
      <point x="827" y="437"/>
      <point x="786" y="499"/>
      <point x="708" y="499" type="curve" smooth="yes"/>
      <point x="700" y="499"/>
      <point x="675" y="502"/>
      <point x="675" y="485" type="curve" smooth="yes"/>
      <point x="675" y="269" type="line"/>
      <point x="702" y="256" type="line" smooth="yes"/>
      <point x="706" y="255"/>
      <point x="757" y="254"/>
      <point x="774" y="254" type="curve" smooth="yes"/>
      <point x="979" y="254"/>
      <point x="965" y="290"/>
      <point x="1025" y="471" type="curve" smooth="yes"/>
      <point x="1027" y="475"/>
      <point x="1036" y="485"/>
      <point x="1039" y="485" type="curve" smooth="yes"/>
      <point x="1080" y="485"/>
      <point x="1079" y="482"/>
      <point x="1079" y="461" type="curve" smooth="yes"/>
      <point x="1079" y="444" type="line"/>
      <point x="1075" y="364"/>
      <point x="1066" y="175"/>
      <point x="1066" y="175" type="curve"/>
      <point x="1039" y="162" type="line" smooth="yes"/>
      <point x="1035" y="161"/>
      <point x="949" y="160"/>
      <point x="916" y="160" type="curve" smooth="yes"/>
      <point x="697" y="160"/>
      <point x="534" y="165"/>
      <point x="298" y="175" type="curve"/>
      <point x="130" y="194"/>
      <point x="15" y="365"/>
      <point x="15" y="525" type="curve" smooth="yes"/>
      <point x="15" y="722"/>
      <point x="166" y="861"/>
      <point x="352" y="889" type="curve"/>
      <point x="388" y="889"/>
      <point x="558" y="890"/>
      <point x="594" y="890" type="curve" smooth="yes"/>
      <point x="774" y="890"/>
      <point x="900" y="892"/>
    </contour>
    <contour>
      <point x="176" y="525" type="curve" smooth="yes"/>
      <point x="176" y="401"/>
      <point x="207" y="255"/>
      <point x="359" y="255" type="curve" smooth="yes"/>
      <point x="520" y="255"/>
      <point x="528" y="420"/>
      <point x="528" y="545" type="curve" smooth="yes"/>
      <point x="528" y="675"/>
      <point x="523" y="796"/>
      <point x="369" y="796" type="curve" smooth="yes"/>
      <point x="214" y="796"/>
      <point x="176" y="659"/>
    </contour>
    <contour>
      <point x="547" y="722" type="move" name="top"/>
    </contour>
  </outline>
</glyph>
<glyph name="oe" format="1">
  <advance width="1876"/>
  <unicode hex="0153"/>
  <outline>
    <contour>
      <point x="1084" y="659" type="curve"/>
      <point x="1580" y="659" type="line"/>
      <point x="1574" y="856"/>
      <point x="1487" y="985"/>
      <point x="1344" y="985" type="curve" smooth="yes"/>
      <point x="1199" y="985"/>
      <point x="1100" y="856"/>
    </contour>
    <contour>
      <point x="578" y="-27" type="curve" smooth="yes"/>
      <point x="250" y="-27"/>
      <point x="74" y="218"/>
      <point x="74" y="537" type="curve" smooth="yes"/>
      <point x="74" y="856"/>
      <point x="248" y="1102"/>
      <point x="576" y="1102" type="curve" smooth="yes"/>
      <point x="757" y="1102"/>
      <point x="876.016" y="1027.39"/>
      <point x="964.8" y="907.077" type="curve"/>
      <point x="1050.98" y="1025.45"/>
      <point x="1164" y="1104"/>
      <point x="1338" y="1104" type="curve" smooth="yes"/>
      <point x="1608" y="1104"/>
      <point x="1794" y="911"/>
      <point x="1800" y="551" type="curve"/>
      <point x="1077" y="551" type="line"/>
      <point x="1077" y="543" type="line" smooth="yes"/>
      <point x="1077" y="321"/>
      <point x="1151" y="123"/>
      <point x="1371" y="123" type="curve" smooth="yes"/>
      <point x="1500" y="123"/>
      <point x="1617" y="205"/>
      <point x="1662" y="371" type="curve"/>
      <point x="1779" y="334" type="line"/>
      <point x="1728" y="117"/>
      <point x="1592" y="-29"/>
      <point x="1350" y="-29" type="curve" smooth="yes"/>
      <point x="1168" y="-29"/>
      <point x="1051.03" y="49.9374"/>
      <point x="963" y="166.298" type="curve"/>
      <point x="874.349" y="47.3948"/>
      <point x="756" y="-27"/>
    </contour>
    <contour>
      <point x="576" y="983" type="curve" smooth="yes"/>
      <point x="371" y="983"/>
      <point x="303" y="784"/>
      <point x="303" y="524" type="curve" smooth="yes"/>
      <point x="303" y="270"/>
      <point x="394" y="100"/>
      <point x="578" y="100" type="curve" smooth="yes"/>
      <point x="760" y="100"/>
      <point x="847" y="274"/>
      <point x="847" y="524" type="curve" smooth="yes"/>
      <point x="847" y="784"/>
      <point x="781" y="983"/>
    </contour>
  </outline>
</glyph>
